<?xml version="1.0" encoding="UTF-8" standalone="no"?>
<svg width="102px" height="40px" viewBox="0 0 102 40" version="1.1" xmlns="http://www.w3.org/2000/svg" xmlns:xlink="http://www.w3.org/1999/xlink">
    <!-- Generator: Sketch 46 (44423) - http://www.bohemiancoding.com/sketch -->
    <title>ABB</title>
    <desc>Created with Sketch.</desc>
    <defs>
        <polygon id="path-1" points="0.1384 20 15.8134274 20 15.8134274 0.3164 0.1384 0.3164 0.1384 20"></polygon>
        <polygon id="path-3" points="0 40 101.966 40 101.966 0 0 0"></polygon>
    </defs>
    <g id="1-Home" stroke="none" stroke-width="1" fill="none" fill-rule="evenodd">
        <g id="1.1-Home" transform="translate(-189.000000, -5319.000000)">
            <g id="ABB" transform="translate(140.000000, 5279.000000)">
                <rect id="Rectangle-5-Copy-9" x="0" y="0" width="200" height="120"></rect>
                <polygon id="Fill-1" fill="#B4B6B8" points="62.6069491 40 56 59 68 59 68 40"></polygon>
                <polygon id="Fill-2" fill="#B4B6B8" points="69 40 69 59 81 59 74.4402445 40"></polygon>
                <polygon id="Fill-3" fill="#B4B6B8" points="69 60 69 71.8719837 75.9611794 71.8719837 78.7627914 80 89 80 81.987808 60"></polygon>
                <polygon id="Fill-4" fill="#B4B6B8" points="56.0427876 60 49 80 59.2126569 80 62.0965924 71.8719837 69 71.8719837 69 60"></polygon>
                <polygon id="Fill-5" fill="#B4B6B8" points="92 59 104 59 104 40 92 40"></polygon>
                <g id="Group-17" transform="translate(49.000000, 40.000000)">
                    <path d="M63.2527,16.8784 C64.7527,17.4724 66.1027,18.3604 67.2337,19.4684 L55.1387,19.4684 L55.1387,0.0004 L58.7457,0.0004 L58.7457,0.0034 C58.7797,0.0024 58.8137,0.0004 58.8477,0.0004 C63.8307,0.0144 67.8617,4.0454 67.8647,9.0174 C67.8627,12.3934 66.0037,15.3334 63.2527,16.8784 Z" id="Fill-6" fill="#B4B6B8"></path>
                    <g id="Group-10" transform="translate(55.000000, 20.000000)">
                        <mask id="mask-2" fill="white">
                            <use xlink:href="#path-1"></use>
                        </mask>
                        <g id="Clip-9"></g>
                        <path d="M0.1384,0.3164 L0.1384,20.0004 L3.7454,20.0004 L3.7454,19.9974 C3.7794,19.9974 3.8134,20.0004 3.8474,20.0004 C10.4684,19.9854 15.8274,14.6264 15.8134,8.0004 C15.8194,5.0754 14.7674,2.3954 13.0184,0.3164 L0.1384,0.3164 Z" id="Fill-8" fill="#B4B6B8" mask="url(#mask-2)"></path>
                    </g>
                    <mask id="mask-4" fill="white">
                        <use xlink:href="#path-3"></use>
                    </mask>
                    <g id="Clip-12"></g>
                    <polygon id="Fill-11" fill="#B4B6B8" mask="url(#mask-4)" points="42.712 40 54.292 40 54.292 20.316 42.712 20.316"></polygon>
                    <polygon id="Fill-13" fill="#B4B6B8" mask="url(#mask-4)" points="73.865 19.469 85.456 19.469 85.456 0 73.865 0"></polygon>
                    <path d="M94.4002,16.8779 C97.1492,15.3329 99.0092,12.3929 99.0172,9.0169 C99.0052,4.0449 94.9742,0.0139 90.0002,-0.0001 C89.9662,-0.0001 89.9322,0.0029 89.8982,0.0029 L89.8982,-0.0001 L86.3032,-0.0001 L86.3032,19.4689 L98.3802,19.4689 C97.2492,18.3599 95.8992,17.4719 94.4002,16.8779" id="Fill-14" fill="#B4B6B8" mask="url(#mask-4)"></path>
                    <path d="M99.1643,20.3164 L86.3033,20.3164 L86.3033,40.0004 L89.8983,40.0004 L89.8983,39.9974 C89.9323,39.9974 89.9663,40.0004 89.9993,40.0004 C96.6123,39.9854 101.9723,34.6264 101.9663,28.0004 C101.9683,25.0754 100.9143,22.3954 99.1643,20.3164" id="Fill-15" fill="#B4B6B8" mask="url(#mask-4)"></path>
                    <polygon id="Fill-16" fill="#B4B6B8" mask="url(#mask-4)" points="73.865 40 85.456 40 85.456 20.316 73.865 20.316"></polygon>
                </g>
            </g>
        </g>
    </g>
</svg>