<?xml version="1.0" encoding="UTF-8" standalone="no"?>
<svg width="128px" height="35px" viewBox="0 0 128 35" version="1.1" xmlns="http://www.w3.org/2000/svg" xmlns:xlink="http://www.w3.org/1999/xlink">
    <!-- Generator: Sketch 46 (44423) - http://www.bohemiancoding.com/sketch -->
    <title>Aktua</title>
    <desc>Created with Sketch.</desc>
    <defs>
        <polygon id="path-1" points="1.47889958e-15 31.9493745 1.47889958e-15 0.180664289 32.9917189 0.180664289 32.9917189 31.9493745"></polygon>
        <polygon id="path-3" points="0.491810526 0.570581818 23.5772842 0.570581818 23.5772842 33.950536 0.491810526 33.950536 0.491810526 0.570581818"></polygon>
        <polygon id="path-5" points="0.105749346 23 21.9974658 23 21.9974658 0.0767029815 0.105749346 0.0767029815 0.105749346 23"></polygon>
    </defs>
    <g id="1-Home" stroke="none" stroke-width="1" fill="none" fill-rule="evenodd">
        <g id="1.1-Home" transform="translate(-176.000000, -5442.000000)">
            <g id="Aktua" transform="translate(140.000000, 5399.000000)">
                <rect id="Rectangle-5-Copy-2" x="0" y="0" width="200" height="120"></rect>
                <g id="Group-3" transform="translate(36.000000, 45.000000)">
                    <mask id="mask-2" fill="white">
                        <use xlink:href="#path-1"></use>
                    </mask>
                    <g id="Clip-2"></g>
                    <path d="M10.4053981,19.1200615 L22.0973604,19.1200615 C20.2686623,14.5742154 18.5128132,10.0942154 16.4338132,5.74775385 C16.3597189,5.74836923 16.2843792,5.74836923 16.2102849,5.74898462 C14.294417,10.1625231 12.3779264,14.5766769 10.4053981,19.1200615 M-0.000186792453,31.9360615 C0.707133962,30.1385231 1.32790755,28.4388308 2.03834151,26.7766769 C5.38503962,18.9459077 8.75103962,11.1231385 12.1245113,3.30406154 C12.6543792,2.07390769 13.3735302,0.972984615 14.7408509,0.4936 C16.4580962,-0.108246154 18.0850585,0.198830769 19.6204925,1.06590769 C19.8683038,1.20621538 20.0395302,1.53852308 20.168417,1.81729231 C21.899983,5.5576 23.7118698,9.26529231 25.3182849,13.0579077 C27.8792094,19.1065231 30.3031528,25.2111385 32.7818887,31.2929846 C32.8566057,31.4751385 32.9057943,31.6677538 32.9917189,31.9336 C31.0391151,31.9336 29.1668321,31.9483692 27.2957943,31.9096 C27.1251906,31.9059077 26.8904547,31.5914462 26.8057755,31.3748308 C25.9515113,29.1803692 25.0885302,26.9877538 24.3046245,24.7686769 C24.0474736,24.0406769 23.6763792,23.8369846 22.9223604,23.8431385 C18.3652472,23.8794462 13.8087566,23.8720615 9.2516434,23.8536 C8.73609623,23.8517538 8.48454906,24.0031385 8.30398302,24.4892923 C7.45220943,26.7803692 6.54937925,29.0542154 5.69262453,31.3434462 C5.53696415,31.7594462 5.36386981,31.9594462 4.8732283,31.9489846 C3.29732264,31.9145231 1.7201717,31.9360615 -0.000186792453,31.9360615" id="Fill-1" fill="#B4B6B8" mask="url(#mask-2)"></path>
                </g>
                <g id="Group-6" transform="translate(71.000000, 43.000000)">
                    <mask id="mask-4" fill="white">
                        <use xlink:href="#path-3"></use>
                    </mask>
                    <g id="Clip-5"></g>
                    <path d="M5.73770526,23.7261891 L5.73770526,33.8890982 L0.491810526,33.8890982 L0.491810526,33.0434255 C0.491810526,23.0418618 0.492442105,13.0402982 0.492442105,3.03811636 C0.492442105,1.47164364 1.27370526,0.621643636 2.90128421,0.572189091 C3.62949474,0.550552727 4.36528421,0.733534545 5.09665263,0.832443636 C5.59938947,0.899825455 5.74781053,1.18233455 5.74402105,1.68120727 C5.72065263,4.95448 5.72886316,8.22837091 5.73012632,11.5016436 C5.73075789,14.0021891 5.73581053,16.5021164 5.74149474,19.0026618 C5.74212632,19.1534982 5.76233684,19.3037164 5.78317895,19.5856073 C6.15896842,19.3197891 6.45138947,19.1145527 6.74191579,18.9068436 C9.62570526,16.8396436 12.5057053,14.7662618 15.3964421,12.7083345 C16.4341263,11.9702255 17.5046526,11.3161891 18.8537053,11.2259345 C20.4636,11.1177527 21.6061263,11.5832436 22.6722316,12.9667345 C18.9711789,16.0118982 14.9473895,18.6410255 10.9242316,21.4457164 C15.7873895,24.9724436 19.8838105,29.1389891 23.5772842,33.9373164 L21.5170737,33.9373164 C20.2400211,33.9373164 18.9617053,33.9125891 17.6859158,33.94968 C17.1913895,33.9638982 16.8806526,33.8013164 16.5711789,33.4372073 C13.5099158,29.8338255 9.9156,26.7898982 6.11602105,23.9654255 C6.04338947,23.9116436 5.96254737,23.8677527 5.73770526,23.7261891" id="Fill-4" fill="#B4B6B8" mask="url(#mask-4)"></path>
                </g>
                <path d="M158.797652,70.474772 C158.797652,69.5444557 158.816516,68.6129048 158.781304,67.6838232 C158.773758,67.4980069 158.579463,67.1806993 158.432955,67.1572407 C155.568197,66.7004166 152.690234,66.4497806 149.834279,67.165266 C148.545264,67.4875123 147.625347,68.2801639 147.325415,69.6259433 C146.849423,71.7575837 147.723438,73.2749807 149.875779,73.8231697 C152.701553,74.5417418 155.561909,74.3225897 158.407803,73.902188 C158.563743,73.8793468 158.7725,73.5348766 158.781304,73.3336271 C158.820288,72.3817043 158.798281,71.4279295 158.797652,70.474772 M158.69516,63.4520263 C158.905804,61.3358191 157.796622,59.4807426 155.888879,58.7559972 C154.1245,58.0855769 152.273348,58.0800209 150.416537,58.175707 C148.605628,58.2689239 146.921733,58.7732824 145.383089,59.6826095 C143.519362,58.1929923 143.694165,55.9539365 145.826385,54.9976924 C146.873946,54.5272869 148.069271,54.2704776 149.222469,54.149481 C152.019946,53.8550146 154.811765,53.9667513 157.539447,54.7445871 C161.440448,55.855781 163.847448,58.7232787 163.939251,62.6883891 C164.047403,67.3850355 163.98138,72.0866205 163.96566,76.7863536 C163.965032,76.9666139 163.711001,77.2857735 163.546888,77.3049108 C158.653031,77.8734717 153.752886,78.3914115 148.834506,77.5820919 C148.042862,77.4518353 147.259393,77.2098419 146.504847,76.9332781 C143.121339,75.6936795 141.746808,73.4527718 142.037937,69.8129943 C142.300142,66.5355895 143.868339,64.7570618 147.087105,63.8502041 C149.978272,63.0347112 152.937348,63.1063215 155.898311,63.251394 C156.817599,63.2958418 157.735,63.382268 158.69516,63.4520263" id="Fill-7" fill="#B4B6B8"></path>
                <g id="Group-11" transform="translate(116.000000, 54.000000)">
                    <mask id="mask-6" fill="white">
                        <use xlink:href="#path-5"></use>
                    </mask>
                    <g id="Clip-10"></g>
                    <path d="M21.9962722,7.84106316 C21.9962722,9.66593158 21.9993278,11.4895895 21.9956611,13.3144579 C21.9852722,18.0458 19.4839944,21.2996947 14.8578833,22.5035632 C12.0809944,23.2262474 9.29127222,23.1626947 6.55166111,22.2953526 C2.65338333,21.0612211 0.247438889,17.9314053 0.155161111,13.8138 C0.0689944444,9.98914211 0.117883333,6.16085263 0.136216667,2.33377368 C0.142327778,1.03972105 0.760161111,0.301905263 2.04899444,0.180247368 C2.87827222,0.102168421 3.73382778,0.260747368 4.57349444,0.347905263 C5.07338333,0.400563158 5.23655,0.694115789 5.23288333,1.21827368 C5.20660556,4.95516842 5.16443889,8.69448421 5.25243889,12.4301684 C5.27871667,13.5565632 5.59343889,14.7108 5.97110556,15.7839316 C6.32799444,16.7965368 7.15727222,17.5125632 8.18577222,17.9065895 C10.1083278,18.6419842 12.0626611,18.6680105 13.9674944,17.8950895 C15.8063278,17.1488 16.54455,15.5751158 16.8158833,13.7441947 C16.9106056,13.1092737 16.9326056,12.4592211 16.93505,11.8152211 C16.94605,8.72293158 16.9387167,5.63003684 16.9411611,2.53714211 C16.9417722,0.984036842 17.5479944,0.306142105 19.1038833,0.113063158 C19.3257167,0.0858263158 19.5518278,0.0713 19.7748833,0.0785631579 C21.7958278,0.140905263 21.9962722,0.343668421 21.9962722,2.30108947 L21.9962722,7.84106316 Z" id="Fill-9" fill="#B4B6B8" mask="url(#mask-6)"></path>
                </g>
                <path d="M102.006296,54.4300989 L107.758661,54.4300989 C107.913854,54.4300989 108.069047,54.4344581 108.223638,54.4294762 C110.632137,54.3472741 111.485698,55.5167858 110.875753,58.2338142 C110.709132,58.9786151 110.355436,59.2270896 109.591502,59.2065391 C107.293082,59.143642 104.991655,59.1940842 102.691431,59.1754019 C102.210212,59.1716655 101.988852,59.2495083 101.993664,59.8417371 C102.02374,63.0706605 101.992461,66.3002066 102.011108,69.52913 C102.026146,71.990211 103.284533,73.2830258 105.64912,73.3895149 C107.198042,73.4598849 108.616433,73.0432697 109.995124,72.2455357 C110.658002,73.3801738 111.305842,74.4892793 112,75.6774733 C111.524797,75.9882222 111.086286,76.3332219 110.601459,76.5810737 C108.108747,77.8595654 105.477084,78.3054495 102.735342,77.7904409 C99.1628966,77.1191238 97.0473401,74.5353623 97.0238807,70.7254196 C96.981774,63.9244414 97.0064365,57.1222177 97.0148578,50.3206167 C97.0166624,48.925672 97.6861575,48.0862142 99.0365768,48.0077485 C99.8979578,47.9566836 100.781595,48.1684163 101.641773,48.3378024 C101.797568,48.3689396 101.986446,48.760645 101.991258,48.9904373 C102.021334,50.5242537 102.006898,52.0580702 102.006296,53.5925093 L102.006296,54.4300989 Z" id="Fill-12" fill="#B4B6B8"></path>
            </g>
        </g>
    </g>
</svg>