<?xml version="1.0" encoding="UTF-8" standalone="no"?>
<svg width="64px" height="81px" viewBox="0 0 64 81" version="1.1" xmlns="http://www.w3.org/2000/svg" xmlns:xlink="http://www.w3.org/1999/xlink">
    <!-- Generator: Sketch 46 (44423) - http://www.bohemiancoding.com/sketch -->
    <title>Espana</title>
    <desc>Created with Sketch.</desc>
    <defs></defs>
    <g id="1-Home" stroke="none" stroke-width="1" fill="none" fill-rule="evenodd">
        <g id="1.1-Home" transform="translate(-1008.000000, -5419.000000)">
            <g id="Espana" transform="translate(940.000000, 5399.000000)">
                <rect id="Rectangle-5-Copy-4" x="0" y="0" width="200" height="120"></rect>
                <path d="M130.941512,73.4614494 C129.413433,71.9890638 127.54578,71.4793919 125.678128,71.1396106 C123.584093,70.6865689 121.490059,70.6865689 119.396024,71.0263502 C118.547091,71.1396106 118.4339,71.2528711 118.4339,72.1589545 C118.4339,77.878606 118.4339,83.5416272 118.4339,89.2612787 C118.4339,90.2239923 118.264113,91.2433362 117.981136,92.1494196 C117.132203,94.9809302 115.207955,96.9063574 112.547965,98.0955919 C109.548402,99.454717 106.379053,100.3608 103.096512,100.813842 C100.776095,101.096993 98.4556786,101.040363 96.1352619,100.757212 C93.1922944,100.417431 90.4191136,99.454717 87.7591237,98.3221128 C84.4765831,96.9063574 82.2693575,94.5845187 81.5902111,90.9601851 C81.4204246,90.2239923 81.363829,89.4311694 81.363829,88.6383464 C81.363829,83.3717366 81.363829,78.1051268 81.363829,72.838517 C81.363829,72.7818868 81.363829,72.7252566 81.363829,72.7252566 C81.4204246,71.2528711 81.4204246,71.1962409 79.8923453,70.96972 C76.4400181,70.5166783 73.0442864,70.7998294 69.9315323,72.6119962 C69.5919592,72.838517 69.252386,73.1216681 68.8562173,73.4048191 C68.5166441,72.6686264 68.177071,72.045694 68.0072844,71.3095013 C67.9506888,71.0263502 68.2336665,70.5166783 68.5166441,70.3467877 C69.5353636,69.7238553 70.5540831,69.100923 71.6859937,68.7611417 C74.6289612,67.7984281 77.6851197,67.6851677 80.7412782,68.1948396 C80.8544693,68.1948396 81.0242559,68.2514698 81.1374469,68.2514698 C81.1940425,68.2514698 81.1940425,68.2514698 81.363829,68.1948396 C81.363829,67.9683187 81.4204246,67.6851677 81.4204246,67.4020166 C81.4204246,63.777683 81.4204246,60.1533494 81.4204246,56.5290157 C81.4204246,55.4530417 81.8165933,55 82.9485038,55 C94.324205,55 105.756502,55 117.132203,55 C118.207518,55 118.547091,55.3397813 118.547091,56.4157553 C118.547091,60.0400889 118.547091,63.6644226 118.547091,67.2887562 C118.547091,68.1948396 118.660282,68.2514698 119.565811,68.1382094 C123.074733,67.6285374 126.470465,67.9116885 129.69641,69.2708136 C130.432152,69.5539647 131.054703,70.1202668 131.677254,70.5733085 C132.073422,70.8564596 132.073422,71.2528711 131.84704,71.7059128 C131.507467,72.2722149 131.281085,72.7818868 130.941512,73.4614494 Z M116.622843,66.3826728 C116.622843,63.4945319 116.622843,60.6630213 116.622843,57.7748804 C116.622843,57.3218387 116.566248,56.9820574 115.943697,56.9820574 C111.133077,56.9820574 106.265861,56.9820574 101.455242,56.9820574 C101.002477,56.9820574 100.776095,57.1519481 100.776095,57.66162 C100.776095,61.399214 100.776095,65.1934383 100.776095,68.9310323 C100.776095,69.4407043 101.002477,69.6105949 101.455242,69.7238553 C101.85141,69.8371157 102.304174,69.9503762 102.700343,70.176897 C104.398209,71.3095013 105.473524,72.838517 105.813097,74.8772047 C105.926288,75.500137 106.209266,75.7266579 106.831817,75.7266579 C109.83138,75.7266579 112.830943,75.7266579 115.830506,75.7266579 C116.622843,75.7266579 116.679439,75.6700277 116.679439,74.8772047 C116.622843,72.045694 116.622843,69.2141834 116.622843,66.3826728 Z M95.1165424,66.3260426 C95.1165424,67.6851677 95.1165424,68.9876626 95.1165424,70.2335272 C95.1165424,70.9130898 95.286329,71.0829804 96.0220709,70.96972 C96.248453,70.9130898 96.4748351,70.7998294 96.6446217,70.6865689 C97.2671725,70.3467877 97.8897233,70.0070064 98.5122741,69.7238553 C98.8518473,69.5539647 99.0216338,69.384074 99.0216338,68.9876626 C99.0216338,65.3066987 99.0216338,61.5691047 99.0216338,57.8881409 C99.0216338,57.4350991 98.8518473,57.2652085 98.399083,57.2652085 C93.6450587,57.2652085 88.9476298,57.2652085 84.1936054,57.2652085 C83.7408412,57.2652085 83.5710546,57.4350991 83.5710546,57.8881409 C83.5710546,63.6077923 83.5710546,69.3274438 83.5710546,75.0470953 C83.5710546,75.500137 83.7408412,75.7266579 84.250201,75.7266579 C87.3063595,75.7266579 90.3059225,75.7266579 93.362081,75.7266579 C93.9280363,75.7266579 94.2110139,75.3302464 94.2110139,74.5940536 C94.2110139,73.9711213 93.7582497,74.1976421 93.4186766,74.1976421 C91.2680465,74.1976421 89.1740119,74.1976421 87.0233819,74.1976421 C86.400831,74.1976421 86.1744489,73.9711213 86.1744489,73.3481889 C86.2310445,72.7818868 86.1744489,72.2155847 86.1744489,71.6492826 C86.1744489,71.1962409 86.28764,70.9130898 86.7969997,71.0263502 C87.362955,71.1396106 87.5327416,70.7998294 87.5327416,70.2901574 C87.5327416,69.2708136 87.5327416,68.2514698 87.5327416,67.232126 C87.5327416,66.8357145 87.6459327,66.3826728 87.0233819,66.2694123 C86.9667863,66.2694123 86.8535953,65.9862613 86.8535953,65.8730009 C86.8535953,65.2500685 86.7969997,64.570506 86.8535953,63.9475736 C86.8535953,63.7210528 87.1365729,63.4945319 87.362955,63.3812715 C87.9289103,63.1547506 87.9855058,62.8715996 87.7591237,62.3619277 C87.5893371,61.8522557 87.5893371,61.2293234 87.5327416,60.6630213 C87.9289103,60.6063911 88.325079,60.6063911 88.7212477,60.5497609 C88.7778432,60.5497609 88.8344388,60.5497609 88.8344388,60.5497609 C89.5701806,60.5497609 89.6833717,60.4365004 89.6833717,59.7569379 C89.6833717,59.4737868 89.6833717,59.247266 89.6833717,58.9641149 C89.6833717,58.6243336 89.7965627,58.454443 90.1927314,58.454443 C90.8152823,58.454443 91.4378331,58.5110732 92.0603839,58.454443 C92.6829347,58.3978128 92.9093168,58.6243336 92.9093168,59.3038962 C92.9093168,60.6063911 92.9093168,60.6063911 94.2110139,60.6063911 C94.3808005,60.6063911 94.5505871,60.6063911 94.6637782,60.6063911 C94.7769692,60.6063911 94.9467558,60.7762817 94.9467558,60.8329119 C94.8901603,61.399214 95.286329,61.9655162 94.7203737,62.4751881 C94.4373961,62.7017089 94.5505871,63.3812715 94.8901603,63.3812715 C95.7390932,63.3812715 95.7390932,63.8909434 95.7390932,64.5138757 C95.7390932,64.9102872 95.7390932,65.2500685 95.7390932,65.64648 C95.9088798,66.0428915 95.8522843,66.3826728 95.1165424,66.3260426 Z M116.339865,83.7115179 C116.339865,81.8993511 116.339865,80.0871843 116.339865,78.2750174 C116.339865,77.6520851 116.170079,77.4255643 115.490933,77.4255643 C112.717752,77.4255643 109.944571,77.4255643 107.17139,77.4255643 C106.888412,77.4255643 106.605435,77.368934 106.322457,77.4255643 C106.15267,77.4255643 106.039479,77.5954549 105.869693,77.7087153 C105.982884,77.8219757 106.039479,77.9918664 106.209266,78.1051268 C106.379053,78.2183872 106.548839,78.3316477 106.718626,78.5015383 C107.001603,78.7846894 107.284581,78.7846894 107.567559,78.5581685 C108.246705,77.9918664 108.586278,77.9918664 109.32202,78.5581685 C109.661593,78.8413196 109.944571,78.8979498 110.284144,78.4449081 C110.623717,77.9918664 111.925414,77.9352362 112.264987,78.4449081 C112.604561,78.8979498 113.000729,78.8413196 113.396898,78.5581685 C114.019449,78.0484966 114.528809,78.0484966 114.981573,78.5015383 C115.434337,78.95458 115.377742,79.4642519 114.924977,80.0871843 C114.585404,80.4835957 114.585404,81.1631583 114.981573,81.5595698 C115.321146,81.8993511 115.377742,83.1452157 115.094764,83.484997 C114.585404,84.1645596 114.585404,84.5043408 115.038168,85.2405336 C115.377742,85.7502055 115.434337,86.2032472 114.981573,86.6562889 C114.642,87.0527004 114.585404,87.3924817 114.981573,87.7888932 C115.321146,88.1286745 115.321146,89.4877996 114.981573,89.6576902 C114.245831,90.0541017 114.245831,90.677034 114.415618,91.3565966 C114.528809,92.0361591 114.302426,92.5458311 113.679876,92.6024613 C112.944134,92.7157217 112.604561,93.1687634 112.434774,93.848326 C112.321583,94.3579979 111.076481,94.9809302 110.680313,94.6977791 C110.170953,94.3579979 109.774784,94.5845187 109.435211,94.9243 C108.756065,95.5472323 108.3033,95.5472323 107.624154,94.9809302 C107.227985,94.6411489 106.831817,94.3579979 106.265861,94.6411489 C105.643311,94.9243 104.624591,94.4712583 104.5114,93.7350655 C104.398209,93.1121332 104.058636,92.8289821 103.492681,92.6590915 C102.530557,92.3759404 102.473961,92.0927894 102.587152,91.0734455 C102.643748,90.6204038 102.473961,90.0541017 102.190983,89.7143204 C101.738219,89.2046485 101.511837,88.0720443 102.021197,87.6190026 C102.36077,87.3358515 102.36077,87.0527004 102.134388,86.7129191 C101.625028,86.0333566 101.681624,85.6369451 102.077792,84.8441221 C102.247579,84.5609711 102.36077,84.1079294 102.247579,83.8247783 C102.134388,83.5982574 101.681624,83.3717366 101.398646,83.3151064 C101.002477,83.2584762 100.889286,83.5416272 100.889286,83.9380387 C100.889286,85.5236847 100.889286,87.0527004 100.832691,88.6383464 C100.776095,92.9988728 104.681187,96.9063574 109.548402,96.2834251 C113.11392,95.8303834 116.509652,92.7157217 116.396461,88.525086 C116.28327,86.93944 116.339865,85.353794 116.339865,83.7115179 Z M94.8335648,76.5194808 C94.8335648,78.161757 95.39952,79.6341426 96.4182395,80.8800072 C98.3424875,83.2584762 101.511837,83.3151064 103.492681,80.9366374 C105.53012,78.5015383 105.586715,74.7639443 103.719063,72.2155847 C102.021197,70.0070064 99.0782294,69.6672251 97.1539814,71.3661315 C95.5693066,72.7818868 94.8335648,74.4807932 94.8335648,76.5194808 Z M90.5889001,86.9960702 C90.5889001,89.8842111 90.5889001,92.8289821 90.5889001,95.717123 C90.5889001,96.2834251 90.7586867,96.509946 91.324642,96.509946 C92.0603839,96.5665762 92.1169794,96.1701647 92.1169794,95.6038626 C92.1169794,89.8842111 92.1169794,84.1079294 92.1169794,78.3882779 C92.1169794,77.7653455 91.9471928,77.5388247 91.2680465,77.4821945 C90.5889001,77.4821945 90.5323046,77.8219757 90.5323046,78.3882779 C90.6454957,81.2197885 90.5889001,84.1079294 90.5889001,86.9960702 Z M88.325079,95.717123 C88.325079,95.4339719 88.3816745,95.2074511 88.3816745,94.9243 C88.3816745,89.3745391 88.3816745,83.8814085 88.3816745,78.3316477 C88.3816745,78.161757 88.4382701,77.9918664 88.3816745,77.8219757 C88.325079,77.6520851 88.211888,77.4821945 88.0986969,77.4255643 C87.3063595,77.1424132 86.8535953,77.5388247 86.8535953,78.3316477 C86.8535953,83.5416272 86.8535953,88.7516068 86.8535953,93.9615864 C86.7969997,95.0941906 87.1365729,95.4906021 88.325079,95.717123 Z M94.4939916,95.6604928 C95.6824977,95.3207115 96.0220709,95.0375604 96.0220709,94.1881072 C96.0220709,90.2806226 96.0220709,86.3731379 96.0220709,82.4656532 C96.0220709,82.1825021 95.9654753,81.8993511 95.8522843,81.7294604 C95.4561156,80.9932677 94.9467558,80.3137051 94.4939916,79.5775123 C94.4939916,84.9007523 94.4939916,90.2806226 94.4939916,95.6604928 Z M84.250201,92.1494196 C84.3067965,92.1494196 84.4199876,92.1494196 84.4765831,92.0927894 C84.4765831,92.0361591 84.5331786,91.9228987 84.5331786,91.8662685 C84.5331786,87.2792213 84.5331786,82.692174 84.5331786,78.1051268 C84.5331786,77.7653455 84.5331786,77.4821945 84.0804144,77.4821945 C83.6276502,77.4821945 83.6276502,77.8219757 83.6276502,78.161757 C83.6276502,81.8427208 83.5710546,85.5236847 83.6842457,89.1480183 C83.6842457,90.1673621 84.0238189,91.186706 84.250201,92.1494196 Z M107.963727,87.3924817 C107.850536,87.3358515 107.737345,87.3358515 107.68075,87.2792213 C107.454368,87.6756328 107.17139,88.1286745 107.114794,88.525086 C107.058199,88.9781277 106.435648,90.0541017 105.982884,90.1107319 C104.964164,90.2806226 104.5114,90.8469247 104.567996,91.8096383 C104.567996,92.2060498 104.624591,92.4892008 105.190546,92.3759404 C105.813097,92.26268 106.66203,92.8289821 106.888412,93.4519145 C107.001603,93.7916957 107.454368,93.848326 107.737345,93.5085447 C108.076918,93.1687634 108.076918,91.8662685 107.793941,91.5264872 C107.454368,91.1300757 107.227985,89.9408413 107.567559,89.60106 C108.3033,88.9781277 107.907132,88.1853047 107.963727,87.3924817 Z M109.039042,87.4491119 C109.095638,88.1853047 108.642874,88.9781277 109.378616,89.6576902 C109.718189,89.9408413 109.548402,91.186706 109.265424,91.469857 C108.925851,91.8662685 108.869256,93.1687634 109.208829,93.5651749 C109.435211,93.7916957 109.718189,93.9615864 109.887975,93.5085447 C110.170953,92.8289821 111.076481,92.3193102 111.812223,92.4892008 C111.925414,92.4892008 112.151796,92.4325706 112.151796,92.3193102 C112.547965,91.469857 111.812223,90.1107319 111.019886,90.1673621 C110.567122,90.1673621 109.604998,89.2046485 109.718189,88.8648672 C110.001166,88.0720443 109.435211,87.8455234 109.039042,87.4491119 Z M96.4748351,97.1328783 C96.4748351,97.0762481 96.5314306,96.9629877 96.5314306,96.9063574 C97.1539814,96.8497272 97.7199367,96.793097 98.3424875,96.7364668 C98.0595099,96.000274 98.1727009,95.2640813 98.6820607,94.5845187 C97.0973859,96.2834251 95.286329,97.5292898 92.9093168,97.8690711 C93.0225079,97.9823315 93.0225079,98.0389617 93.0791034,98.0389617 C95.0599469,98.3221128 97.0407904,98.661894 99.0782294,98.9450451 C99.248016,98.9450451 99.4178025,98.7185243 99.5875891,98.5486336 C99.5309936,98.4920034 99.5309936,98.4353732 99.4743981,98.3221128 C98.285892,98.4353732 97.2671725,98.0955919 96.4748351,97.1328783 Z M98.2292965,92.1494196 C98.285892,92.1494196 98.3424875,92.2060498 98.399083,92.2060498 C98.6254652,91.3565966 98.9650383,90.5637736 99.0216338,89.7143204 C99.1348249,87.8455234 99.0782294,85.9767264 99.0782294,84.1079294 C99.0782294,83.5982574 98.7952517,83.3717366 98.2292965,83.4283668 C98.2292965,86.3165077 98.2292965,89.2046485 98.2292965,92.1494196 Z M109.83138,85.4104243 C110.057762,85.2405336 110.114357,85.1839034 110.227548,85.070643 C110.623717,84.7308617 111.868819,84.6742315 112.208392,85.070643 C112.661156,85.5803149 113.057325,85.4670545 113.453494,85.070643 C113.793067,84.7308617 113.849662,83.9380387 113.510089,83.6548877 C113.057325,83.201846 113.057325,82.0126115 113.396898,81.5595698 C113.566685,81.2764187 113.679876,80.9366374 113.793067,80.6534864 C113.736471,80.5968562 113.62328,80.5968562 113.566685,80.540226 C113.170516,81.0498979 112.717752,81.5029396 112.321583,82.0126115 C112.264987,82.0692417 112.264987,82.2391323 112.264987,82.3523928 C112.378179,82.9753251 111.642437,83.9380387 111.076481,83.9946689 C110.453931,84.1079294 110.001166,84.5609711 109.83138,85.4104243 Z M108.982447,84.3344502 C109.378616,83.9380387 109.887975,83.7115179 109.887975,82.9186949 C109.887975,82.4656532 110.510526,81.6162 110.96329,81.5595698 C112.151796,81.4463094 112.208392,80.3703353 112.830943,79.8040332 C112.661156,79.747403 112.49137,79.747403 112.434774,79.8040332 C111.642437,80.3703353 111.019886,80.3703353 110.170953,79.8040332 C109.774784,79.5208821 109.435211,79.6907728 109.152233,80.030554 C108.869256,80.3703353 108.982447,80.540226 109.32202,80.7667468 C109.661593,80.9932677 109.718189,82.409023 109.378616,82.6355438 C108.642874,83.1452157 108.925851,83.7681481 108.982447,84.3344502 Z M107.001603,86.3731379 C106.209266,87.0527004 105.360333,87.0527004 104.567996,86.4863983 C104.171827,86.2032472 103.719063,86.2598774 103.492681,86.7129191 C103.322894,86.93944 103.266298,87.3924817 103.37949,87.5623723 C103.945445,88.2985651 104.058636,89.0347579 103.492681,89.8275808 C103.37949,89.9408413 103.492681,90.2806226 103.549276,90.4505132 C103.549276,90.5071434 103.945445,90.5637736 103.945445,90.5071434 C104.228422,90.1107319 104.850973,89.8275808 104.624591,89.1480183 C104.5114,88.7516068 105.473524,87.6756328 105.926288,87.732263 C106.492244,87.6190026 107.001603,87.0527004 107.001603,86.3731379 Z M109.887975,86.4297681 C109.83138,87.0527004 110.397335,87.6756328 110.906695,87.6190026 C111.359459,87.6190026 112.321583,88.6383464 112.208392,89.0347579 C112.038605,89.60106 112.378179,89.8842111 112.661156,90.1673621 C112.830943,90.3372528 113.170516,90.4505132 113.283707,90.393883 C113.510089,90.2239923 113.566685,89.9408413 113.283707,89.60106 C112.887538,89.2046485 112.944134,87.9587838 113.396898,87.6756328 C113.793067,87.3924817 113.793067,87.1093306 113.566685,86.7695494 C113.283707,86.3731379 112.830943,86.0899868 112.434774,86.4297681 C111.529246,87.1659608 110.793504,86.93944 109.887975,86.4297681 Z M107.737345,84.3344502 C107.850536,83.7681481 108.076918,83.2584762 107.567559,82.7488043 C107.17139,82.3523928 107.227985,81.1631583 107.624154,80.823377 C107.907132,80.540226 107.963727,80.2570749 107.68075,80.030554 C107.454368,79.8606634 106.945008,79.747403 106.831817,79.8606634 C106.435648,80.3137051 105.982884,80.2570749 105.53012,80.2570749 C105.133951,80.2570749 104.794378,80.4269655 104.850973,80.823377 C104.907569,81.1631583 105.077355,81.5595698 105.643311,81.5029396 C106.096075,81.4463094 107.17139,82.4656532 107.058199,82.8620647 C106.775221,83.7115179 107.341176,83.9380387 107.737345,84.3344502 Z M106.945008,85.2971638 C106.831817,84.5043408 106.379053,84.1079294 105.699906,84.1079294 C105.303737,84.1079294 104.398209,83.0319553 104.5114,82.6355438 C104.681187,82.1258719 104.454805,81.8993511 104.00204,81.6162 C103.945445,81.8993511 103.832254,82.1258719 103.775658,82.3523928 C103.775658,82.8620647 103.832254,83.3717366 103.266298,83.7115179 C102.926725,83.9380387 103.096512,84.7874919 103.436085,85.070643 C103.832254,85.4104243 104.228422,85.5236847 104.624591,85.070643 C104.737782,84.9573826 104.964164,84.8441221 105.133951,84.8441221 C105.813097,84.8441221 106.492244,84.6742315 106.945008,85.2971638 Z M106.888412,98.2088523 C106.888412,98.1522221 106.888412,98.0955919 106.888412,97.9823315 C106.322457,97.8124408 105.699906,97.6425502 105.133951,97.4160294 C104.681187,97.2461387 104.341614,97.3027689 103.888849,97.5292898 C103.266298,97.8690711 102.587152,98.1522221 101.908006,98.2088523 C101.228859,98.3221128 100.493118,98.1522221 100.153544,99.1149357 C102.417366,98.7751545 104.624591,98.4920034 106.888412,98.2088523 Z M92.0037883,72.8951472 C92.0037883,72.7252566 92.0037883,72.6119962 92.0037883,72.4987357 C91.9471928,72.1023243 91.8905973,71.6492826 91.324642,71.7059128 C90.7586867,71.7059128 90.7586867,72.1589545 90.7586867,72.555366 C90.7586867,72.6686264 90.7586867,72.7252566 90.7586867,72.838517 C90.7586867,73.2915587 90.7586867,73.6879702 91.3812375,73.6879702 C92.0037883,73.63134 92.0603839,73.2915587 92.0037883,72.8951472 Z M127.885353,69.1575532 C127.828758,69.1575532 127.772162,69.1575532 127.715567,69.1575532 C127.658971,69.2141834 127.658971,69.2708136 127.602376,69.3274438 C127.432589,69.4973345 127.206207,69.6672251 127.03642,69.8371157 C126.979825,69.6105949 126.923229,69.4407043 126.866634,69.2141834 C126.810038,69.100923 126.810038,68.9310323 126.753443,68.7611417 C126.696847,68.7611417 126.640252,68.7611417 126.527061,68.7611417 C126.300678,69.384074 126.074296,70.0636366 126.130892,70.7431991 C126.187487,70.7431991 126.244083,70.7998294 126.300678,70.7998294 C126.470465,70.5733085 126.640252,70.2901574 126.810038,70.0636366 C127.03642,70.4600481 127.262802,70.7998294 127.489185,71.1396106 C127.602376,71.0263502 127.658971,70.96972 127.658971,70.9130898 C127.54578,70.4034179 127.262802,69.9503762 127.885353,69.5539647 C127.941949,69.5539647 127.885353,69.3274438 127.885353,69.1575532 Z M101.681624,96.8497272 C102.304174,96.8497272 102.983321,96.8497272 103.719063,96.8497272 C103.039916,96.3400553 102.473961,95.8870136 101.908006,95.4906021 C101.85141,95.9436438 101.738219,96.3966855 101.681624,96.8497272 Z M99.0782294,93.9615864 C99.6441847,93.9615864 100.153544,93.9615864 100.7195,93.9615864 C100.436522,93.5085447 100.21014,93.055503 99.9271623,92.4892008 C99.6441847,93.055503 99.4178025,93.4519145 99.0782294,93.9615864 Z M123.357711,70.2901574 C122.565374,70.3467877 122.452183,69.893746 122.508778,69.3274438 C122.508778,69.100923 122.508778,68.8177719 122.508778,68.5912511 C122.508778,68.4779906 122.395587,68.3647302 122.282396,68.2514698 C122.2258,68.2514698 122.169205,68.2514698 122.112609,68.3081 C122.112609,68.6478813 122.056014,68.9876626 122.056014,69.384074 C122.056014,70.4034179 122.282396,70.5733085 123.357711,70.2901574 Z M76.213636,70.4600481 C76.2702315,70.4034179 76.3834226,70.4034179 76.4400181,70.3467877 C76.4400181,69.7238553 75.9872539,69.2708136 75.7042762,68.7045115 C75.6476807,68.5346209 75.364703,68.5346209 75.1949165,68.4213604 C75.1383209,68.4779906 75.0817254,68.5346209 75.0817254,68.5912511 C75.4778941,69.1575532 75.8740628,69.7804855 76.213636,70.4600481 Z M130.432152,70.1202668 C130.375556,70.1202668 130.262365,70.0636366 130.20577,70.0636366 C129.526624,70.4600481 130.262365,71.2528711 129.866197,71.762543 C129.809601,71.8758034 129.979388,72.1589545 130.035983,72.3854753 C130.092579,72.3854753 130.20577,72.3288451 130.262365,72.3288451 C130.318961,71.5926523 130.375556,70.8564596 130.432152,70.1202668 Z M71.3464205,71.5360221 C71.5162071,70.7431991 70.9502518,70.176897 70.8370608,69.4407043 C70.4408921,69.8371157 70.6672742,70.7998294 71.3464205,71.5360221 Z M124.376431,70.4600481 C125.281959,69.893746 124.376431,68.6478813 125.508341,68.3647302 C125.225363,68.3647302 124.659408,68.4213604 124.659408,68.5912511 C124.433026,69.1575532 124.433026,69.7238553 124.376431,70.4600481 Z M73.4404551,68.8177719 C73.3838596,68.8177719 73.2706685,68.8744021 73.214073,68.8744021 C73.0442864,69.6105949 73.327264,70.6299387 73.9498148,70.7998294 C73.7234327,70.0636366 73.5536461,69.4407043 73.4404551,68.8177719 Z M120.244957,70.5733085 C120.527935,70.0636366 119.622406,68.7611417 118.94326,68.6478813 C119.396024,69.3274438 119.848788,69.9503762 120.244957,70.5733085 Z M100.7195,96.7364668 C100.776095,96.793097 100.832691,96.793097 100.889286,96.8497272 C101.002477,96.509946 101.228859,96.1135345 101.228859,95.7737532 C101.228859,95.5472323 100.889286,95.2640813 100.7195,95.0375604 C100.662904,95.0941906 100.662904,95.0941906 100.606309,95.1508208 C100.662904,95.6604928 100.662904,96.1701647 100.7195,96.7364668 Z M79.4395811,70.2335272 C79.8923453,69.2708136 78.5906482,69.3274438 78.5340526,68.5912511 C78.0812884,69.5539647 79.3829855,69.5539647 79.4395811,70.2335272 Z M99.4178025,96.7364668 C99.4178025,96.1701647 99.4178025,95.6604928 99.4178025,95.0941906 C98.6820607,95.4906021 98.6820607,96.2267949 99.4178025,96.7364668 Z M93.8714408,68.0815791 C93.7016542,67.8550583 93.5884631,67.6851677 93.4752721,67.515277 C93.362081,67.7417979 93.1922944,67.9683187 93.1356989,68.1948396 C93.1356989,68.3647302 93.362081,68.5346209 93.4186766,68.7045115 C93.5884631,68.4779906 93.7016542,68.3081 93.8714408,68.0815791 Z M88.7778432,68.0815791 C88.9476298,68.3081 89.1174164,68.4213604 89.2306075,68.5912511 C89.3437985,68.4213604 89.5135851,68.2514698 89.5135851,68.0249489 C89.5135851,67.8550583 89.287203,67.6851677 89.1740119,67.515277 C89.0608209,67.6851677 88.9476298,67.8550583 88.7778432,68.0815791 Z M71.9689713,70.3467877 C72.0255669,69.9503762 72.1387579,69.6105949 72.0821624,69.4407043 C72.0255669,69.2708136 71.6293982,69.2708136 71.4030161,69.2141834 C71.5728026,69.6105949 71.7425892,69.893746 71.9689713,70.3467877 Z M108.416492,85.4104243 C108.3033,85.6369451 108.133514,85.7502055 108.133514,85.8068357 C108.190109,85.9200962 108.359896,86.0333566 108.473087,86.146617 C108.586278,86.0333566 108.756065,85.9200962 108.699469,85.863466 C108.756065,85.7502055 108.586278,85.6369451 108.416492,85.4104243 Z" id="Shape" fill="#B4B6B8" fill-rule="nonzero"></path>
                <path d="M109.125768,36.1855046 C109.695709,37.4189258 110.26565,38.5936127 110.835592,39.7095652 C111.063568,40.2381743 111.063568,40.6493147 110.778597,41.1779238 C109.923686,42.7637511 109.125768,44.4083127 108.32785,46.0528744 C108.042879,46.6402178 107.64392,46.9338895 106.959991,46.8751552 C106.162073,46.8164208 105.307161,46.8751552 104.509244,46.8751552 C104.281267,46.8751552 104.110285,46.8164208 103.76832,46.8164208 C104.281267,45.7592026 104.794214,44.8194531 105.250167,43.8797036 C105.763114,42.8812198 106.276061,41.8827359 106.789009,40.8842521 C107.016985,40.4731117 106.959991,40.1794399 106.732014,39.8270339 C105.934097,38.2999409 104.851208,37.0665197 103.312367,36.3029732 C103.141385,36.1855046 102.913408,36.1267702 102.628437,36.0093015 C102.571443,36.3617076 102.514449,36.6553793 102.514449,36.949051 C102.514449,39.9445026 102.514449,42.9986885 102.514449,45.99414 C102.514449,46.9338895 102.514449,46.9926239 101.545549,46.9926239 C100.86162,46.9926239 100.234684,46.9926239 99.5507547,46.9926239 C98.9808134,47.0513582 98.7528369,46.7576865 98.809831,46.170343 C98.809831,43.1161572 98.809831,40.0619713 98.809831,37.0077854 C98.809831,36.7141137 98.809831,36.4791763 98.809831,36.0680359 C98.4678663,36.1267702 98.2398898,36.1855046 98.0119133,36.2442389 C96.3020895,37.0077854 95.162207,38.4174096 94.3642892,40.0619713 C94.250301,40.2381743 94.3642892,40.6493147 94.4782775,40.8842521 C95.3331894,42.5288137 96.1881013,44.114641 97.0430131,45.7592026 C97.2139955,46.0528744 97.3279838,46.4052804 97.4989661,46.8164208 C97.2139955,46.8751552 97.0430131,46.9338895 96.8150366,46.9338895 C95.9031306,46.9338895 94.9342305,46.9926239 94.0223245,46.9338895 C93.6803597,46.9338895 93.2814009,46.6989521 93.1104185,46.4052804 C92.1415183,44.5845158 91.2296123,42.7637511 90.3177063,40.9429864 C90.2037181,40.708049 90.2037181,40.2969086 90.3177063,40.0619713 C90.7736593,39.0047531 91.2866065,38.0062692 91.7995536,37.0077854 C91.9135418,36.772848 92.0275301,36.596645 92.1985125,36.3029732 C91.3436006,35.7743641 90.4316946,35.8918328 89.6337768,36.0093015 C88.4369002,36.1855046 87.4110059,36.8315823 86.4990999,37.6538632 C86.100141,38.0062692 86.2141293,38.3586753 86.4421058,38.7698157 C87.6389824,41.1779238 88.8358591,43.6447662 90.0327357,46.1116087 C90.146724,46.3465461 90.2037181,46.5814834 90.3747005,46.9338895 C89.5767827,46.9338895 88.8928532,46.9338895 88.2089237,46.9338895 C85.7581763,46.8751552 86.4421058,47.3450299 85.3022233,45.1131248 C84.276329,42.9986885 83.3074289,40.8842521 82.2245405,38.82855 C81.8825757,38.1824723 81.9395699,37.5951288 82.3385288,36.949051 C84.276329,34.0123338 86.8410647,32.2503035 90.3747005,32.2503035 C91.8565477,32.2503035 93.2814009,32.5439752 94.6492599,33.1313187 C94.9912246,33.2487874 95.5041718,33.2487874 95.8461365,33.1313187 C98.1828957,32.0741005 100.576649,31.6629601 103.08439,32.3090378 C103.76832,32.4852409 104.452249,32.7789126 105.079185,33.0725843 C105.592132,33.3075217 105.991091,33.3075217 106.504038,33.0725843 C109.068774,31.9566318 111.690503,31.9566318 114.255239,32.9551156 C116.307028,33.7773964 117.845869,35.3044894 118.871763,37.3014571 C119.042746,37.6538632 119.042746,38.2999409 118.871763,38.652347 C118.016851,40.531846 117.104945,42.3526107 116.193039,44.2321097 C115.851075,44.9369218 115.452116,45.7004683 115.110151,46.4052804 C114.939169,46.8164208 114.654198,46.9926239 114.255239,46.9926239 C113.343333,46.9926239 112.488421,46.9926239 111.576515,46.9926239 C110.835592,46.9926239 110.778597,46.8751552 111.063568,46.170343 C111.91848,44.4083127 112.773392,42.7050167 113.628304,41.0017208 C114.027263,40.1794399 114.426221,39.3571591 114.768186,38.5348783 C114.882174,38.2999409 114.82518,37.8300662 114.654198,37.7125975 C113.172351,36.5379106 111.576515,35.7743641 109.638715,36.0680359 C109.524727,36.0680359 109.353744,36.1267702 109.239756,36.1855046 C109.29675,36.0680359 109.182762,36.1267702 109.125768,36.1855046 Z" id="Shape" fill="#B4B6B8" fill-rule="nonzero"></path>
                <path d="M100.881929,49 C105.575461,49 110.268993,49 114.962524,49 C115.992812,49 115.992812,49 115.992812,50.0588235 C115.992812,50.7647059 115.992812,51.4705882 115.992812,52.1764706 C116.05005,52.8235294 115.763859,53 115.191477,53 C112.615759,53 109.982802,53 107.407083,53 C100.595739,53 93.7843939,53 87.0302874,53 C86,53 86,53 86,51.9411765 C86,51.1764706 86,50.4117647 86,49.7058824 C86,49.1764706 86.1717146,49 86.6868583,49 C91.3803899,49 96.1311597,49 100.881929,49 C100.881929,49 100.881929,49 100.881929,49 Z" id="Shape" fill="#B4B6B8" fill-rule="nonzero"></path>
                <path d="M77.9391304,79 C78,79.4049587 78,79.6942149 78,79.9256198 C78,83.9752066 78,88.0826446 78,92.1322314 C78,93 78,93 77.0869565,93 C75.2608696,93 73.4956522,93 71.6695652,93 C71.1826087,93 71,92.9421488 71,92.4214876 C71,89.1818182 71,86 71,82.7603306 C71,82.1239669 71.1826087,81.892562 71.7913043,81.6033058 C73.6173913,80.9090909 75.3826087,80.0413223 77.1478261,79.2892562 C77.3913043,79.2892562 77.573913,79.1735537 77.9391304,79 Z" id="Shape" fill="#B4B6B8" fill-rule="nonzero"></path>
                <path d="M71,68 C71,67.5357143 71,67.2455357 71,66.9553571 C71,63.2991071 71,59.5848214 71,55.9285714 C71,55 71,55 71.9130435,55 C73.7391304,55 75.5043478,55 77.3304348,55 C77.8782609,55 78,55.1741071 78,55.6383929 C78,59.2366071 78,62.8348214 78,66.375 C78,66.7232143 77.9391304,67.0714286 77.4521739,67.0714286 C75.3217391,67.0714286 73.1913043,67.3616071 71,68 Z" id="Shape" fill="#B4B6B8" fill-rule="nonzero"></path>
                <path d="M123.03956,79 C123.356044,79.1742739 123.61978,79.2904564 123.830769,79.406639 C125.36044,80.1618257 126.89011,80.9751037 128.472527,81.7302905 C128.789011,81.9045643 129,82.0788382 129,82.4854772 C129,85.9128631 129,89.340249 129,92.7676349 C129,92.8257261 128.947253,92.8838174 128.947253,93 C128.208791,93 127.47033,93 126.784615,93 C125.782418,93 124.832967,92.9419087 123.830769,93 C123.250549,93 123.03956,92.7676349 123.03956,92.1286307 C123.092308,90.4439834 123.03956,88.7012448 123.03956,87.0165975 C123.03956,84.6929461 123.03956,82.3112033 123.03956,79.9875519 C122.986813,79.6970954 122.986813,79.4647303 123.03956,79 Z" id="Shape" fill="#B4B6B8" fill-rule="nonzero"></path>
                <path d="M123.053097,55 C125.070796,55 127.035398,55 129,55 C129,59.3333333 129,63.6081081 129,68 C128.734513,67.9414414 128.415929,67.9414414 128.150442,67.8828829 C126.663717,67.4144144 125.176991,67.0630631 123.637168,67.1801802 C123.212389,67.1801802 123,67.0045045 123,66.4774775 C123.053097,62.6711712 123.053097,58.8648649 123.053097,55 Z" id="Shape" fill="#B4B6B8" fill-rule="nonzero"></path>
                <path d="M79,73.7816601 C78.4389527,74.2610826 77.9901149,74.7937743 77.4290676,75.1133893 C75.5776116,76.0722343 73.7261555,76.924541 71.8185948,77.8301168 C71.145338,78.1497318 71.0331286,78.0431935 71.0331286,77.2974251 C71.0331286,76.7114643 71.0331286,76.0722343 71.0331286,75.4862734 C71.0331286,75.0068509 70.8087096,74.7937743 70.3598718,74.7405051 C69.7988245,74.6339668 69.1255678,74.5806976 69.0133583,73.9414676 C68.9011489,73.3022376 69.5183009,72.9826226 70.0232434,72.7162767 C72.0430137,71.6508934 74.1749933,71.1182017 76.4752872,71.0116634 C77.2607534,70.9583942 77.3729629,71.0649325 77.4290676,71.8107009 C77.4290676,71.9172392 77.4290676,72.0237775 77.4290676,72.1303159 C77.4290676,73.2489684 77.3168581,73.2489684 78.4950574,73.5685834 C78.6633716,73.5685834 78.7755811,73.6218526 79,73.7816601 Z" id="Shape" fill="#B4B6B8" fill-rule="nonzero"></path>
                <path d="M121,74.1708825 C121.398624,73.9920263 121.569463,73.8727888 121.797248,73.81317 C122.423656,73.6939326 122.651441,73.2766014 122.594495,72.6207953 C122.537549,70.6533771 122.594495,70.9514708 124.075098,71.130327 C125.270969,71.3091832 126.523787,71.4284206 127.719658,71.8457518 C128.687744,72.1438455 129.655831,72.7400328 130.453078,73.3958389 C131.307272,74.1112637 131.136433,74.7670698 130.111401,75.184401 C128.972476,75.6613508 128.972476,75.6613508 128.972476,76.9133443 C128.972476,77.5095316 128.972476,78.1653377 128.972476,78.7615251 C128.972476,78.8211438 128.91553,78.8211438 128.91553,79 C126.239055,77.6287691 123.220904,76.7941068 121,74.1708825 Z" id="Shape" fill="#B4B6B8" fill-rule="nonzero"></path>
                <path d="M100.947788,29.9781909 C99.562978,29.9781909 98.4792138,29.1993997 98.1179591,28.0868407 C97.7567043,26.8630259 98.2383773,25.639211 99.3823507,24.9160477 C99.6833963,24.7491639 99.9844419,24.3597682 100.044651,24.0816285 C100.225278,23.580977 99.9844419,23.1915813 99.3221415,23.2472093 C98.7802594,23.3028372 98.5394229,23.0246975 98.5996321,22.5240459 C98.5996321,22.3015342 98.5996321,22.0790224 98.5996321,21.8565106 C98.5996321,21.411487 98.7802594,21.1889752 99.2619324,21.2446031 C99.8038145,21.3002311 100.165069,21.1333473 100.10486,20.5214398 C100.10486,19.9651604 100.586533,20.0207883 100.947788,20.0207883 C101.309043,20.0207883 101.911134,19.8539045 101.911134,20.4658119 C101.911134,21.1333473 102.272389,21.2446031 102.814271,21.1889752 C103.295944,21.1333473 103.476571,21.3002311 103.476571,21.7452547 C103.476571,22.0233944 103.476571,22.3015342 103.476571,22.5796739 C103.476571,22.9690695 103.235735,23.1359534 102.814271,23.1915813 C102.513225,23.2472093 102.031552,23.3584652 101.971343,23.525349 C101.790716,23.9703726 101.911134,24.4153962 102.392807,24.8047918 C102.934689,25.2498154 103.476571,25.7504669 103.777617,26.3623743 C104.620544,27.808701 102.934689,30.2563307 100.947788,29.9781909 Z" id="Shape" fill="#B4B6B8" fill-rule="nonzero"></path>
                <path d="M77.8689515,51.805989 C78.1450078,51.3201181 78.3658529,50.8342472 78.6419092,50.3483762 C79.1388105,49.43062 78.9731768,49.2146774 77.9793741,49.106706 C77.8689515,49.106706 77.758529,49.106706 77.4272614,49.106706 C78.3658529,50.1864192 77.7033177,50.9962041 77.0959939,51.7520034 C76.9303601,51.967946 76.4334587,51.9139604 76.0469799,51.967946 C75.9917687,51.9139604 75.9365574,51.8599747 75.8813461,51.7520034 C76.0469799,51.4280894 76.2126137,51.1041755 76.3782475,50.7802615 C76.8199376,50.0244623 76.5438813,49.4846057 75.5500786,49.1606917 C75.5500786,49.8625053 75.6052898,50.5643189 75.5500786,51.2121468 C75.5500786,51.4280894 75.3844448,51.7520034 75.218811,51.8599747 C74.7771209,52.0219317 74.5562759,51.805989 74.5562759,51.3201181 C74.5562759,50.6183045 74.5010646,49.9704766 74.4458533,49.268663 C73.5072619,49.43062 73.2312056,49.9704766 73.5624732,50.6183045 C73.7281069,50.9422185 73.948952,51.3201181 74.1145858,51.6440321 C74.0593745,51.6980177 74.0593745,51.805989 74.0041632,51.8599747 C73.6728957,51.805989 73.1759943,51.8599747 73.0103605,51.6980177 C72.4030367,51.0501898 71.7957128,50.1864192 72.679093,49.1606917 C72.6238817,49.106706 72.5686705,49.0527204 72.5134592,49.0527204 C72.1269804,49.1606917 71.7405015,49.2146774 71.409234,49.3766343 C71.2988114,49.43062 71.2436002,49.8085196 71.3540227,49.9704766 C71.630079,50.5643189 71.9613466,51.1581611 72.2374029,51.7520034 C71.630079,52.129903 71.2436002,52.0759173 70.9675439,51.5900464 C70.6914876,51.1041755 70.4706425,50.5643189 70.139375,50.0784479 C69.8633187,49.592577 70.0289524,49.2146774 70.36022,48.8367777 C71.1331777,48.1349642 72.0165578,47.9190215 73.0103605,48.1349642 C73.3416281,48.1889498 73.7833182,48.1889498 74.1145858,48.1349642 C74.7771209,47.9730072 75.3844448,47.9190215 76.0469799,48.1889498 C76.3230362,48.2969211 76.6543038,48.2429355 76.9303601,48.1889498 C78.2002191,47.8650358 79.2492331,48.1889498 79.8565569,49.1606917 C80.0221907,49.43062 80.0221907,49.8085196 79.9669795,50.1324336 C79.8013457,50.5643189 79.5252894,50.9962041 79.3044443,51.4280894 C78.9731768,51.967946 78.7523317,52.0759173 77.8689515,51.805989 Z" id="Shape" fill="#B4B6B8" fill-rule="nonzero"></path>
                <path d="M125.006764,52.9466968 C124.625875,52.8400903 124.136161,52.8400903 123.91851,52.573574 C123.319971,51.8806319 122.721432,51.0810832 123.646447,50.1216248 C123.10232,49.9084118 122.667019,50.0683216 122.340543,50.3348378 C122.231718,50.4414443 122.231718,50.7612637 122.28613,50.9211735 C122.558194,51.5075092 122.830257,52.0405416 123.156733,52.6801805 C122.612606,52.9466968 122.177305,52.9466968 121.905242,52.4669676 C121.578766,51.9339351 121.25229,51.4009027 121.034639,50.814567 C120.925814,50.5480508 121.089052,50.0683216 121.306702,49.8551086 C122.06848,49.0555599 122.993495,48.8423469 124.081748,49.1088632 C124.408224,49.1621664 124.7347,49.1088632 125.061176,49.1088632 C125.714128,49.1088632 126.312668,49.1088632 126.96562,49.1088632 C127.237683,49.1088632 127.564159,49.1621664 127.836222,49.1088632 C128.81565,48.8956502 129.740666,49.0022567 130.502443,49.6951989 C131.04657,50.1749281 131.155395,50.601354 130.774506,51.2409929 C130.556856,51.6674189 130.339205,52.0938448 130.067142,52.4669676 C129.903904,52.6801805 129.686253,52.8400903 129.41419,52.8933935 C128.924476,53 128.761238,52.786787 128.978888,52.3070578 C129.142126,51.9339351 129.359777,51.6141156 129.523015,51.2942962 C129.903904,50.5480508 129.795078,50.3348378 128.978888,50.1749281 C128.81565,50.1216248 128.598,50.1216248 128.271524,50.1216248 C129.142126,51.1876897 128.652412,51.9872384 127.99946,52.7334838 C127.836222,52.9466968 127.400921,52.9466968 127.074445,53 C127.020032,52.9466968 126.96562,52.8933935 126.96562,52.8400903 C127.128858,52.4669676 127.237683,52.1471481 127.400921,51.7740254 C127.727397,51.02778 127.509746,50.4947475 126.530318,50.2282313 C126.530318,50.814567 126.530318,51.3475994 126.530318,51.8806319 C126.530318,52.0938448 126.584731,52.3603611 126.475906,52.573574 C126.36708,52.7334838 126.14943,52.9466968 125.931779,52.9466968 C125.768541,52.9466968 125.496478,52.7334838 125.496478,52.573574 C125.442065,51.9872384 125.496478,51.4009027 125.442065,50.7612637 C125.442065,50.601354 125.33324,50.4947475 125.278827,50.3348378 C125.115589,50.388141 124.897938,50.4414443 124.789113,50.5480508 C124.408224,50.8678702 124.299399,51.2942962 124.571462,51.7740254 C124.789113,52.0938448 124.897938,52.4669676 125.115589,52.8400903 C125.115589,52.786787 125.061176,52.8400903 125.006764,52.9466968 Z" id="Shape" fill="#B4B6B8" fill-rule="nonzero"></path>
                <path d="M121.253119,75 C121.541108,75.1744645 121.713901,75.2907741 121.886695,75.4070837 C123.787422,76.919109 126.033737,77.9077409 128.222454,78.838218 C129.259214,79.3034565 130.295975,79.8268499 131.332736,80.2920884 C131.908714,80.5828625 132.081507,81.048101 131.966312,81.7459589 C131.620725,83.3742938 131.793518,83.1998293 130.353573,82.4438167 C129.316812,81.9204233 128.222454,81.5714944 127.243291,81.048101 C125.515357,80.1757788 123.84502,79.1871469 122.117086,78.2566698 C120.792336,77.558812 120.849934,76.3957156 121.253119,75 Z" id="Shape" fill="#B4B6B8" fill-rule="nonzero"></path>
                <path d="M79.828125,75 C79.8854167,75.645264 80,76.2318676 80,76.8771316 C80,77.1704334 79.7708333,77.4637352 79.5416667,77.6397163 C78.109375,78.9889046 76.390625,79.86881 74.671875,80.6900551 C73.0677083,81.4526398 71.4635417,82.1565641 69.859375,82.9191488 C69.4583333,83.0951299 69.34375,82.9778092 69.2291667,82.625847 C69.171875,82.1565641 69,81.6872812 69,81.2766587 C69.0572917,80.9246965 69.2864583,80.514074 69.5729167,80.3380929 C70.71875,79.6928289 71.8645833,79.1648857 73.0677083,78.6369424 C75.1875,77.6397163 77.3645833,76.7598108 79.1979167,75.1759811 C79.2552083,75.1173207 79.3697917,75.0586604 79.484375,75 C79.5989583,75 79.65625,75 79.828125,75 Z" id="Shape" fill="#B4B6B8" fill-rule="nonzero"></path>
                <path d="M122.767059,97 C123.281618,97.1154943 123.739004,97.2309887 124.196389,97.4042302 C125.053987,97.7507132 125.911585,97.8084603 126.71201,97.4042302 C128.14134,96.7112642 129.456324,97.2887358 130.771307,97.8084603 C130.942827,97.8662075 131,98.385932 131,98.6746678 C131,98.7901622 130.599788,98.9634037 130.428268,98.9634037 C130.085229,98.9634037 129.799363,98.7901622 129.456324,98.6746678 C128.598726,98.385932 127.741128,98.3281848 126.88353,98.6746678 C125.968758,99.078898 125.11116,99.1366452 124.196389,98.6746678 C123.338791,98.2704377 122.481193,98.2704377 121.623595,98.6746678 C121.394902,98.7901622 121.109036,98.9056565 120.880344,98.9056565 C120.537304,98.9634037 120.079919,99.1943923 120.022746,98.6169207 C119.965572,98.1549433 119.965572,97.692966 120.651651,97.6352188 C121.337729,97.4619773 122.023808,97.1732415 122.767059,97 Z" id="Shape" fill="#B4B6B8" fill-rule="nonzero"></path>
                <path d="M120.028848,94.2528375 C119.915644,93.7850092 120.142053,93.6095736 120.594871,93.5510951 C120.821281,93.5510951 121.04769,93.4926165 121.217497,93.3756594 C122.349542,92.790874 123.368384,92.9663097 124.557032,93.3756594 C125.179657,93.6095736 126.028692,93.4926165 126.651317,93.3171809 C127.726761,93.0247882 128.689,92.790874 129.707841,93.3756594 C129.93425,93.4926165 130.160659,93.5510951 130.387068,93.5510951 C131.009694,93.6095736 131.066296,94.0774019 130.953091,94.5452302 C130.896489,95.1300156 130.443671,94.95458 130.104057,94.8961015 C129.877648,94.8376229 129.651239,94.7791444 129.424829,94.6621873 C128.519193,94.194359 127.670158,94.194359 126.764522,94.6621873 C125.915487,95.0715371 125.066453,95.1300156 124.217418,94.7206658 C123.255179,94.2528375 122.349542,94.2528375 121.387303,94.7206658 C121.160894,94.8376229 120.934485,94.8961015 120.708076,94.95458 C120.198655,95.0715371 119.915644,94.8961015 120.028848,94.2528375 Z" id="Shape" fill="#B4B6B8" fill-rule="nonzero"></path>
                <path d="M80,98.061499 C80,98.9091773 79.773765,99.0908227 79.0950601,98.9091773 C78.4163552,98.727532 77.7376503,98.4853381 77.0589454,98.4247897 C76.6064754,98.3642412 76.1540055,98.5458866 75.7015355,98.727532 C74.8531544,99.0908227 74.061332,99.0908227 73.2129508,98.727532 C72.3080109,98.3036928 71.403071,98.3642412 70.5546899,98.6669835 C70.2718962,98.7880804 70.0456612,98.9697258 69.7628675,98.9697258 C69.5366325,98.9697258 69.1407213,98.7880804 69.0841626,98.606435 C68.9144863,98.1825959 68.9710451,97.7587567 69.5366325,97.6376598 C69.9891024,97.5165629 70.3850137,97.3349175 70.7809249,97.2138206 C71.5727473,96.9110783 72.3645697,96.9110783 73.1563921,97.3349175 C74.0047732,97.7587567 74.9097131,97.8193051 75.7580943,97.3954659 C76.6630341,96.9716268 77.6245328,96.9110783 78.5294727,97.3954659 C78.8122664,97.5165629 79.1516189,97.5165629 79.4344126,97.6982082 C79.6606475,97.6982082 79.8868825,97.940402 80,98.061499 Z" id="Shape" fill="#B4B6B8" fill-rule="nonzero"></path>
                <path d="M71.7913814,95 C72.2998333,95.1167175 72.8082851,95.2334349 73.2602424,95.4085111 C74.1641568,95.7586636 75.0115766,95.7586636 75.8589963,95.3501524 C76.7629108,94.9416413 77.6668252,95 78.5707396,95.3501524 C78.8532129,95.4668699 79.0791915,95.5835874 79.3616648,95.5835874 C79.9831059,95.6419461 80.0396006,96.0504572 79.9831059,96.5173271 C79.8701166,97.1009145 79.4746541,96.9258383 79.1356862,96.8674795 C78.9097076,96.8091208 78.6837289,96.7507621 78.4577503,96.6340446 C77.6668252,96.2255334 76.8759001,96.2255334 76.0284803,96.6340446 C75.0115766,97.1592732 73.9946728,97.1009145 72.9777691,96.5756859 C72.2998333,96.2255334 71.6218974,96.2255334 70.9439616,96.5173271 C70.6049937,96.6924033 70.2660258,96.8091208 69.8705632,96.9258383 C69.5315953,96.984197 69.1361328,97.1592732 69.0231435,96.5756859 C68.9666488,96.108816 68.9666488,95.7003048 69.58809,95.5835874 C70.3790151,95.5252286 71.0569509,95.2334349 71.7913814,95 Z" id="Shape" fill="#B4B6B8" fill-rule="nonzero"></path>
                <path d="M71.7607654,93 C72.2722566,93.1138509 72.7837478,93.2277017 73.2384067,93.398478 C74.090892,93.7400306 74.9433774,93.796956 75.7958628,93.398478 C76.7051805,93 77.6144982,93 78.523816,93.398478 C78.8079778,93.5123289 79.0921395,93.5692543 79.319469,93.6261797 C79.8877926,93.7400306 80.115122,94.0815832 79.9446249,94.6508375 C79.7741278,95.1631664 79.3763013,94.9923901 79.0921395,94.8785392 C78.7511454,94.8216138 78.4669836,94.6508375 78.1828218,94.5369867 C77.4440012,94.2523595 76.7620129,94.2523595 76.0800246,94.5939121 C75.0570421,95.106241 74.0340597,95.106241 72.9542449,94.5939121 C72.2154242,94.2523595 71.4766036,94.2523595 70.7377829,94.5939121 C70.4536211,94.7077629 70.112627,94.8216138 69.7716328,94.8785392 C69.487471,94.9354647 69.0896445,95.2200918 69.0328122,94.6508375 C68.9759798,94.2523595 68.9191475,93.796956 69.5443034,93.6261797 C70.3399564,93.4554035 71.0219447,93.1707763 71.7607654,93 Z" id="Shape" fill="#B4B6B8" fill-rule="nonzero"></path>
                <path d="M122.900217,95 C123.351527,95.1154943 123.746424,95.1732415 124.084907,95.346483 C125.043943,95.7507132 125.946564,95.7507132 126.9056,95.346483 C127.751807,95 128.598015,94.9422528 129.444223,95.346483 C129.726292,95.4619773 130.008361,95.5774717 130.29043,95.6352188 C130.910983,95.7507132 131.080224,96.039449 130.967397,96.6169207 C130.854569,97.1943923 130.403258,96.9634037 130.064775,96.9056565 C129.951947,96.9056565 129.83912,96.8479093 129.726292,96.7901622 C128.654429,96.1549433 127.582566,96.2704377 126.510703,96.732415 C125.777323,97.078898 124.987529,97.0211508 124.197735,96.6746678 C123.2387,96.2126905 122.336078,96.1549433 121.377043,96.6746678 C121.207801,96.7901622 120.982146,96.7901622 120.812904,96.8479093 C120.474421,96.9056565 120.079524,97.078898 120.02311,96.5014263 C119.966697,96.039449 119.966697,95.6352188 120.587249,95.5197245 C121.433457,95.5197245 122.166837,95.2309887 122.900217,95 Z" id="Shape" fill="#B4B6B8" fill-rule="nonzero"></path>
                <path d="M74.4760219,55 C73.1834568,55 71.8908916,55 70.6570794,55 C70.1283027,55 69.9520438,54.7777778 70.0107968,54.1111111 C70.0107968,53.5185185 70.0107968,53 70.6570794,53 C73.1834568,53 75.7685871,53 78.3537174,53 C79,53 78.941247,53.5925926 79,54.1111111 C79,54.7777778 78.8237411,54.9259259 78.2949645,54.9259259 C77.0023993,54.9259259 75.7685871,55 74.4760219,55 Z" id="Shape" fill="#B4B6B8" fill-rule="nonzero"></path>
                <path d="M126.559211,54.9259259 C125.315789,54.9259259 124.013158,54.9259259 122.769737,54.9259259 C122.177632,54.9259259 122,54.6296296 122,53.962963 C122,53.2962963 122.236842,53 122.769737,53 C125.256579,53 127.802632,53 130.289474,53 C130.940789,53 131,53.4444444 131,54.1111111 C131,54.7777778 130.763158,55 130.289474,55 C129.046053,54.8518519 127.802632,54.9259259 126.559211,54.9259259 C126.559211,54.9259259 126.559211,54.9259259 126.559211,54.9259259 Z" id="Shape" fill="#B4B6B8" fill-rule="nonzero"></path>
                <path d="M125.492386,46.202347 C125.360006,46.0318647 125.161436,45.8045549 125.227626,45.6909 C125.293816,45.4635903 125.492386,45.1226256 125.757146,45.0089707 C125.955716,44.9521432 126.352856,45.179453 126.551426,45.2931079 C126.683806,45.4067628 126.749996,45.6340726 126.749996,45.8613824 C126.749996,46.0318647 126.617616,46.2591745 126.749996,46.4296568 C127.080946,46.9411038 127.147136,47.3957234 126.551426,47.7935155 C126.154286,48.0776527 125.690956,48.0776527 125.293816,47.7366881 C124.830486,47.2820685 124.962866,46.8274489 125.360006,46.3728294 C125.426196,46.3160019 125.426196,46.2591745 125.492386,46.202347 Z" id="Shape" fill="#B4B6B8" fill-rule="nonzero"></path>
                <path d="M75.4447121,46.1816037 C76.1110576,46.9700742 76.1776921,47.4769481 75.6446157,47.8148641 C75.1781739,48.0964607 74.711732,48.0401414 74.3119247,47.7585448 C73.8454828,47.3643095 73.9121174,46.9700742 74.4451938,46.406881 C74.3785593,45.9563264 74.1786556,45.5620911 74.3119247,45.3931331 C74.5118284,45.1678559 74.8450011,44.7736206 75.3780775,45.1678559 C75.9111539,45.5057718 75.9777885,45.7873684 75.4447121,46.1816037 Z" id="Shape" fill="#B4B6B8" fill-rule="nonzero"></path>
                <path d="M130.517463,86 C129.890235,85.3242072 129.833215,83.837463 130.346401,83.1616702 C130.460442,83.0265117 130.802566,82.9589324 130.916607,83.0265117 C131.258731,83.2292495 131.600855,83.6347252 132,83.9726216 C131.657876,84.310518 131.372773,84.5808351 131.14469,84.8511522 C130.916607,85.2566279 130.745545,85.6621036 130.517463,86 Z" id="Shape" fill="#B4B6B8" fill-rule="nonzero"></path>
                <path d="M70.7045929,85 C70.1995284,84.6315789 69.6313307,84.2631579 69,83.8421053 C69.4419315,83.5263158 69.8207299,83.2631579 70.1995284,83 C71.0833914,83.6315789 71.2096575,84.4210526 70.7045929,85 Z" id="Shape" fill="#B4B6B8" fill-rule="nonzero"></path>
                <path d="M113.361653,58.5727588 C113.585528,58.7412687 113.697465,58.8536086 113.865371,59.0221185 C114.201184,58.7974386 114.536996,58.6289288 114.872809,58.4042489 C114.928777,58.5727588 115.040715,58.6850987 114.984746,58.7974386 C114.872809,59.9208378 114.648934,60.988067 113.809403,61.7744464 C113.137778,62.4484858 113.193747,63.1225253 113.417622,63.8527348 C113.529559,64.3020944 113.753434,64.7514541 113.92134,65.2008137 C114.36909,66.5488927 113.92134,67.5599519 112.578091,68.0654816 C111.794528,68.3463313 111.682591,69.3012206 112.298247,69.8629202 C113.081809,70.5369597 113.02584,70.4807897 112.578091,71.435679 C112.410184,71.8288687 112.410184,72.3905683 112.354216,72.8399279 C112.298247,73.2331176 112.242278,73.5701374 112.186309,73.9633271 C111.570653,74.2441768 111.234841,72.783758 110.451279,73.9071571 C110.339341,73.5139674 110.171435,73.2331176 110.227404,73.0646077 C110.507247,72.3905683 110.171435,72.3343983 109.667716,72.3343983 C109.611748,72.3343983 109.611748,72.2782283 109.555779,72.2220584 C109.667716,71.3233391 110.731122,71.5480189 111.178872,71.0986592 C109.443842,71.5480189 109.667716,70.0314301 109.275935,69.1327107 C109.219967,69.1327107 109.163998,69.1327107 109.108029,69.1888807 C109.05206,69.4135605 108.996092,69.5820704 108.996092,69.8067502 C108.996092,70.0314301 109.108029,70.2561099 109.163998,70.4807897 C109.219967,71.0986592 108.940123,71.435679 108.324467,71.3233391 C107.652842,71.1548292 106.981217,71.0986592 106.701374,71.9412086 C106.701374,71.9973786 106.42153,72.1097185 106.42153,72.0535485 C106.309592,71.9412086 106.141686,71.8288687 106.141686,71.6603588 C106.029749,70.9301494 105.581999,70.8739794 104.966343,71.0424893 C104.686499,70.5931296 104.854405,70.3684498 105.246187,70.14377 C105.917811,69.6944103 105.917811,69.6944103 105.302155,69.0765408 C105.637968,69.0203708 106.029749,68.851861 106.309592,68.9080309 C106.645405,69.0203708 106.86928,69.3573906 107.037186,69.5259004 C107.037186,68.9642009 106.925249,68.3463313 107.037186,67.7846318 C107.205092,66.9420824 107.988654,67.1105923 108.604311,67.0544223 C108.100592,66.4927228 107.596873,65.9871931 107.149123,65.5378335 C106.701374,65.7625133 106.309592,65.9871931 105.861843,66.155703 C105.693936,66.211873 105.414093,66.155703 105.190218,66.211873 C105.022312,66.211873 104.854405,66.3242129 104.798437,66.4365528 C104.63053,66.7735725 104.518593,67.1105923 104.350687,67.6161219 C104.070843,67.3914421 103.790999,67.2791022 103.735031,67.0544223 C103.567125,66.5488927 103.287281,66.2680429 102.615656,66.2680429 C102.783562,65.9310232 103.007437,65.6501734 103.231312,65.2569837 C103.119375,65.1446438 102.951468,65.0323039 102.783562,64.919964 C102.951468,64.3582644 103.399218,64.1897545 103.958906,64.4706043 C104.070843,64.5267743 104.182781,64.6952841 104.294718,64.6391142 C104.686499,64.5267743 105.07828,64.3582644 105.470061,64.2459245 C105.302155,64.0212446 105.134249,63.6842249 104.910374,63.515715 C104.518593,63.2348652 103.902937,63.4033751 103.790999,62.7293356 C103.790999,62.6731657 103.511156,62.6731657 103.455187,62.6731657 C103.511156,62.3923159 103.567125,62.1676361 103.679062,61.9429562 C103.231312,61.8867863 102.727594,61.8306163 102.111937,61.7744464 C102.279844,61.4374266 102.44775,60.988067 102.671625,60.4825373 C102.615656,60.4263674 102.559687,60.3140275 102.44775,60.2578575 C102.335812,60.1455176 102.167906,60.0893476 102.055969,60.0331777 C102.055969,59.9770077 102,59.9208378 102,59.8084979 C102.279844,59.6961579 102.559687,59.5276481 102.839531,59.5276481 C103.735031,59.583818 103.735031,59.583818 104.014874,58.7412687 C104.63053,58.9097785 104.966343,59.5276481 104.63053,60.0893476 C104.350687,60.5387073 104.518593,60.8195571 104.854405,61.1004069 C105.693936,61.7182764 106.533467,62.1676361 107.652842,61.7744464 C107.484936,61.2689167 107.428967,60.8195571 106.701374,60.6510472 C106.253624,60.5387073 105.917811,60.0331777 105.470061,59.639988 C106.365561,58.9659485 106.925249,59.5276481 107.596873,60.0331777 C107.484936,59.639988 107.428967,59.3591382 107.31703,59.0221185 C108.436404,58.7974386 109.779654,58.6850987 109.108029,57 C110.115466,57 112.130341,58.5727588 112.634059,59.8084979 C112.522122,59.8646678 112.466153,59.9208378 112.354216,59.9208378 C111.458716,59.9208378 111.29081,60.0893476 111.402747,60.931897 C111.458716,61.4935966 111.178872,62.1114661 111.626622,62.6731657 C111.682591,62.7293356 111.626622,62.9540155 111.570653,63.0663554 C111.402747,63.3472052 111.234841,63.571885 111.066935,63.7965648 C111.010966,63.8527348 110.787091,63.8527348 110.787091,63.8527348 C110.619185,64.1897545 110.507247,64.4144343 110.39531,64.6952841 C110.339341,64.807624 110.339341,64.919964 110.339341,64.9761339 C110.731122,65.5378335 111.010966,66.155703 111.514685,66.6612326 C111.682591,66.8297425 112.242278,66.9420824 112.466153,66.7735725 C112.745997,66.6612326 112.969872,66.211873 112.969872,65.9310232 C112.969872,65.4254936 112.857934,64.919964 112.745997,64.4706043 C112.186309,62.5046558 112.690028,60.5948773 113.361653,58.5727588 Z" id="Shape" fill="#B4B6B8" fill-rule="nonzero"></path>
                <path d="M105,76.2426976 C104.880894,77.7133764 104.344918,79.2929944 102.736989,80.3279165 C101.367272,81.308369 99.3424721,81.1994299 97.9727548,80.1100382 C95.3524261,77.9857243 95.3524261,74.0639142 97.9132019,71.9396003 C99.461578,70.6867999 101.54593,70.6867999 103.094306,71.9396003 C104.285365,72.9745225 105,74.4996709 105,76.2426976 Z M104.285365,75.8614105 C104.285365,74.9898971 103.9876,74.0094446 103.332518,73.1379312 C101.903248,71.2859653 99.5211309,71.2314957 97.9132019,72.9200529 C96.24572,74.7175492 96.4243788,77.9312547 98.3300724,79.5108727 C99.5806838,80.6002644 101.486377,80.6002644 102.736989,79.5108727 C103.749389,78.5848898 104.285365,77.4410285 104.285365,75.8614105 Z" id="Shape" fill="#B4B6B8" fill-rule="nonzero"></path>
                <path d="M99.271484,77 C98.8403522,77 98.3476301,76.9464022 97.9164982,76.9464022 C97.6701372,76.4640221 97.4237761,76.0888375 97.2390053,75.6600551 C96.9926443,75.177675 96.7462832,74.6952948 97.5469567,74.4273059 C97.6701372,74.3737081 97.7317274,74.1593169 97.7933177,73.9985235 C97.9164982,73.7841323 97.9164982,73.5697412 98.0396788,73.35535 C98.3476301,72.8729698 98.7787619,72.8729698 99.025123,73.4089478 C99.271484,73.8913279 99.271484,74.4273059 99.948977,74.7488926 C100.072157,74.8024904 99.948977,75.3384684 99.8257964,75.6600551 C99.7026159,76.0888375 99.5178451,76.4640221 99.271484,77 Z" id="Shape" fill="#B4B6B8" fill-rule="nonzero"></path>
                <path d="M101.294532,79.8244257 C101.102132,79.8775428 100.909731,79.9306598 100.717331,79.9837768 C100.204263,80.0368938 99.7553292,79.9837768 99.6270623,79.4526066 C99.5629289,79.1870215 99.3705285,78.8683193 99.1781282,78.6558512 C98.8574609,78.177798 98.9857278,77.8059788 99.434662,77.4872767 C99.6270623,77.3279256 99.6911958,77.0623405 99.8835961,76.8498724 C100.075996,76.5311702 100.33253,76.2655851 100.589064,76 C100.845598,76.2655851 101.102132,76.5311702 101.230399,76.8498724 C101.358665,77.1685745 101.422799,77.4341597 101.871733,77.6466278 C102.064133,77.7528618 102,78.3371491 101.935867,78.7089682 C101.8076,79.0276704 101.551066,79.3463725 101.294532,79.8244257 Z" id="Shape" fill="#B4B6B8" fill-rule="nonzero"></path>
                <path d="M103.189893,77 C102.820395,77 102.266148,77 101.896649,77 C101.588734,76.3670886 101.403985,75.8607595 101.157653,75.3544304 C100.91132,74.8481013 100.91132,74.4050633 101.465568,74.0253165 C101.650317,73.8987342 101.773483,73.5822785 101.896649,73.3291139 C102.081398,72.9493671 102.204565,72.5696203 102.450897,72 C102.758812,72.3797468 102.943561,72.5696203 103.005144,72.7594937 C103.251476,73.3291139 103.313059,74.0253165 103.92889,74.3417722 C104.052056,74.4050633 103.990473,74.9746835 103.92889,75.2911392 C103.744141,75.8607595 103.497809,76.3670886 103.189893,77 Z" id="Shape" fill="#B4B6B8" fill-rule="nonzero"></path>
            </g>
        </g>
    </g>
</svg>