<?xml version="1.0" encoding="UTF-8" standalone="no"?>
<svg width="159px" height="36px" viewBox="0 0 159 36" version="1.1" xmlns="http://www.w3.org/2000/svg" xmlns:xlink="http://www.w3.org/1999/xlink">
    <!-- Generator: Sketch 46 (44423) - http://www.bohemiancoding.com/sketch -->
    <title>LLOYDS</title>
    <desc>Created with Sketch.</desc>
    <defs>
        <polygon id="path-1" points="21 79 180 79 180 42 21 42"></polygon>
    </defs>
    <g id="1-Home" stroke="none" stroke-width="1" fill="none" fill-rule="evenodd">
        <g id="1.1-Home" transform="translate(-961.000000, -5321.000000)">
            <g id="LLOYDS" transform="translate(940.000000, 5279.000000)">
                <rect id="Rectangle-5-Copy-7" x="0" y="0" width="200" height="120"></rect>
                <path d="M161.253655,44.3299684 C160.924789,44.8540138 160.635774,45.2165411 160.457454,45.6256678 C160.266655,46.0648076 160.219157,46.562789 160.037617,47.0070626 C159.744979,47.7254037 159.394377,48.4208401 159.045385,49.1747231 L159.8279,49.1747231 C160.209094,47.8498003 160.460272,46.4763037 161.846981,45.8981556 C161.681945,45.46257 161.517713,45.028564 161.253655,44.3299684 Z M145.506348,54.5257522 C145.152928,53.6166696 144.104744,53.0918344 143.048108,53.3019264 C141.901305,53.5297894 141.051568,54.4570379 141.063241,55.359407 C141.421089,55.0529569 141.806711,54.6513336 142.265995,54.3606799 C142.496644,54.2145632 142.902795,54.1738875 143.148337,54.2749844 C143.28721,54.3318514 143.261448,54.7737556 143.291235,54.9392229 C143.973118,54.8120619 144.714172,54.6734485 145.506348,54.5257522 Z M168.088987,57.5906479 C168.337347,56.5938954 167.946894,55.8178974 167.229991,55.2164496 C166.693019,54.7666472 166.622174,54.3306667 166.875767,53.7059193 C167.482377,52.2115802 167.876452,50.6639283 167.756096,49.0353199 C167.622456,47.2211038 166.810959,45.8531359 164.953694,45.1122849 C166.744542,46.5430435 167.24569,47.9576108 166.7538,50.1225068 C166.445061,51.4794172 165.842074,52.6878415 164.813212,53.6680079 C164.402633,54.0593636 164.311259,54.438872 164.923102,54.7003024 C166.31907,55.2970112 167.421595,56.187928 168.088987,57.5906479 Z M147.563669,60.7467679 C147.804784,60.3850304 147.960562,60.1516386 148.115133,59.9182469 C149.610526,57.6672605 152.67296,56.3774847 155.284966,56.8983709 C156.522338,57.1451896 156.640681,57.3497529 156.163283,58.4160096 C157.071789,58.9005641 158.616692,58.5996427 159.003522,57.8216702 C159.416516,56.9919645 159.768326,56.1330355 160.14791,55.2835843 C160.183332,55.2993807 160.155558,55.2756861 160.138249,55.2812148 C160.038422,55.3132025 159.933765,55.3400564 159.844001,55.3913947 C158.283399,56.2787573 156.631826,56.6243034 154.840575,56.2574321 C154.26818,56.1401439 153.681696,56.0556332 153.097628,56.0232505 C151.064055,55.9107012 149.267974,56.3838033 148.089371,58.1759044 C147.611168,58.9021437 147.332216,59.6994668 147.563669,60.7467679 Z M169.199159,58.2805555 C169.969599,58.2446187 170.742855,58.2375104 171.509672,58.1652418 C172.30547,58.090209 172.83882,58.3757288 173.185397,59.0834074 C174.223517,61.2044684 175.320406,63.2994655 176.298952,65.4465906 C176.529199,65.9520753 176.382276,66.6226323 176.408843,67.2173666 C175.84168,67.0657212 175.247549,66.9760766 174.715406,66.7458442 C174.23197,66.5357521 174.130935,66.1009563 174.411498,65.6207458 C174.627253,65.2511102 174.719432,64.9300484 174.254109,64.6109612 C174.056065,64.475902 174.034731,64.1027122 173.91357,63.8464157 C173.403164,62.7655473 172.924156,61.6669079 172.356591,60.6152629 C171.989888,59.9360178 171.341012,59.9032403 170.691734,60.2361494 C169.840789,60.6729197 169.022047,61.1709011 168.163454,61.5914801 C167.17404,62.0760346 166.218438,62.7197377 164.994752,62.3520766 C164.772959,62.2857317 164.458584,62.3963065 164.225521,62.5045118 C161.928695,63.573138 159.523991,63.5605009 157.08306,63.2248275 C157.030328,63.2173242 156.977597,63.2066616 156.924464,63.2011329 C156.261902,63.1332084 155.498709,62.8401852 154.966566,63.0672584 C154.503659,63.2643185 154.304407,64.0517688 153.983995,64.5758143 C153.383423,65.5571654 152.650419,66.3931896 151.567215,66.9101267 C150.804424,67.2738387 150.467508,67.8883185 150.909484,68.5987614 C152.027708,70.3959964 153.284401,72.1134595 154.547937,73.8178906 C154.861909,74.241629 155.456041,74.4564599 155.83643,74.8470258 C156.024008,75.0397419 156.108539,75.429123 156.060638,75.6988465 C156.038096,75.823638 155.5929,75.9077538 155.329244,75.9504041 C155.069613,75.9934493 154.795089,75.9425059 154.529823,75.9642259 C153.977554,76.0100355 153.737245,75.7545288 153.569391,75.2458848 C153.445009,74.8667713 153.112119,74.5508434 152.860136,74.2155649 C152.737767,74.0520722 152.503496,73.9268858 152.462036,73.7523356 C152.017242,71.8674306 150.569348,70.6250441 149.416507,69.2100819 C148.489484,68.0723465 148.406161,67.7848521 149.255093,66.6202628 C149.414092,66.4026674 149.510296,66.1404473 149.662049,65.8470292 C148.682295,66.1534793 147.747222,66.3114433 146.963097,66.7371561 C146.439408,67.0214913 145.900423,67.636366 145.774029,68.1923991 C145.502725,69.3830525 145.447981,70.629783 145.393237,71.8575579 C145.345336,72.9084131 145.704794,73.8182855 146.711517,74.3723441 C146.849182,74.4481668 147.00496,74.543735 147.077818,74.670896 C147.265799,74.9994611 147.411916,75.3513258 147.575343,75.6937127 C147.240439,75.7829623 146.910769,75.898276 146.570632,75.9527736 C146.311002,75.994634 145.997835,76.0404436 145.781274,75.9373721 C145.50031,75.8042874 145.235849,75.5602331 145.065579,75.3003824 C144.779784,74.8632171 144.559601,74.3826118 144.339016,73.9079301 C144.183237,73.5734414 143.955406,73.2176276 143.959432,72.8732662 C143.981571,70.8647544 144.023836,68.8550579 144.15184,66.8504953 C144.180822,66.3943743 144.510493,65.9129792 144.813597,65.527942 C145.182312,65.0587891 145.696341,64.7029752 146.099272,64.2559372 C146.740902,63.542335 146.910366,62.7335596 146.696221,61.7727438 C146.359708,60.2645829 146.597199,58.8113144 147.608753,57.4642768 C146.731241,57.3635747 145.963217,56.9556328 145.32038,57.7651981 C145.252755,57.7434781 145.18513,57.7209682 145.117908,57.6988533 C145.142462,57.3161856 145.166614,56.9339128 145.207269,56.2988977 C144.701694,56.722636 144.294738,57.0634432 143.82378,57.458748 C143.760985,57.4101741 143.609635,57.2936757 143.393879,57.1274186 C143.349199,57.2052159 143.264668,57.2845928 143.279964,57.3339565 C143.426887,57.8090331 143.492901,58.3476902 143.774671,58.7323325 C144.125273,59.2109633 144.687605,59.5336046 145.10704,59.9707699 C146.375406,61.2949028 145.977708,62.9535244 144.25529,63.6027563 C144.031082,63.6868721 143.804056,63.7646693 143.576627,63.8393073 C143.012283,64.02452 142.614182,64.2800267 143.14552,64.9063538 C142.58359,65.2921808 142.020856,65.1737078 141.79383,64.7203513 C141.597799,64.3282057 141.638856,63.7259681 141.79383,63.2923571 C141.906135,62.9787986 142.373068,62.7837131 142.689053,62.5447926 C143.484046,61.9433449 143.489279,61.4658988 142.720852,60.8545783 C142.22373,60.4596684 141.694808,60.0868734 141.26531,59.6275932 C139.944615,58.2153954 139.660028,56.5599331 140.401082,54.8140364 C141.36554,52.54133 144.141777,52.1179865 145.840849,53.9246993 C146.418879,54.5391791 146.962695,55.1935448 147.599494,55.7432594 C148.166657,56.2341324 148.801041,56.3818287 149.569065,55.9280773 C151.111956,55.0170201 152.809015,55.1275949 154.472664,55.5248743 C158.098236,56.3909117 161.875963,53.6735366 162.752267,50.954582 C162.902813,50.4877985 162.985331,49.990212 163.024376,49.5009186 C163.058591,49.0720465 162.773601,48.7873165 162.376306,49.0534857 C161.818402,49.4262807 161.211792,49.8421208 160.871253,50.3870965 C160.398685,51.1441387 159.260737,51.3830592 158.717727,50.6410235 C158.36793,50.1623927 158.278569,49.6569081 158.585295,49.0337402 C159.129513,47.9279925 159.894719,46.8988573 159.965967,45.5936801 C159.98086,45.3176381 160.239686,45.0380419 160.428472,44.7912232 C160.783099,44.327599 160.96625,43.8951726 160.47275,43.3971912 C160.335085,43.257788 160.314154,43.0074152 160.158375,42.5907852 C160.615245,42.8514257 160.852334,42.9868798 161.15584,43.1602453 C161.138129,42.7641507 161.122833,42.4257129 161.103512,42 C161.844566,42.4885035 162.490221,42.9146113 163.133462,43.3387446 C163.738059,42.7455899 165.421029,42.9047386 166.200727,43.6538827 C166.657194,44.0926276 167.095547,44.4354094 167.948907,43.7609032 C167.898993,44.3967082 167.842237,44.8014908 167.845457,45.2066684 C167.847067,45.4309772 167.873231,45.7638863 168.018544,45.8602443 C168.66581,46.2926706 169.360573,46.6571725 170.235267,47.1591029 C169.806575,47.6029817 169.418537,48.0049999 168.875124,48.5673516 C169.238205,48.9831918 169.684609,49.4942052 170.217556,50.1039461 C169.963561,50.3025857 169.650796,50.5466401 169.262759,50.8499309 C169.356146,51.1157052 169.482137,51.4482194 169.588807,51.787447 C169.722044,52.2115802 169.705943,52.4532651 169.278055,52.8643663 C168.866671,53.2592762 168.958448,54.1687537 168.873514,54.8570816 C168.866671,54.9084199 169.218078,55.0707279 169.398813,55.0648042 C170.304502,55.0340012 171.215423,55.0107016 172.112659,54.8953879 C173.022373,54.7784945 173.731627,55.0458485 174.329382,55.7017939 C175.166238,56.6199594 175.978943,57.5633992 176.87014,58.4286467 C177.587445,59.1260576 178.405785,59.7235563 179.179042,60.3652849 C179.631484,60.7412391 180.242522,61.1787993 179.89997,61.7770878 C179.559431,62.3726119 178.817974,62.1862144 178.217805,62.0290403 C177.735978,61.903459 177.423616,61.6451879 177.459441,61.0800718 C177.47192,60.8857761 177.317751,60.5133761 177.217119,60.5058728 C176.51994,60.4517702 176.389924,59.8692781 176.040127,59.4601514 C175.357439,58.6620385 174.631278,57.8856456 173.835882,57.1973177 C173.100061,56.560328 172.231002,56.6053477 171.373214,57.064628 C170.655104,57.4488753 169.918477,57.7991604 169.190706,58.1648469 C169.193524,58.2035481 169.196342,58.2422493 169.199159,58.2805555 Z" id="Fill-1" fill="#B4B6B8"></path>
                <path d="M95.5625565,77.0027666 C119.71993,77.0027666 143.878099,77.0027666 168.03587,77.0030294 C168.458288,77.0030294 168.881104,77.0132767 169.303124,77.0048686 C169.812253,76.9946213 170.001188,77.1506954 169.999994,77.4814988 C169.998801,77.8238632 169.829754,78.0182989 169.269713,77.9967533 C169.111803,77.9907101 168.953098,77.9959651 168.794393,77.9959651 L22.4218064,77.9959651 C22.2634992,77.9959651 22.1043964,77.9912356 21.9464868,77.9964906 C21.4242319,78.0140949 21.0109624,77.9815138 21.0002229,77.5167074 C20.988688,77.0240494 21.4262207,76.9901546 21.9802962,77.0017156 C22.4019186,77.0106491 22.825132,77.0027666 23.2471522,77.0027666 L95.5625565,77.0027666 Z" id="Fill-3" fill="#B4B6B8"></path>
                <path d="M26.6993432,68.9519689 L25,68.9519689 L25,59.0175992 C25.572926,59.0175992 26.1369444,58.9653506 26.680718,59.0409043 C26.9402555,59.0766138 27.2305651,59.3119203 27.3876642,59.5306876 C28.8444754,61.5631193 30.2741587,63.6117142 31.7143693,65.6542949 C31.8544628,65.8531402 32.0111571,66.0422123 32.3310239,66.1967027 L32.3310239,59.0548122 L34,59.0548122 L34,68.9805364 C33.4072341,68.9805364 32.8407864,69.0380474 32.2986324,68.9553519 C32.0451683,68.9166353 31.7819867,68.643364 31.6212435,68.4159512 C30.1777938,66.3756259 28.7570182,64.3217685 27.32693,62.2727977 C27.1734749,62.0536544 27.0050387,61.8435325 26.6993432,61.4383242 L26.6993432,68.9519689 Z" id="Fill-5" fill="#B4B6B8"></path>
                <path d="M116,68.9829359 C115.532425,68.9829359 115.127762,68.9498574 114.732029,68.9908296 C114.205195,69.0464615 113.908496,68.8472391 113.630468,68.4405248 C112.220032,66.3772577 110.776315,64.3339129 109.342744,62.2845539 C109.184856,62.0590191 109.014792,61.8406263 108.690493,61.6425316 L108.690493,68.9303111 L107,68.9303111 L107,59.0184348 C107.600704,59.0184348 108.19126,58.9631788 108.759087,59.0439954 C109.011545,59.0797051 109.274962,59.356361 109.436908,59.5822717 C110.865608,61.575623 112.271173,63.5821304 113.685262,65.5841272 C113.831785,65.7916192 113.987643,65.9938487 114.300577,66.1893121 L114.300577,59.0691801 L116,59.0691801 L116,68.9829359 Z" id="Fill-7" fill="#B4B6B8"></path>
                <path d="M63.6630173,61.6992742 L63.6630173,65.282167 L63.6630173,68.9146397 L62,68.9146397 L62,59.0155789 C62.6035273,59.0155789 63.2126838,58.9671259 63.8041486,59.04112 C64.0269029,59.0689148 64.2512655,59.3562523 64.4024489,59.5695958 C65.8149682,61.5648077 67.2106,63.5694098 68.6138714,65.5706314 C68.7690756,65.7922381 68.9371465,66.0067084 69.2724841,66.1930083 L69.2724841,59.0512614 L70.9262535,59.0512614 C70.9483681,59.2954044 70.9845556,59.5121283 70.9845556,59.7292278 C70.9885765,62.5462627 70.9712869,65.3632976 70.9998348,68.179957 C71.0062682,68.7876853 70.8265368,68.9728584 70.1526449,68.9972727 C69.2845466,69.0288235 68.7646527,68.7906901 68.2982358,68.070656 C67.0143832,66.0893414 65.6247827,64.167748 64.2741842,62.2243695 C64.1350633,62.0245478 63.9782508,61.8352431 63.8294799,61.6414311 C63.7739924,61.6602113 63.7185048,61.6797428 63.6630173,61.6992742" id="Fill-9" fill="#B4B6B8"></path>
                <path d="M103.186352,64.5335686 C103.200892,62.1928913 101.670202,60.5095247 99.5123024,60.4940446 C97.405491,60.4785644 95.8123156,62.1583586 95.7859854,64.4224291 C95.7588692,66.7186506 97.3485077,68.4484576 99.4883301,68.4512361 C101.647802,68.4540146 103.171811,66.8397133 103.186352,64.5335686 M99.5150533,59.0000121 C102.765854,59.005966 105.004317,61.2390762 104.999994,64.471648 C104.995671,67.6974721 102.647958,70.0329894 99.4431364,69.9996475 C96.2583576,69.9663057 93.9727365,67.6307884 94.0002457,64.4383062 C94.0281478,61.1874757 96.2528557,58.9940582 99.5150533,59.0000121" id="Fill-11" fill="#B4B6B8"></path>
                <path d="M44.3403257,48.9983317 C44.3441218,47.0524661 42.901239,45.5251395 41.0419284,45.5062182 C39.1852749,45.4872969 37.6706466,47.0134882 37.6543236,48.9196191 C37.6372413,50.9188427 39.0729115,52.4609279 40.9637295,52.4749296 C42.8841567,52.488553 44.3365296,50.9930141 44.3403257,48.9983317 M45.9999636,48.9722203 C46.0102129,51.8236588 43.8574668,53.9935524 41.010421,53.9999857 C38.1622365,54.0064189 36.001139,51.8471212 36.0000002,48.9926553 C35.999241,46.1957101 38.1626161,44.0152205 40.9546189,44.0000835 C43.8088772,43.984568 45.9897142,46.1336482 45.9999636,48.9722203" id="Fill-13" fill="#B4B6B8"></path>
                <path d="M59.6317727,53.3634671 C61.3377596,53.5274511 62.8962925,53.4849081 63.837385,51.8245708 C64.5600963,50.5490542 64.5376982,49.2166848 63.7231548,47.9844848 C62.7223341,46.4703407 61.2168099,46.4838771 59.6317727,46.6327776 L59.6317727,53.3634671 Z M58.0097785,49.936435 C58.0097785,48.5267146 58.0280703,47.1169943 58.000446,45.7080474 C57.9899936,45.1735526 58.1617122,44.9786283 58.6794811,45.0018336 C59.445122,45.0362548 60.2130028,45.0033806 60.9793903,45.0111157 C63.8538103,45.0408958 65.9495237,47.1026844 65.9991728,49.9426231 C66.0473287,52.7032771 63.9878254,54.8578867 61.1511089,54.9847422 C60.3115543,55.0226442 59.46864,54.9700456 58.6287121,54.9990522 C58.1325947,55.0160694 57.9944732,54.8045146 58.0023125,54.3183641 C58.0243373,52.8579789 58.0101518,51.397207 58.0097785,49.936435 L58.0097785,49.936435 Z" id="Fill-15" fill="#B4B6B8"></path>
                <path d="M54.7420471,63.3885497 C55.7524763,63.3131682 56.6689901,63.3083169 57.554059,63.1590465 C58.2659714,63.0385106 58.6814632,62.5776383 58.6663697,61.8742015 C58.6525339,61.2077092 58.2663907,60.7632566 57.5725067,60.6610064 C56.659347,60.526663 55.7239662,60.5154677 54.7420471,60.4471765 L54.7420471,63.3885497 Z M54.692993,64.7987818 C54.692993,65.8503918 54.6946701,66.9105848 54.6925738,67.9707778 C54.6904774,69.0082071 54.6888004,69.0085802 53.49641,68.9880556 C53.3584718,68.9854433 53.2209528,68.9727553 53,68.9596942 L53,59 C54.7617525,59.1071015 56.5373408,59.1074747 58.2689062,59.3552635 C59.6403228,59.5519273 60.3752948,60.4703134 60.4604056,61.5752876 C60.5639642,62.9258115 59.9715424,63.8117313 58.6038992,64.3520901 C58.4311619,64.4203814 58.2601017,64.4912848 58.0068655,64.5942814 C58.9933966,66.0418311 59.9509984,67.4479582 61,68.9873092 C60.2851528,68.9873092 59.7115979,69.0264927 59.1514596,68.9671577 C58.937215,68.9447671 58.6902678,68.7298178 58.5665846,68.5447225 C57.8965987,67.5468499 57.2035533,66.5553212 56.6329333,65.5119211 C56.2316965,64.7786303 55.7025837,64.5271097 54.692993,64.7987818 L54.692993,64.7987818 Z" id="Fill-17" fill="#B4B6B8"></path>
                <path d="M76.9564885,61.0852696 C76.3660305,62.5361084 75.8591603,63.7822598 75.3358779,65.068222 L78.5717557,65.068222 C78.0358779,63.7465804 77.5370229,62.5165786 76.9564885,61.0852696 M82,68.9189727 C80.2557252,69.0917363 80.2019084,69.1108906 79.6458015,67.5785524 C79.3591603,66.7890978 78.9660305,66.4935218 78.1137405,66.5712655 C77.1854962,66.6565205 76.2416031,66.6152075 75.3068702,66.5806548 C74.8492366,66.563754 74.5965649,66.7158611 74.4790076,67.1425121 C74.4267176,67.3329277 74.3255725,67.5098226 74.2496183,67.6946045 C73.6687023,69.0966188 73.6687023,69.0966188 72,68.9189727 C72.0503817,68.7518427 72.0820611,68.5858394 72.1484733,68.4341079 C73.4438931,65.489615 74.7576336,62.552258 76.0278626,59.5972491 C76.2366412,59.1116331 76.5076336,58.9963322 76.9977099,59.0000879 C77.4778626,59.0034681 77.7633588,59.095859 77.971374,59.5852307 C79.2312977,62.5447466 80.5324427,65.486986 81.8183206,68.4356102 C81.8767176,68.5696898 81.921374,68.7090274 82,68.9189727" id="Fill-19" fill="#B4B6B8"></path>
                <path d="M123.607156,65.1017499 C123.06508,63.7605669 122.561151,62.5139496 121.982452,61.0834544 C121.395743,62.5300858 120.88838,63.7815815 120.35317,65.1017499 L123.607156,65.1017499 Z M127,68.9020187 C126.924468,68.9309138 126.901961,68.945549 126.878691,68.9474253 C125.276112,69.0720119 125.225757,69.0896492 124.674907,67.5822255 C124.389563,66.800932 123.998932,66.4943437 123.143664,66.570897 C122.191119,66.6564565 121.222553,66.5588886 120.265431,66.6125509 C120.015564,66.6268109 119.745861,66.8763595 119.55169,67.0790004 C119.406348,67.2309812 119.3682,67.4820308 119.28275,67.6891749 C118.699474,69.1031586 118.699474,69.1031586 117,68.9095239 C117.092317,68.6674805 117.168612,68.4378208 117.265888,68.216792 C118.519417,65.3681852 119.787442,62.5252074 121.021134,59.6683449 C121.228275,59.1880108 121.47509,58.9988792 122.021363,59.000005 C122.562676,59.0011308 122.817884,59.1771282 123.025025,59.661215 C124.238117,62.4993144 125.487068,65.3235292 126.719997,68.1541234 C126.826429,68.3980431 126.907683,68.6535959 127,68.9020187 L127,68.9020187 Z" id="Fill-21" fill="#B4B6B8"></path>
                <path d="M45,59.0001819 C47.1289969,59.0001819 49.1841908,58.9990448 51.239788,59.0024562 C51.4204644,59.0028352 51.6011408,59.0327793 51.8197269,59.0528684 L51.8197269,60.4386365 L46.7321542,60.4386365 L46.7321542,63.1370182 L51.492251,63.1370182 L51.492251,64.5337785 L46.7099729,64.5337785 L46.7099729,67.557755 L52,67.557755 L52,69 L45,69 L45,59.0001819 Z" id="Fill-23" fill="#B4B6B8"></path>
                <path d="M75.1643782,45.8508272 C74.3478476,45.7241498 73.535935,45.5463435 72.7139469,45.4921621 C72.2647501,45.462019 71.7580394,45.5646583 71.3483048,45.7424646 C70.4872744,46.1163919 70.4234632,47.0592231 71.2475504,47.4957261 C71.8877607,47.8341686 72.6228481,48.0287634 73.3226715,48.2710531 C74.4435643,48.6590982 75.4863725,49.1352833 75.8633619,50.2826298 C76.4485771,52.0629821 75.0951095,53.7990735 72.92805,53.9776429 C72.1933824,54.0383107 71.4209319,53.9707749 70.6959199,53.8322691 C69.1216322,53.5308378 69.0372504,53.3702017 69.2563913,51.8126797 C69.7244795,51.9820917 70.16528,52.2087374 70.6375664,52.2976406 C71.3109417,52.4246996 72.0095056,52.5189446 72.693796,52.5017744 C73.4406381,52.4826965 74.0510419,52.1343335 74.2109895,51.4143325 C74.3793334,50.6588466 73.8671651,50.2204358 73.1774172,49.9544895 C72.3848158,49.648098 71.5464551,49.4355698 70.7685471,49.1028508 C69.4562209,48.5423413 68.8987131,47.6422446 69.0150005,46.4369011 C69.1426227,45.1094589 70.3319446,44.1418264 72.068279,44.0174383 C72.6446782,43.97623 73.2412283,44.0101887 73.81217,44.0968025 C75.3465757,44.3295532 75.4284387,44.461954 75.1643782,45.8508272" id="Fill-25" fill="#B4B6B8"></path>
                <path d="M47,45.1704733 C48.6668775,44.8348338 48.9063277,44.9219083 49.714894,46.099907 C50.4943721,47.2357111 51.2768011,48.3695972 52.1405927,49.6246971 C52.9331394,48.3864751 53.6582353,47.2525889 54.3841744,46.1187028 C55.1564858,44.9123186 55.3225834,44.8490265 57,45.1666374 C56.8128241,45.4654525 56.6441971,45.7477732 56.4616584,46.0231894 C54.7184773,48.6549867 52.9719236,51.2856332 51.2262131,53.9170469 C50.4302938,55.1172937 50.3738038,55.1380075 48.5909953,54.8399596 C49.2090131,53.9051556 49.737237,52.965365 50.4142743,52.1241565 C51.0145862,51.3773107 51.0112137,50.8142035 50.4041567,50.0504798 C49.3434931,48.7140592 48.4278487,47.2825088 47.4552928,45.88855 C47.2963619,45.6606988 47.1580878,45.4209563 47,45.1704733" id="Fill-27" fill="#B4B6B8"></path>
                <polygon id="Fill-29" fill="#B4B6B8" points="38.1470116 60.43755 35 60.43755 35 59 43 59 43 60.4211709 39.826144 60.4211709 39.826144 69 38.1470116 69"></polygon>
                <polygon id="Fill-31" fill="#B4B6B8" points="89 60.4279727 85.8352554 60.4279727 85.8352554 69 84.1816263 69 84.1816263 60.4481655 81 60.4481655 81 59 89 59"></polygon>
                <path d="M27,53.4290932 L27,55 L21,55 L21,45 L22.5723598,45 L22.5723598,45.9959549 C22.5723598,48.1838354 22.5958279,50.3717158 22.5582045,52.5584181 C22.5470292,53.2256608 22.6915627,53.4809331 23.3713913,53.4459804 C24.5503818,53.3855005 25.7342149,53.4290932 27,53.4290932" id="Fill-33" fill="#B4B6B8"></path>
                <polygon id="Fill-35" fill="#B4B6B8" points="30.5415806 45 30.5415806 53.3864776 35 53.3864776 35 55 29 55 29 45"></polygon>
                <polygon id="Fill-37" fill="#B4B6B8" points="129 69 129 59 130.576173 59 130.576173 67.5344204 135 67.5344204 135 69"></polygon>
                <mask id="mask-2" fill="white">
                    <use xlink:href="#path-1"></use>
                </mask>
                <g id="Clip-40"></g>
                <polygon id="Fill-39" fill="#B4B6B8" mask="url(#mask-2)" points="90 69 91 69 91 59 90 59"></polygon>
                <polygon id="Fill-41" fill="#B4B6B8" mask="url(#mask-2)" points="21 69 22 69 22 59 21 59"></polygon>
            </g>
        </g>
    </g>
</svg>