<?xml version="1.0" encoding="UTF-8" standalone="no"?>
<svg width="170px" height="65px" viewBox="0 0 170 65" version="1.1" xmlns="http://www.w3.org/2000/svg" xmlns:xlink="http://www.w3.org/1999/xlink">
    <!-- Generator: Sketch 46 (44423) - http://www.bohemiancoding.com/sketch -->
    <title>Logo Paci</title>
    <desc>Created with Sketch.</desc>
    <defs>
        <polygon id="path-1" points="0 64.9907 170 64.9907 170 -0.0003 0 -0.0003"></polygon>
    </defs>
    <g id="1-Home" stroke="none" stroke-width="1" fill="none" fill-rule="evenodd">
        <g id="1.1-Home" transform="translate(-30.000000, -30.000000)">
            <g id="Logo-Paci" transform="translate(30.000000, 30.000000)">
                <path d="M55.1372,43.4595 L62.4532,43.4595 L62.4532,41.0715 C62.4532,39.8455 61.9602,39.0935 60.9752,38.8155 C60.4562,38.6645 59.6702,38.5915 58.6152,38.5975 C57.5602,38.6045 56.7172,38.7845 56.0852,39.1385 C55.4532,39.4915 55.1372,40.1675 55.1372,41.1665 L55.1372,43.4595 Z M55.2512,55.8935 C54.2402,55.6785 53.3302,55.3175 52.5212,54.8125 C50.8282,53.7765 49.9822,51.9825 49.9822,49.4295 L49.9822,41.4885 C49.9822,39.4415 50.7592,37.8495 52.3132,36.7115 C53.8672,35.5745 55.9842,35.0055 58.6622,35.0055 C64.4372,35.0055 67.3252,37.2305 67.3252,41.6775 L67.3252,46.6055 L55.1372,46.6055 L55.1372,49.9225 C55.1372,51.0475 55.4152,51.7835 55.9712,52.1305 C56.5272,52.4785 57.4692,52.6515 58.7952,52.6515 C60.1222,52.6515 60.9052,52.5885 61.1452,52.4625 C61.7142,52.1465 62.0802,51.7645 62.2452,51.3155 C62.4092,50.8675 62.5042,50.2765 62.5292,49.5435 L67.3052,49.5435 C67.2302,52.6775 66.1242,54.6615 63.9892,55.4955 C62.7382,55.9755 61.2212,56.2185 59.4402,56.2245 C57.6582,56.2305 56.2622,56.1205 55.2512,55.8935 Z" id="Fill-1" fill="#FFFFFF"></path>
                <path d="M84.3648,41.4883 C84.3648,39.7323 83.1708,38.8533 80.7818,38.8533 C79.7588,38.8533 78.8428,39.1223 78.0338,39.6593 C77.2248,40.1963 76.8218,40.9323 76.8218,41.8673 L76.8218,55.7983 L71.6658,55.7983 L71.6658,35.4423 L76.8218,35.4423 L76.8218,37.2423 C78.5528,35.7263 80.5738,34.9683 82.8858,34.9683 C85.1988,34.9683 86.8828,35.5623 87.9378,36.7493 C88.9918,37.9373 89.5198,39.4223 89.5198,41.2043 L89.5198,55.7983 L84.3648,55.7983 L84.3648,41.4883 Z" id="Fill-3" fill="#FFFFFF"></path>
                <path d="M99.1304,43.4595 L106.4464,43.4595 L106.4464,41.0715 C106.4464,39.8455 105.9534,39.0935 104.9674,38.8155 C104.4494,38.6645 103.6634,38.5915 102.6084,38.5975 C101.5524,38.6045 100.7094,38.7845 100.0774,39.1385 C99.4454,39.4915 99.1304,40.1675 99.1304,41.1665 L99.1304,43.4595 Z M99.2444,55.8935 C98.2334,55.6785 97.3234,55.3175 96.5144,54.8125 C94.8214,53.7765 93.9744,51.9825 93.9744,49.4295 L93.9744,41.4885 C93.9744,39.4415 94.7524,37.8495 96.3064,36.7115 C97.8604,35.5745 99.9764,35.0055 102.6554,35.0055 C108.4294,35.0055 111.3174,37.2305 111.3174,41.6775 L111.3174,46.6055 L99.1304,46.6055 L99.1304,49.9225 C99.1304,51.0475 99.4084,51.7835 99.9644,52.1305 C100.5204,52.4785 101.4614,52.6515 102.7884,52.6515 C104.1144,52.6515 104.8984,52.5885 105.1384,52.4625 C105.7074,52.1465 106.0734,51.7645 106.2374,51.3155 C106.4014,50.8675 106.4964,50.2765 106.5224,49.5435 L111.2984,49.5435 C111.2224,52.6775 110.1164,54.6615 107.9814,55.4955 C106.7304,55.9755 105.2144,56.2185 103.4324,56.2245 C101.6514,56.2305 100.2554,56.1205 99.2444,55.8935 L99.2444,55.8935 Z" id="Fill-5" fill="#FFFFFF"></path>
                <path d="M115.6587,55.7984 L115.6587,35.4424 L120.8137,35.4424 L120.8137,37.8684 C121.1167,37.2874 121.7487,36.7684 122.7097,36.3144 C124.3647,35.5174 125.9627,35.1194 127.5047,35.1194 C127.6807,35.1194 127.8457,35.1264 127.9967,35.1384 L127.8837,39.5174 C125.6217,39.6314 123.7447,40.0544 122.2547,40.7874 C121.4207,41.1914 120.9397,41.6464 120.8137,42.1514 L120.8137,55.7984 L115.6587,55.7984 Z" id="Fill-7" fill="#FFFFFF"></path>
                <path d="M138.7447,51.7613 C140.4257,51.7613 141.6827,51.4583 142.5167,50.8513 L142.5167,40.0293 C142.5167,39.7253 142.1567,39.4093 141.4357,39.0813 C140.7027,38.7653 139.7677,38.6073 138.6307,38.6073 C136.2807,38.6073 135.1057,39.5543 135.1057,41.4503 L135.1057,49.0513 C135.1057,50.8583 136.3187,51.7613 138.7447,51.7613 M138.4797,64.1573 C135.4847,64.1573 133.2417,63.8033 131.7507,63.0953 L132.8127,59.5893 C134.7207,60.1193 136.4797,60.3853 138.0907,60.3853 C139.7027,60.3853 140.8427,60.0663 141.5117,59.4283 C142.1817,58.7893 142.5167,57.7693 142.5167,56.3663 L142.5167,54.1303 C141.3287,54.8383 139.6447,55.1913 137.4657,55.1913 C135.2857,55.1913 133.4887,54.6323 132.0737,53.5143 C130.6577,52.3963 129.9507,50.8453 129.9507,48.8613 L129.9507,41.5643 C129.9507,39.7323 130.5477,38.1803 131.7417,36.9103 C132.9357,35.6413 134.9227,35.0063 137.7027,35.0063 C138.7767,35.0063 139.8277,35.1863 140.8577,35.5463 C141.8877,35.9063 142.7377,36.3583 143.4077,36.9013 L143.8437,35.4233 L147.6717,35.4233 L147.6717,56.0253 C147.6717,61.4463 144.6077,64.1573 138.4797,64.1573" id="Fill-9" fill="#FFFFFF"></path>
                <g id="Group-13" transform="translate(150.000000, 34.990700)" fill="#FFFFFF">
                    <path d="M2.5816,30.0001 L2.2026,25.7351 C4.0096,25.3811 5.3266,24.6891 6.1546,23.6601 C6.9816,22.6301 7.6166,21.4521 8.0596,20.1251 L0.4016,0.4511 L5.3676,0.4511 L10.6556,14.1171 L14.8826,0.4511 L19.9996,0.4511 L13.8216,18.1541 C12.7596,21.1991 11.7926,23.3881 10.9206,24.7211 C10.0496,26.0541 9.2406,27.0241 8.4956,27.6311 C6.9026,28.9191 4.9316,29.7091 2.5816,30.0001" id="Fill-11"></path>
                </g>
                <path d="M57.1275,23.2344 C59.0795,23.2344 60.0555,22.4514 60.0555,20.8864 L60.0555,14.2544 C60.0555,12.7094 59.1255,11.9374 57.2655,11.9374 C56.6455,11.9374 56.0705,12.0384 55.5425,12.2414 C55.0135,12.4454 54.6175,12.6784 54.3535,12.9424 L54.3535,22.5174 C55.2475,22.9954 56.1725,23.2344 57.1275,23.2344 L57.1275,23.2344 Z M50.2055,32.0164 L50.2055,9.3904 L53.1025,9.3904 L53.5145,10.4584 C54.8055,9.5124 56.3575,9.0404 58.1715,9.0404 C59.9865,9.0404 61.4445,9.5204 62.5475,10.4804 C63.6505,11.4414 64.2025,12.7194 64.2025,14.3154 L64.2025,20.7954 C64.2025,22.2584 63.6435,23.5114 62.5245,24.5534 C61.4065,25.5954 59.7245,26.1154 57.4785,26.1154 C56.3095,26.1154 55.2675,25.9124 54.3535,25.5054 L54.3535,32.0164 L50.2055,32.0164 Z" id="Fill-14" fill="#FFFFFF"></path>
                <path d="M72.5567,21.2828 C72.5567,22.5938 73.2677,23.2498 74.6907,23.2498 C75.2497,23.2498 75.8397,23.1028 76.4597,22.8078 C77.0797,22.5128 77.5677,22.0958 77.9237,21.5568 L77.9237,17.4708 C77.4347,17.8678 76.5767,18.2918 75.3467,18.7438 C74.1167,19.1968 73.3437,19.6138 73.0297,19.9948 C72.7137,20.3758 72.5567,20.8048 72.5567,21.2828 M76.2077,25.4988 C75.3187,25.9098 74.2387,26.1158 72.9687,26.1158 C71.6977,26.1158 70.6227,25.7038 69.7437,24.8808 C68.8647,24.0578 68.4247,23.0058 68.4247,21.7248 C68.4247,20.4448 68.8237,19.4178 69.6217,18.6448 C70.4197,17.8728 71.9467,17.1308 74.2027,16.4198 C75.5757,15.9828 76.5377,15.5908 77.0927,15.2448 C77.6457,14.8998 77.9237,14.4218 77.9237,13.8118 C77.9237,12.5518 77.0637,11.9268 75.3467,11.9368 C74.3807,11.9368 73.7157,12.1228 73.3487,12.4928 C72.9837,12.8648 72.8007,13.4008 72.8007,14.1018 L72.8007,14.7418 L68.9127,14.7418 L68.9127,14.2548 C68.9127,12.6178 69.4557,11.3398 70.5437,10.4198 C71.6317,9.4998 73.3037,9.0398 75.5597,9.0398 C77.8167,9.0398 79.4557,9.5178 80.4767,10.4728 C81.4987,11.4288 82.0097,12.8008 82.0097,14.5898 L82.0097,21.0698 C82.0097,21.8018 82.1007,22.2838 82.2837,22.5178 C82.4667,22.7518 82.8177,22.8678 83.3357,22.8678 L83.1677,25.8868 L82.2987,25.8868 C81.1707,25.8868 80.2917,25.7328 79.6607,25.4228 C79.0307,25.1128 78.5637,24.6218 78.2587,23.9508 C77.7807,24.5708 77.0977,25.0868 76.2077,25.4988" id="Fill-16" fill="#FFFFFF"></path>
                <path d="M94.1446,26.1158 C90.9736,26.1158 88.9256,25.4048 88.0006,23.9818 C87.4206,23.1078 87.1316,22.0398 87.1316,20.7798 L87.1316,14.2238 C87.1316,12.5878 87.7266,11.3148 88.9156,10.4048 C90.1046,9.4948 91.7966,9.0398 93.9926,9.0398 C96.1876,9.0398 97.8426,9.4748 98.9556,10.3438 C100.0676,11.2128 100.6246,12.8008 100.6246,15.1078 L96.7216,15.4128 C96.7216,13.9398 96.5436,12.9888 96.1876,12.5618 C95.9746,12.2978 95.7096,12.1248 95.3946,12.0438 C95.0896,11.9728 94.5616,11.9368 93.8096,11.9368 C92.1226,11.9368 91.2786,12.7048 91.2786,14.2388 L91.2786,20.8558 C91.2786,21.7098 91.4996,22.3148 91.9416,22.6708 C92.3836,23.0268 93.0396,23.2038 93.9086,23.2038 C94.7776,23.2038 95.3896,23.1258 95.7456,22.9678 C96.1016,22.8098 96.3556,22.5108 96.5076,22.0678 C96.6606,21.6258 96.7366,20.9278 96.7366,19.9718 L100.6096,19.9718 C100.5886,21.1708 100.4776,22.1468 100.2736,22.8988 C100.0706,23.6308 99.7146,24.2508 99.2066,24.7588 C98.2916,25.6538 96.6046,26.1058 94.1446,26.1158" id="Fill-18" fill="#FFFFFF"></path>
                <mask id="mask-2" fill="white">
                    <use xlink:href="#path-1"></use>
                </mask>
                <g id="Clip-21"></g>
                <path d="M105.274,25.7657 L109.421,25.7657 L109.421,9.3907 L105.274,9.3907 L105.274,25.7657 Z M105.274,7.0577 L109.421,7.0577 L109.421,3.3837 L105.274,3.3837 L105.274,7.0577 Z" id="Fill-20" fill="#FFFFFF" mask="url(#mask-2)"></path>
                <polygon id="Fill-22" fill="#ADD44C" mask="url(#mask-2)" points="13.594 21.9957 21.996 21.9957 21.996 13.5937 13.594 13.5937"></polygon>
                <polygon id="Fill-23" fill="#ADD44C" mask="url(#mask-2)" points="13.594 49.1837 21.996 49.1837 21.996 40.7817 13.594 40.7817"></polygon>
                <path d="M8.402,27.1877 L27.188,27.1877 L27.188,8.4017 L8.402,8.4017 L8.402,27.1877 Z M0,-0.0003 L0,62.7777 L35.59,62.7837 L35.59,40.7817 L27.188,40.7817 L27.188,54.3757 L8.402,54.3757 L8.402,35.5897 L35.59,35.5897 L35.59,-0.0003 L0,-0.0003 Z" id="Fill-24" fill="#ADD44C" mask="url(#mask-2)"></path>
            </g>
        </g>
    </g>
</svg>