<?xml version="1.0" encoding="UTF-8" standalone="no"?>
<svg width="134px" height="63px" viewBox="0 0 134 63" version="1.1" xmlns="http://www.w3.org/2000/svg" xmlns:xlink="http://www.w3.org/1999/xlink">
    <!-- Generator: Sketch 46 (44423) - http://www.bohemiancoding.com/sketch -->
    <title>TUV NORD</title>
    <desc>Created with Sketch.</desc>
    <defs>
        <polygon id="path-1" points="133.794242 0.128150413 133.794242 61.7950926 0.000102879079 61.7950926 0.000102879079 0.128150413 133.794242 0.128150413"></polygon>
    </defs>
    <g id="1-Home" stroke="none" stroke-width="1" fill="none" fill-rule="evenodd">
        <g id="1.1-Home" transform="translate(-738.000000, -5309.000000)">
            <g id="TUV-NORD" transform="translate(738.000000, 5309.000000)">
                <path d="M106.293459,48.6504263 L106.628387,48.6504263 C107.658935,48.6504263 108.380318,48.9573691 108.818301,49.5712546 C109.256284,50.1851401 109.307811,51.182704 109.02441,52.5383678 C108.714988,53.817296 108.199715,54.7381242 107.452825,55.3264312 C106.705678,55.9147381 105.880982,56.1961023 104.927983,56.1961023 L104.618819,56.1961023 L106.293459,48.6504263 Z M97.7399123,62.0280146 L104.773401,62.0280146 C106.293459,62.0280146 107.684698,61.6187576 109.02441,60.8769793 C110.338359,60.1096224 111.497725,59.0353228 112.450982,57.6029233 C113.430002,56.1961023 114.125622,54.5334957 114.589368,52.589525 C115.104642,50.2107186 115.130406,48.2923264 114.692423,46.8087698 C114.228677,45.3252132 113.404238,44.2509135 112.193345,43.5858709 C110.982451,42.8952497 109.513921,42.5627284 107.787753,42.5883069 L102.11974,42.5883069 L97.7399123,62.0280146 L97.7399123,62.0280146 Z M75.4027894,48.5992692 C76.3045187,48.6248477 76.9486111,49.0085262 77.3093028,49.7503045 C77.6699945,50.4920828 77.7215219,51.4129111 77.4896486,52.5127893 C77.206248,53.6894032 76.7167378,54.6102314 76.0211181,55.3008526 C75.3254983,55.9914738 74.5525875,56.3495737 73.6508582,56.3751523 C72.7748926,56.3495737 72.1308002,55.9914738 71.7701085,55.3008526 C71.3836531,54.6102314 71.3321257,53.6638246 71.563999,52.5127893 C71.8216359,51.4129111 72.2853824,50.4920828 72.9810021,49.7503045 C73.6766219,49.0341048 74.4752964,48.6504263 75.4027894,48.5992692 L75.4027894,48.5992692 Z M76.8970837,42 C75.2739709,42 73.7023856,42.4348356 72.2080913,43.3045067 C70.713797,44.1485993 69.3998486,45.3507917 68.2662461,46.911084 C67.1326435,48.4713764 66.333969,50.3130329 65.8186951,52.410475 C65.3549486,54.5590743 65.3291849,56.4263094 65.7671677,57.9610231 C66.2051505,59.4957369 66.9780614,60.6723508 68.1116639,61.4908648 C69.2452665,62.3093788 70.6107423,62.7186358 72.233855,62.7186358 C73.8569677,62.7186358 75.4285531,62.3093788 76.9228474,61.4908648 C78.4171416,60.6723508 79.73109,59.4957369 80.8389289,57.9610231 C81.9725314,56.4263094 82.771206,54.5846529 83.2864798,52.410475 C83.7502263,50.2874543 83.77599,48.4457978 83.3380072,46.911084 C82.9000244,45.3507917 82.1271136,44.1485993 81.0192747,43.3045067 C79.8856722,42.4348356 78.4944327,42.0255786 76.8970837,42 L76.8970837,42 Z M45.3880856,62.0280146 L51.5198448,62.0280146 L52.936848,55.7101096 C53.0914302,55.0706456 53.1687213,54.4311815 53.2460123,53.7917174 C53.2975397,53.1522533 53.3748308,52.4872107 53.4263582,51.8221681 L53.6067041,51.8221681 L56.9559843,62.0535932 L63.0877435,62.0535932 L67.4418079,42.5883069 L61.3100486,42.5883069 L60.0218639,48.4202192 C59.8415181,49.2387333 59.7126996,50.0828258 59.6354085,50.9013398 C59.5581174,51.7198538 59.50659,52.5639464 59.4550627,53.3568819 L59.2747168,53.3568819 L55.9254365,42.5627284 L49.7421499,42.5627284 L45.3880856,62.0280146 L45.3880856,62.0280146 Z M91.0155881,47.8830694 L91.5050983,47.8830694 C92.0718996,47.8574909 92.5356461,47.9598051 92.8963378,48.1644336 C93.2570295,48.3690621 93.3343206,48.8294762 93.2055021,49.5712546 C93.0251563,50.2618758 92.6902282,50.7222899 92.2264818,50.9269184 C91.7627353,51.1315469 91.2474614,51.2082826 90.7064238,51.2082826 L90.268441,51.2082826 L91.0155881,47.8830694 Z M81.3799665,62.0280146 L87.6663079,62.0280146 L89.1348384,55.7868453 L89.2636569,55.7868453 L90.6291327,62.0280146 L98.0490767,62.0280146 L95.6788168,55.7101096 C95.5499983,55.4287454 95.4211798,55.1985384 95.2923614,55.0194884 C95.1377792,54.8404385 95.0089607,54.6869671 94.8801423,54.5334957 L94.905906,54.3800244 C96.1940907,53.9707674 97.1988747,53.3824604 97.9202582,52.6151035 C98.6416416,51.8477467 99.1826792,50.7478685 99.5176072,49.3154689 C99.8782989,47.6784409 99.8525353,46.3739342 99.4145524,45.3763703 C98.9765696,44.3788063 98.2551862,43.6626066 97.2504021,43.2021924 C96.2456181,42.7417783 95.0604881,42.5371498 93.720776,42.5371498 L85.9401404,42.5371498 L81.3799665,62.0280146 L81.3799665,62.0280146 Z M27.997592,49.8014616 L26.9670442,54.45676 C26.2714244,57.3727162 25.1378219,59.5213155 23.5147092,60.9281364 C21.8915964,62.3093788 19.9593194,63 17.7436416,63 C15.5022002,63 13.8790875,62.3349574 12.9000671,60.9281364 C11.9210467,59.546894 11.7407009,57.3982948 12.3590295,54.45676 L13.3895773,49.8014616 L19.1348811,49.8014616 L18.2589155,53.7661389 C18.052806,54.5846529 17.9755149,55.2752741 18.0012786,55.8380024 C18.052806,56.4007308 18.4134977,56.7076736 19.1606448,56.7332521 C19.907792,56.7076736 20.4230658,56.4007308 20.7322302,55.8380024 C21.0413945,55.2752741 21.2732678,54.5846529 21.4020862,53.7661389 L22.2780518,49.8014616 L27.997592,49.8014616 L27.997592,49.8014616 Z" id="Fill-1" fill="#B4B6B8"></path>
                <g id="Group-5">
                    <mask id="mask-2" fill="white">
                        <use xlink:href="#path-1"></use>
                    </mask>
                    <g id="Clip-4"></g>
                    <path d="M65.8169935,21.0595554 C71.5265251,8.83889421 83.4607555,0.128150413 97.8892891,0.128150413 C117.719489,0.128150413 133.794345,16.1405471 133.794345,35.8934397 C133.794345,44.681043 130.193577,52.2901339 124.921024,58.5157537 C124.663826,58.8231917 124.406629,58.8231917 124.174894,58.6438529 C123.943673,58.464514 123.943673,58.157076 124.149431,57.9264975 L124.174894,57.9008777 C129.113347,52.0595554 131.659604,44.1174066 131.659604,35.8934397 C131.659604,17.3190595 116.536122,2.25459669 97.8892891,2.25459669 C84.3352276,2.25459669 72.1440568,9.99178678 66.7683678,21.4950926 C66.6397689,21.7512909 66.3054119,21.9050099 66.0482142,21.7769107 C65.8169935,21.6488116 65.6883946,21.3413736 65.8169935,21.0595554 M39.2482142,42.2983983 L46.0899301,42.2983983 L36.2649781,61.7950926 L30.7352276,61.7950926 L27.906053,48.4471587 L22.1705443,48.4471587 L23.5336921,42.2983983 L33.4358035,42.2983983 L34.5414964,51.1628612 C34.5931931,51.649638 34.6446326,52.110795 34.6446326,52.5975719 C34.6446326,53.0843488 34.6186557,53.5711256 34.5674733,54.0579025 L34.7217919,54.0579025 C34.798694,53.5711256 34.9018303,53.0843488 35.0558917,52.5975719 C35.2104676,52.110795 35.3902488,51.6240182 35.5962641,51.1628612 L39.2482142,42.2983983 M14.6858342,42.2983983 L20.4216,42.2983983 L19.058195,48.4471587 L11.0596038,48.4471587 L7.8700952,61.7694727 L0.771695969,61.7694727 L3.96094741,48.4471587 L0.000102879079,48.6264975 L1.49159232,42.2727785 L14.6858342,42.2727785" id="Fill-3" fill="#B4B6B8" mask="url(#mask-2)"></path>
                </g>
            </g>
        </g>
    </g>
</svg>