<?xml version="1.0" encoding="UTF-8" standalone="no"?>
<svg width="140px" height="54px" viewBox="0 0 140 54" version="1.1" xmlns="http://www.w3.org/2000/svg" xmlns:xlink="http://www.w3.org/1999/xlink">
    <!-- Generator: Sketch 46 (44423) - http://www.bohemiancoding.com/sketch -->
    <title>Paci_logo-chico-blanco</title>
    <desc>Created with Sketch.</desc>
    <defs></defs>
    <g id="Symbols" stroke="none" stroke-width="1" fill="none" fill-rule="evenodd">
        <g id="Header-scroll-Oscuro" transform="translate(-20.000000, -19.000000)" fill="#FFFFFF">
            <g id="Paci_logo-chico-blanco" transform="translate(20.000000, 18.000000)">
                <path d="M45.4074133,36.7899733 L51.4330133,36.7899733 L51.4330133,34.8225067 C51.4330133,33.8145067 51.02608,33.1947733 50.21408,32.96704 C49.78848,32.8419733 49.1407467,32.78224 48.27088,32.7859733 C47.40288,32.7915733 46.70848,32.93904 46.18768,33.2321067 C45.66688,33.5233067 45.4074133,34.0795733 45.4074133,34.9009067 L45.4074133,36.7899733 Z M45.5007467,47.02864 C44.6682133,46.8531733 43.91968,46.5563733 43.25328,46.1401067 C41.85888,45.28704 41.1626133,43.80864 41.1626133,41.7067733 L41.1626133,35.1659733 C41.1626133,33.48224 41.8010133,32.1699733 43.0815467,31.2329067 C44.36208,30.29584 46.1055467,29.8291733 48.31008,29.8291733 C53.0663467,29.8291733 55.4426133,31.6603733 55.4426133,35.3227733 L55.4426133,39.3809067 L45.4074133,39.3809067 L45.4074133,42.1137067 C45.4074133,43.0395733 45.6370133,43.6443733 46.0943467,43.93184 C46.55168,44.21744 47.3263467,44.3611733 48.4202133,44.3611733 C49.5122133,44.3611733 50.15808,44.3089067 50.3559467,44.2043733 C50.8226133,43.9449067 51.1250133,43.62944 51.26128,43.25984 C51.39568,42.89024 51.47408,42.4049067 51.4946133,41.8001067 L55.42768,41.8001067 C55.36608,44.3817067 54.4551467,46.01504 52.6967467,46.7019733 C51.6663467,47.09584 50.4175467,47.29744 48.9503467,47.30304 C47.4831467,47.30864 46.33328,47.2171733 45.5007467,47.02864 Z" id="Fill-1"></path>
                <path d="M69.4771467,35.1665333 C69.4771467,33.7198667 68.4934133,32.9974667 66.5259467,32.9974667 C65.68408,32.9974667 64.92808,33.2196 64.2635467,33.6601333 C63.5971467,34.1025333 63.26488,34.7092 63.26488,35.4782667 L63.26488,46.9508 L59.0182133,46.9508 L59.0182133,30.1881333 L63.26488,30.1881333 L63.26488,31.6702667 C64.6910133,30.4214667 66.35608,29.798 68.26008,29.798 C70.16408,29.798 71.5491467,30.2870667 72.4190133,31.2652 C73.28888,32.2433333 73.7219467,33.466 73.7219467,34.9332 L73.7219467,46.9508 L69.4771467,46.9508 L69.4771467,35.1665333 Z" id="Fill-3"></path>
                <path d="M81.6369867,36.7899733 L87.6625867,36.7899733 L87.6625867,34.8225067 C87.6625867,33.8145067 87.2556533,33.1947733 86.4436533,32.96704 C86.0180533,32.8419733 85.37032,32.78224 84.5004533,32.7859733 C83.6324533,32.7915733 82.9380533,32.93904 82.4172533,33.2321067 C81.8964533,33.5233067 81.6369867,34.0795733 81.6369867,34.9009067 L81.6369867,36.7899733 Z M81.73032,47.02864 C80.8977867,46.8531733 80.1492533,46.5563733 79.4828533,46.1401067 C78.0884533,45.28704 77.3921867,43.80864 77.3921867,41.7067733 L77.3921867,35.1659733 C77.3921867,33.48224 78.0305867,32.1699733 79.31112,31.2329067 C80.5897867,30.29584 82.3332533,29.8291733 84.5396533,29.8291733 C89.29592,29.8291733 91.6721867,31.6603733 91.6721867,35.3227733 L91.6721867,39.3809067 L81.6369867,39.3809067 L81.6369867,42.1137067 C81.6369867,43.0395733 81.8665867,43.6443733 82.32392,43.93184 C82.7812533,44.21744 83.55592,44.3611733 84.6497867,44.3611733 C85.7417867,44.3611733 86.3857867,44.3089067 86.5836533,44.2043733 C87.0521867,43.9449067 87.3545867,43.62944 87.4908533,43.25984 C87.6252533,42.89024 87.7036533,42.4049067 87.7241867,41.8001067 L91.6572533,41.8001067 C91.5956533,44.3817067 90.68472,46.01504 88.92632,46.7019733 C87.89592,47.09584 86.64712,47.29744 85.17992,47.30304 C83.71272,47.30864 82.5628533,47.2171733 81.73032,47.02864 L81.73032,47.02864 Z" id="Fill-5"></path>
                <path d="M95.2485333,46.9517333 L95.2485333,30.1872 L99.4933333,30.1872 L99.4933333,32.1845333 C99.7434667,31.7066667 100.264267,31.2792 101.053867,30.9058667 C102.4184,30.2506667 103.7344,29.9221333 105.003733,29.9221333 C105.149333,29.9221333 105.283733,29.9277333 105.4088,29.9370667 L105.315467,33.5434667 C103.452533,33.6368 101.906933,33.9858667 100.680533,34.5888 C99.9936,34.9229333 99.5978667,35.2962667 99.4933333,35.7125333 L99.4933333,46.9517333 L95.2485333,46.9517333 Z" id="Fill-7"></path>
                <path d="M114.26072,43.6268267 C115.64392,43.6268267 116.67992,43.3766933 117.366853,42.8782933 L117.366853,33.96496 C117.366853,33.7148267 117.070053,33.45536 116.476453,33.1846933 C115.87352,32.9252267 115.102587,32.79456 114.167387,32.79456 C112.231653,32.79456 111.26472,33.5748267 111.26472,35.13536 L111.26472,41.3942933 C111.26472,42.8838933 112.263387,43.6268267 114.26072,43.6268267 M114.04232,53.8356267 C111.576453,53.8356267 109.728453,53.54256 108.500187,52.96016 L109.375653,50.0742933 C110.94552,50.5110933 112.394053,50.7294933 113.721253,50.7294933 C115.048453,50.7294933 115.987387,50.4662933 116.53992,49.9398933 C117.090587,49.41536 117.366853,48.57536 117.366853,47.4198933 L117.366853,45.5774933 C116.38872,46.1598933 115.001787,46.45296 113.20792,46.45296 C111.412187,46.45296 109.93192,45.9918933 108.76712,45.06976 C107.600453,44.1494933 107.018053,42.8726933 107.018053,41.23936 L107.018053,35.2286933 C107.018053,33.7204267 107.508987,32.4436267 108.49272,31.3964267 C109.476453,30.3510933 111.111653,29.8284267 113.402053,29.8284267 C114.286853,29.8284267 115.152987,29.97776 116.000453,30.2726933 C116.84792,30.5694933 117.54792,30.9428267 118.100453,31.38896 L118.458853,30.1718933 L121.611653,30.1718933 L121.611653,47.1380267 C121.611653,51.6030933 119.08792,53.8356267 114.04232,53.8356267" id="Fill-9"></path>
                <path d="M125.655787,54.52144 L125.344053,51.01024 C126.831787,50.7171733 127.91632,50.14784 128.597653,49.3003733 C129.278987,48.4529067 129.801653,47.48224 130.16752,46.39024 L123.860053,30.1875733 L127.94992,30.1875733 L132.304853,41.4417067 L135.786187,30.1875733 L140.00112,30.1875733 L134.91072,44.76624 C134.03712,47.2731733 133.240053,49.0763733 132.523253,50.1739733 C131.804587,51.2715733 131.140053,52.0723733 130.52592,52.5707733 C129.213653,53.63104 127.59152,54.2825067 125.655787,54.52144" id="Fill-11"></path>
                <path d="M47.04616,20.1338933 C48.65336,20.1338933 49.4578933,19.4898933 49.4578933,18.2000267 L49.4578933,12.73816 C49.4578933,11.46696 48.6906933,10.8304267 47.1600267,10.8304267 C46.64856,10.8304267 46.1762933,10.9144267 45.74136,11.08056 C45.30456,11.24856 44.97976,11.4408267 44.76136,11.6592267 L44.76136,19.5440267 C45.4968267,19.9378933 46.2602933,20.1338933 47.04616,20.1338933 L47.04616,20.1338933 Z M41.34536,27.3672267 L41.34536,8.73416 L43.73096,8.73416 L44.0706933,9.61149333 C45.1346933,8.83309333 46.41336,8.44482667 47.9066933,8.44482667 C49.4000267,8.44482667 50.60216,8.84056 51.50936,9.63202667 C52.4184267,10.4216267 52.8720267,11.4744267 52.8720267,12.78856 L52.8720267,18.12536 C52.8720267,19.3312267 52.4128267,20.3634933 51.4906933,21.2202933 C50.5704267,22.07896 49.18536,22.5064267 47.3354933,22.5064267 C46.3722933,22.5064267 45.5154933,22.3402933 44.76136,22.0042933 L44.76136,27.3672267 L41.34536,27.3672267 Z" id="Fill-14"></path>
                <path d="M59.7527467,18.5270667 C59.7527467,19.6078667 60.3370133,20.1473333 61.50928,20.1473333 C61.9703467,20.1473333 62.45568,20.026 62.9671467,19.7833333 C63.4767467,19.5388 63.87808,19.1972 64.1730133,18.7529333 L64.1730133,15.3873333 C63.7698133,15.714 63.0623467,16.0649333 62.0487467,16.4364 C61.0370133,16.8097333 60.40048,17.1532 60.1410133,17.4668 C59.8815467,17.7804 59.7527467,18.1350667 59.7527467,18.5270667 M62.7599467,21.9990667 C62.0263467,22.3388 61.1378133,22.5068 60.0906133,22.5068 C59.04528,22.5068 58.1586133,22.1689333 57.4362133,21.4894667 C56.7119467,20.8118667 56.3498133,19.9457333 56.3498133,18.8910667 C56.3498133,17.8364 56.6783467,16.9908 57.3354133,16.3542667 C57.99248,15.7196 59.2506133,15.1073333 61.1079467,14.5212 C62.2391467,14.1628 63.0306133,13.8398667 63.4879467,13.5542667 C63.9434133,13.2705333 64.1730133,12.8766667 64.1730133,12.3745333 C64.1730133,11.3366667 63.46368,10.8233333 62.0487467,10.8308 C61.2554133,10.8308 60.7066133,10.982 60.40608,11.2881333 C60.10368,11.5942667 59.95248,12.0348 59.95248,12.6134667 L59.95248,13.1398667 L56.7511467,13.1398667 L56.7511467,12.7385333 C56.7511467,11.3908 57.1991467,10.338 58.0951467,9.582 C58.9911467,8.82413333 60.3687467,8.4452 62.22608,8.4452 C64.0834133,8.4452 65.4330133,8.83906667 66.27488,9.62493333 C67.1167467,10.4126667 67.5367467,11.542 67.5367467,13.0148 L67.5367467,18.3516 C67.5367467,18.9545333 67.6114133,19.3521333 67.7626133,19.5444 C67.9138133,19.7366667 68.2031467,19.8337333 68.6287467,19.8337333 L68.4906133,22.3182667 L67.77568,22.3182667 C66.84608,22.3182667 66.1218133,22.1913333 65.60288,21.9356 C65.0839467,21.6798667 64.6994133,21.2766667 64.44928,20.7241333 C64.0554133,21.2356 63.49168,21.6593333 62.7599467,21.9990667" id="Fill-16"></path>
                <path d="M77.5306933,22.50736 C74.9192267,22.50736 73.23176,21.9212267 72.4720267,20.74896 C71.99416,20.0302933 71.7552267,19.1510933 71.7552267,18.1132267 L71.7552267,12.71296 C71.7552267,11.3652267 72.2442933,10.3180267 73.2242933,9.56762667 C74.2042933,8.81909333 75.5968267,8.44389333 77.4056267,8.44389333 C79.21256,8.44389333 80.5752267,8.80229333 81.49176,9.51909333 C82.4082933,10.2340267 82.8674933,11.5406933 82.8674933,13.4428267 L79.6530933,13.69296 C79.6530933,12.4796267 79.5074933,11.6956267 79.21256,11.3446933 C79.0370933,11.12816 78.8186933,10.9862933 78.5610933,10.9190933 C78.3090933,10.85936 77.87416,10.83136 77.2544267,10.83136 C75.8656267,10.83136 75.16936,11.4622933 75.16936,12.7260267 L75.16936,18.1748267 C75.16936,18.87856 75.3522933,19.37696 75.7162933,19.6700267 C76.0802933,19.9630933 76.6216267,20.1086933 77.33656,20.1086933 C78.0514933,20.1086933 78.5554933,20.0452267 78.8504267,19.91456 C79.1416267,19.78576 79.35256,19.5374933 79.47576,19.1734933 C79.6026933,18.8094933 79.66616,18.23456 79.66616,17.4468267 L82.8544267,17.4468267 C82.8376267,18.4342933 82.74616,19.2388267 82.57816,19.85856 C82.41016,20.4596267 82.11896,20.9710933 81.69896,21.3892267 C80.9466933,22.12656 79.5560267,22.4998933 77.5306933,22.50736" id="Fill-18"></path>
                <path d="M86.6973333,22.2191467 L90.1133333,22.2191467 L90.1133333,8.73434667 L86.6973333,8.73434667 L86.6973333,22.2191467 Z M86.6973333,6.81354667 L90.1133333,6.81354667 L90.1133333,3.78768 L86.6973333,3.78768 L86.6973333,6.81354667 Z" id="Fill-20"></path>
                <polygon id="Fill-22" points="11.1944 19.11488 18.1141333 19.11488 18.1141333 12.1951467 11.1944 12.1951467"></polygon>
                <polygon id="Fill-23" points="11.1944 41.5055467 18.1141333 41.5055467 18.1141333 34.5858133 11.1944 34.5858133"></polygon>
                <path d="M6.91973333,23.3895467 L22.3906667,23.3895467 L22.3906667,7.91861333 L6.91973333,7.91861333 L6.91973333,23.3895467 Z M0,0.99888 L0,52.6999467 L29.3085333,52.70368 L29.3085333,52.6999467 L29.3085333,34.5858133 L22.3906667,34.5858133 L22.3906667,45.7802133 L6.91973333,45.7802133 L6.91973333,30.30928 L29.3085333,30.30928 L29.3085333,0.99888 L0,0.99888 Z" id="Fill-24"></path>
            </g>
        </g>
    </g>
</svg>