<?xml version="1.0" encoding="UTF-8" standalone="no"?>
<svg width="219px" height="241px" viewBox="0 0 219 241" version="1.1" xmlns="http://www.w3.org/2000/svg" xmlns:xlink="http://www.w3.org/1999/xlink">
    <!-- Generator: Sketch 46 (44423) - http://www.bohemiancoding.com/sketch -->
    <title>Pago realizado</title>
    <desc>Created with Sketch.</desc>
    <defs></defs>
    <g id="1-Home" stroke="none" stroke-width="1" fill="none" fill-rule="evenodd">
        <g id="1.5-Confirmación-de-pago" transform="translate(-530.000000, -428.000000)">
            <g id="Pago-realizado" transform="translate(532.000000, 429.000000)">
                <g id="Group-17" transform="translate(0.000000, 2.000000)">
                    <path d="M88.6832385,213.065264 L8.11185385,132.339339 C-2.44841538,121.758815 -2.44841538,104.606826 8.11185385,94.0286908 L88.6832385,13.3015719 C99.2423154,2.72224216 116.362662,2.72224216 126.920546,13.3015719 L207.493123,94.0286908 C218.0522,104.606826 218.0522,121.758815 207.493123,132.339339 L126.920546,213.065264 C116.362662,223.644594 99.2423154,223.644594 88.6832385,213.065264" id="Fill-1" fill="#CDFFFF"></path>
                    <path d="M88.6832385,213.065264 L8.11185385,132.339339 C-2.44841538,121.758815 -2.44841538,104.606826 8.11185385,94.0286908 L88.6832385,13.3015719 C99.2423154,2.72224216 116.362662,2.72224216 126.920546,13.3015719 L207.493123,94.0286908 C218.0522,104.606826 218.0522,121.758815 207.493123,132.339339 L126.920546,213.065264 C116.362662,223.644594 99.2423154,223.644594 88.6832385,213.065264 Z" id="Stroke-3" stroke="#555554" stroke-width="3" stroke-linecap="round" stroke-linejoin="round"></path>
                    <polygon id="Fill-5" fill="#F9F8C6" points="167.510635 154.302558 48.0938654 154.302558 48.0938654 0.164017838 121.668788 0.164017838 167.510635 46.0937908"></polygon>
                    <polygon id="Fill-7" fill="#D4D3A8" points="121.668431 0.163778919 121.668431 46.0935519 167.510277 46.0935519"></polygon>
                    <path d="M138.65655,71.9129222 L76.9474731,71.9129222 C74.3184346,71.9129222 72.1865885,69.776987 72.1865885,67.1429059 C72.1865885,64.5076303 74.3184346,62.3716951 76.9474731,62.3716951 L138.65655,62.3716951 C141.286781,62.3716951 143.418627,64.5076303 143.418627,67.1429059 C143.418627,69.776987 141.286781,71.9129222 138.65655,71.9129222" id="Fill-9" fill="#555554"></path>
                    <path d="M138.65655,97.7320535 L76.9474731,97.7320535 C74.3184346,97.7320535 72.1865885,95.5961184 72.1865885,92.9620373 C72.1865885,90.3267616 74.3184346,88.1908265 76.9474731,88.1908265 L138.65655,88.1908265 C141.286781,88.1908265 143.418627,90.3267616 143.418627,92.9620373 C143.418627,95.5961184 141.286781,97.7320535 138.65655,97.7320535" id="Fill-11" fill="#555554"></path>
                    <path d="M96.07805,123.551185 L76.9474731,123.551185 C74.3184346,123.551185 72.1865885,121.41525 72.1865885,118.781169 C72.1865885,116.145893 74.3184346,114.009958 76.9474731,114.009958 L96.07805,114.009958 C98.7070885,114.009958 100.838935,116.145893 100.838935,118.781169 C100.838935,121.41525 98.7070885,123.551185 96.07805,123.551185" id="Fill-13" fill="#555554"></path>
                    <path d="M143.2616,130.5005 C142.415062,129.670257 141.055831,129.683397 140.227177,130.531559 C137.760292,133.055738 134.459985,134.445051 130.935523,134.445051 C125.7311,134.445051 121.231331,131.366581 119.154331,126.931051 L131.923946,126.931051 C133.1091,126.931051 134.0701,125.968208 134.0701,124.780781 C134.0701,123.594549 133.1091,122.631705 131.923946,122.631705 L117.985869,122.631705 C117.948908,122.229127 117.928638,121.822965 117.928638,121.413219 C117.928638,120.729911 117.9811,120.059743 118.082446,119.4063 L134.254908,119.4063 C135.440062,119.4063 136.401062,118.443457 136.401062,117.25603 C136.401062,116.068603 135.440062,115.105759 134.254908,115.105759 L119.556138,115.105759 C121.777408,111.099089 126.045869,108.380192 130.935523,108.380192 C134.459985,108.380192 137.760292,109.769505 140.227177,112.292489 C141.055831,113.140651 142.415062,113.153792 143.2616,112.323549 C144.108138,111.492111 144.122446,110.130273 143.2926,109.282111 C140.011369,105.927689 135.623677,104.080846 130.935523,104.080846 C123.615946,104.080846 117.3456,108.658532 114.821485,115.105759 L111.106254,115.105759 C109.9211,115.105759 108.9601,116.068603 108.9601,117.25603 C108.9601,118.443457 109.9211,119.4063 111.106254,119.4063 L113.753177,119.4063 C113.678062,120.064522 113.636331,120.733495 113.636331,121.413219 C113.636331,121.82177 113.651831,122.227932 113.679254,122.631705 L111.106254,122.631705 C109.9211,122.631705 108.9601,123.594549 108.9601,124.780781 C108.9601,125.968208 109.9211,126.931051 111.106254,126.931051 L114.536523,126.931051 C116.842446,133.790414 123.321446,138.744397 130.935523,138.744397 C135.623677,138.744397 140.011369,136.896359 143.2926,133.541938 C144.122446,132.693776 144.108138,131.331938 143.2616,130.5005" id="Fill-15" fill="#555554"></path>
                </g>
                <polyline id="Stroke-18" stroke="#555554" stroke-width="3" stroke-linecap="round" stroke-linejoin="round" points="168 79 168 156 48 156 48 146.154646"></polyline>
                <g id="Group-23" transform="translate(48.000000, 0.000000)" stroke-linecap="round" stroke-width="3" stroke="#555554" stroke-linejoin="round">
                    <polyline id="Stroke-19" points="0.170841176 128.835725 0.170841176 69.4078349 0.170841176 59.3560917 0.170841176 48.5553578 0.170841176 0.837009174 74.2284294 0.837009174 120.370743 46.8474679 120.370743 54.9038899 120.370743 63.785633"></polyline>
                    <polygon id="Stroke-21" points="74.2284294 14.7538073 74.2284294 0.836651376 120.370743 46.8471101 74.2284294 46.8471101 74.2284294 26.5420642"></polygon>
                </g>
                <path d="M96.3689285,235.631109 L96.3689285,235.631109 C91.8770238,231.137808 91.8770238,223.85282 96.3689285,219.35952 L171.359303,144.369975 C175.852653,139.876675 183.137721,139.876675 187.631072,144.369975 C192.122976,148.86183 192.122976,156.146818 187.631072,160.641564 L112.640697,235.631109 C108.145901,240.122964 100.862279,240.122964 96.3689285,235.631109" id="Fill-23" fill="#00FF92"></path>
                <path d="M66.3604093,190.361491 L66.3604093,190.361491 C70.8423972,185.879503 78.1090435,185.879503 82.5910314,190.361491 L111.637428,219.409329 C116.120857,223.889875 116.120857,231.156521 111.637428,235.638509 C107.156882,240.120497 99.8902354,240.120497 95.4082476,235.638509 L66.3604093,206.590671 C61.8798636,202.108683 61.8798636,194.842037 66.3604093,190.361491" id="Fill-25" fill="#00FF92"></path>
                <path d="M104.03276,237.105089 L104.103681,237.105089 C106.814585,237.105089 109.340227,236.060026 111.24061,234.159517 C111.51995,233.880159 111.790606,233.566061 112.095999,233.166563 C112.135078,233.11735 112.177051,233.069584 112.221919,233.024712 L186.161715,159.080006 C190.0884,155.153059 190.0884,148.763991 186.161715,144.837045 C182.233582,140.910098 175.84349,140.910098 171.918252,144.837045 L105.066175,211.693562 C104.523415,212.236358 103.562369,212.236358 103.019609,211.693562 L82.0878992,190.759015 C78.1612136,186.833516 71.7711224,186.832068 67.8444367,190.759015 C65.9426066,192.662419 64.8947185,195.192571 64.8947185,197.881943 C64.8947185,200.572762 65.9426066,203.101467 67.8444367,205.003423 L95.8624174,233.024712 C95.9087329,233.069584 95.9507063,233.11735 95.9883376,233.166563 C96.2937304,233.566061 96.565834,233.880159 96.843727,234.159517 C98.7470044,236.060026 101.272646,237.105089 103.963287,237.105089 L104.03276,237.105089 Z M104.122497,240 L103.943024,240 C100.499756,240 97.2475402,238.655314 94.7971609,236.206219 C94.4512421,235.860278 94.1082179,235.465122 93.7507202,235.004831 L65.7978707,207.050125 C63.3489388,204.602478 62,201.345704 62,197.881943 C62,194.41963 63.3489388,191.162855 65.7978707,188.712313 C70.8520493,183.657799 79.077392,183.657799 84.1344652,188.712313 L104.042892,208.623509 L169.871686,142.790343 C174.925865,137.737276 183.154102,137.735829 188.208281,142.790343 C193.263906,147.844857 193.263906,156.072194 188.208281,161.126708 L114.335064,235.004831 C113.977566,235.465122 113.634542,235.860278 113.288623,236.206219 C110.839691,238.653866 107.587475,240 104.122497,240 L104.122497,240 Z" id="Fill-27" fill="#555554"></path>
            </g>
        </g>
    </g>
</svg>