<?xml version="1.0" encoding="UTF-8" standalone="no"?>
<svg width="155px" height="50px" viewBox="0 0 155 50" version="1.1" xmlns="http://www.w3.org/2000/svg" xmlns:xlink="http://www.w3.org/1999/xlink">
    <!-- Generator: Sketch 46 (44423) - http://www.bohemiancoding.com/sketch -->
    <title>sodexo</title>
    <desc>Created with Sketch.</desc>
    <defs>
        <polygon id="path-1" points="25.7429865 0.103541814 25.7429865 22.6290941 0.143164533 22.6290941 0.143164533 0.103541814 25.7429865 0.103541814"></polygon>
        <polygon id="path-3" points="24.9781151 23 0.66660361 23 0.66660361 0.178489465 24.9781151 0.178489465 24.9781151 23"></polygon>
        <polygon id="path-5" points="1.68524772e-15 21.5022021 1.68524772e-15 0.119872134 25.64588 0.119872134 25.64588 21.5022021"></polygon>
    </defs>
    <g id="1-Home" stroke="none" stroke-width="1" fill="none" fill-rule="evenodd">
        <g id="1.1-Home" transform="translate(-563.000000, -5427.000000)">
            <g id="sodexo" transform="translate(540.000000, 5399.000000)">
                <rect id="Rectangle-5" x="0" y="0" width="200" height="120"></rect>
                <path d="M96.5207618,59.4702364 C96.3198975,59.4159647 96.1916145,59.3546902 96.0616436,59.3494381 C94.7754374,59.2986678 93.4858553,59.1813709 92.204713,59.2338919 C90.2315174,59.3126734 88.3275272,59.72934 86.5906425,60.7937656 C83.2097095,62.863093 82.1226796,67.3956554 82.4568906,70.2177839 C82.6729463,72.043764 83.7025864,73.2482457 85.4057124,73.7699543 C86.0066171,73.9520271 86.6463443,74.0605705 87.2725681,74.0903324 C90.8408618,74.2566489 93.6833437,72.8595903 94.6690975,68.7506973 C95.3999732,65.7097313 95.9029777,62.6144936 96.5207618,59.4702364 M104,47 C103.805888,48.085434 103.64047,49.0675767 103.458173,50.0479688 C102.396462,55.830531 101.351631,61.6165946 100.259537,67.3904033 C99.7278375,70.2020276 98.6897577,72.7703045 96.6254137,74.7853603 C94.8277634,76.5430631 92.643576,77.4464243 90.2399571,77.7790574 C87.6287223,78.1414523 85.0225512,78.1326988 82.4974011,77.1803179 C78.3923441,75.6309484 76.6520835,71.991243 77.0571878,67.9926441 C77.696915,61.6568607 81.7952203,57.4079117 88.1891166,56.1509091 C90.861117,55.6274498 93.5533727,55.7289904 96.2456284,55.8585422 C97.3647291,55.9110632 97.3546015,55.9338223 97.5605295,54.8186264 C97.9943287,52.4814418 98.4331917,50.146008 98.888934,47.8158262 C98.9260686,47.6337534 99.1066776,47.3518907 99.2400244,47.3413865 C100.791236,47.2048319 102.347512,47.1102941 104,47" id="Fill-1" fill="#B4B6B8"></path>
                <g id="Group-5" transform="translate(152.000000, 55.000000)">
                    <mask id="mask-2" fill="white">
                        <use xlink:href="#path-1"></use>
                    </mask>
                    <g id="Clip-4"></g>
                    <path d="M14.8239176,3.65108571 C13.126627,3.75581786 11.5695257,4.19394732 10.1893297,5.16795625 C7.13353919,7.32369286 5.76669459,10.4447107 5.74499865,14.2168134 C5.7316473,16.4249161 6.99335,18.0308089 9.0043973,18.5370143 C11.5945595,19.1898446 14.0462014,18.7726616 16.2007757,17.1126571 C18.9194446,15.0145232 20.1561135,12.0872598 20.0760054,8.59967946 C20.0292757,6.55914821 19.0946811,4.97943839 17.202127,4.22536696 C16.4494446,3.92513482 15.618323,3.8361125 14.8239176,3.65108571 M10.6666405,22.6250589 C8.11653243,22.6460054 5.85347838,22.2689696 3.81405946,20.9755277 C1.05366757,19.2230098 -0.0745216216,16.56805 0.177485135,13.2777152 C0.673154054,6.77210357 5.40287027,1.81827321 11.7347486,0.509121429 C14.6803905,-0.0965794643 17.6110122,-0.0913428571 20.474877,0.98914375 C24.2566473,2.41699196 26.2560122,5.93599196 25.6318365,10.093858 C24.7089243,16.2294161 21.1507892,19.9456616 15.6683905,21.84655 C13.9861203,22.4295589 12.2387622,22.6634607 10.6666405,22.6250589" id="Fill-3" fill="#B4B6B8" mask="url(#mask-2)"></path>
                </g>
                <path d="M60.0575653,73.3371515 C60.0730708,73.297581 60.0885763,73.2562901 60.1040818,73.2167196 C60.6846768,73.1547832 61.2738859,73.127256 61.8458668,73.0188673 C62.3782224,72.9208014 62.9088552,72.7745627 63.4136455,72.5801513 C67.2641791,71.10056 69.2574979,67.2295365 69.2730034,63.6681947 C69.2833404,61.139126 67.9205788,59.365337 65.7015689,58.8079096 C64.0200831,58.3846777 62.3713311,58.5429595 60.76565,59.1554415 C56.4051576,60.8156805 54.3205286,65.5778997 54.7426229,69.3697824 C54.9062921,70.8235668 55.6557248,71.9951966 57.0460517,72.5474626 C58.0039473,72.9294036 59.0497075,73.0842446 60.0575653,73.3371515 M59.5114269,77 C57.4750374,76.9208591 55.5127296,76.6214999 53.6537919,75.7870793 C50.5389084,74.386629 48.7764494,71.5874488 49.0228146,68.1912708 C49.4414632,62.4053808 52.5735751,58.5291959 57.81099,56.3356158 C61.4358323,54.8181746 65.2312352,54.5773109 69.0249153,55.6973271 C72.4051153,56.6969114 74.5724402,58.88533 74.9445723,62.5017263 C75.2064431,65.0497201 74.5242009,67.4342706 73.2406897,69.6261302 C71.0234025,73.4094106 67.6156372,75.5530974 63.4033085,76.4787022 C62.1301344,76.7591363 60.8104436,76.8313954 59.5114269,77" id="Fill-6" fill="#B4B6B8"></path>
                <g id="Group-10" transform="translate(102.000000, 55.000000)">
                    <mask id="mask-4" fill="white">
                        <use xlink:href="#path-3"></use>
                    </mask>
                    <g id="Clip-9"></g>
                    <path d="M7.00482353,9.40594241 C7.23952941,9.4687817 7.37364706,9.51591116 7.51482353,9.54034866 C10.0418824,9.95054955 12.576,10.0570272 15.1136471,9.67999152 C16.3224706,9.50194688 17.4995294,9.17378616 18.5089412,8.42844241 C19.5324706,7.67262545 19.986,6.5170808 19.6807059,5.35280848 C19.3683529,4.16933527 18.4295294,3.71724152 17.3371765,3.54094241 C14.886,3.14645134 12.6024706,3.63694688 10.5342353,4.99497366 C8.90364706,6.06498705 7.77776471,7.55043795 7.00482353,9.40594241 M6.29188235,12.610746 C5.82952941,15.2325406 7.04188235,17.7583308 9.36952941,19.0919201 C11.3777647,20.2422281 13.5977647,20.5965719 15.8689412,20.6716299 C17.4395294,20.7222504 19.0118824,20.6803576 20.7095294,20.6803576 C19.806,21.0975406 18.9854118,21.5531254 18.1136471,21.8708129 C13.8907059,23.3999022 9.67482353,23.4679781 5.57188235,21.5147237 C1.96835294,19.7971165 0.323647059,16.5224915 0.726,12.5845629 C1.31364706,6.84524152 5.58423529,2.0153442 12.2124706,0.634625446 C14.8930588,0.0743084821 17.5912941,-0.016459375 20.2771765,0.625897768 C20.8365882,0.758558482 21.3889412,0.950567411 21.9112941,1.18796027 C25.8342353,2.97713438 25.6683529,7.50854509 23.2436471,9.8650183 C21.5354118,11.5250228 19.3895294,12.2930585 17.1112941,12.7434067 C13.7177647,13.4136924 10.3189412,13.2897594 6.92717647,12.6875496 C6.72776471,12.6508933 6.52482353,12.6386746 6.29188235,12.610746" id="Fill-8" fill="#B4B6B8" mask="url(#mask-4)"></path>
                </g>
                <g id="Group-13" transform="translate(23.000000, 55.000000)">
                    <mask id="mask-6" fill="white">
                        <use xlink:href="#path-5"></use>
                    </mask>
                    <g id="Clip-12"></g>
                    <path d="M-0.00052,20.2699538 C0.25948,19.2799538 0.510813333,18.3288769 0.777746667,17.3151846 C1.69988,17.4336462 2.58041333,17.5605692 3.46268,17.6587231 C6.46134667,17.9887231 9.46521333,18.2087231 12.45868,17.6993385 C13.2889467,17.5605692 14.1001467,17.2525692 14.8784133,16.9293385 C15.5856133,16.6382615 16.12468,16.1119538 16.4332133,15.4011846 C16.9948133,14.1133385 16.57708,13.0336462 15.2337467,12.5547231 C14.4208133,12.2670308 13.5524133,12.1164154 12.69788,11.9539538 C10.94548,11.6222615 9.13588,11.4868769 7.44241333,10.9774923 C4.00694667,9.94687692 3.11948,6.44549231 5.50628,3.78518462 C6.73001333,2.42118462 8.32988,1.67487692 10.0597467,1.1418 C12.8885467,0.271953846 15.8057467,0.0485692308 18.74028,0.138261538 C20.92948,0.207646154 23.11348,0.480107692 25.3009467,0.662876923 C25.3945467,0.671338462 25.4881467,0.7018 25.64588,0.733953846 C25.3165467,1.62410769 25.01668,2.48210769 24.6700133,3.32487692 C24.6249467,3.43656923 24.36148,3.52287692 24.1985467,3.52118462 C21.7597467,3.47887692 19.3140133,3.31133846 16.8804133,3.40949231 C15.27708,3.4738 13.6824133,3.88333846 12.0981467,4.21672308 C11.6284133,4.31487692 11.1673467,4.62287692 10.7825467,4.93256923 C9.81708,5.70426154 9.89161333,6.94810769 11.0096133,7.47610769 C11.85028,7.87718462 12.8036133,8.08533846 13.72748,8.27995385 C15.3932133,8.63364615 17.0988133,8.81810769 18.7420133,9.24626154 C22.2104133,10.1516462 23.2729467,12.2856462 22.21388,15.7785692 C21.5725467,17.8888769 19.9917467,19.1818 18.0036133,20.0634923 C15.8369467,21.0230308 13.5281467,21.3631846 11.18468,21.4647231 C7.57068,21.6221077 3.99654667,21.2853385 0.481346667,20.4256462 C0.32708,20.3867231 0.179746667,20.3274923 -0.00052,20.2699538" id="Fill-11" fill="#B4B6B8" mask="url(#mask-6)"></path>
                </g>
                <path d="M153,49 C150.710945,55.9297687 147.135886,62.0035473 141.746188,67.0320631 C144.806167,70.3417779 147.833955,73.6173896 150.912572,76.9475663 C150.707557,76.9663231 150.563538,76.9936057 150.41613,76.9936057 C148.645544,76.997016 146.874958,77.0123624 145.104371,76.9782592 C144.806167,76.9731437 144.431718,76.8282052 144.230091,76.6150602 C142.347679,74.6336647 140.492375,72.6232815 138.633683,70.6214241 C138.443917,70.4185101 138.267706,70.2053652 138.064385,69.9700531 C133.491359,73.0563921 128.543883,74.9508244 123,75.1145197 C127.281599,72.5687164 131.363267,69.7432669 135.260251,66.5460926 C132.528973,63.0488102 129.953575,59.5088988 127.598441,55.6467122 C128.704846,55.6467122 129.702813,55.7353805 130.678753,55.6245452 C131.869875,55.4898376 132.559471,55.9638719 133.2694,56.9119407 C134.924771,59.1115966 136.746188,61.1850707 138.501525,63.3062893 C138.576076,63.3949576 138.676042,63.4614588 138.865808,63.6302696 C141.298882,61.2515719 143.774314,58.9325548 146.127753,56.4958817 C148.467638,54.0762602 150.687225,51.5338672 153,49" id="Fill-14" fill="#B4B6B8"></path>
                <path d="M164.400936,37.3816014 C165.916284,38.5536627 167.383743,39.6899489 169,40.9403748 C167.992619,41.0255537 167.149428,41.0988075 166.307949,41.1669506 C165.348456,41.2453152 164.388964,41.3492334 163.427761,41.3781942 C162.906112,41.3935264 162.805203,41.6235094 162.7881,42.0749574 C162.714556,43.9931857 162.610226,45.9097104 162.511027,48 C161.330903,46.3339012 160.231164,44.7836457 159.074984,43.1465077 C157.439914,44.6473595 155.84076,46.1141397 154.243316,47.5826235 L154.121883,47.528109 C154.713656,45.4633731 155.305428,43.3986371 155.919435,41.2521295 C153.950851,40.9829642 152.060942,40.7240204 150,40.4412266 C152.011342,39.2981261 153.867045,38.241908 155.760374,37.1635434 C154.982177,35.3100511 154.221082,33.4974446 153.400126,31.5451448 C155.243856,32.3798978 156.94905,33.1516184 158.717526,33.9522998 C159.688991,31.9420784 160.641642,29.9710392 161.592583,28 C161.638761,28 161.681519,28 161.727698,28.0017036 C162.00135,29.9931857 162.275002,31.9846678 162.560627,34.0630324 C164.539472,33.3764906 166.455036,32.713799 168.36889,32.0494037 C168.401386,32.0919932 168.430462,32.1311755 168.461248,32.1720613 C167.118643,33.8960818 165.777748,35.6166951 164.400936,37.3816014" id="Fill-16" fill="#B4B6B8"></path>
            </g>
        </g>
    </g>
</svg>