<?xml version="1.0" encoding="UTF-8" standalone="no"?>
<svg width="133px" height="33px" viewBox="0 0 133 33" version="1.1" xmlns="http://www.w3.org/2000/svg" xmlns:xlink="http://www.w3.org/1999/xlink">
    <!-- Generator: Sketch 46 (44423) - http://www.bohemiancoding.com/sketch -->
    <title>Synthon</title>
    <desc>Created with Sketch.</desc>
    <defs>
        <polygon id="path-1" points="0 0.340740741 0 22.9148148 16.4636947 22.9148148 16.4636947 0.340740741 0 0.340740741"></polygon>
        <polygon id="path-3" points="0.272545455 25 19.2725455 25 19.2725455 0.344482759 0.272545455 0.344482759"></polygon>
        <polygon id="path-5" points="20.4523565 0.25862069 0.274095652 0.25862069 0.274095652 24.4824138 20.4523565 24.4824138"></polygon>
    </defs>
    <g id="1-Home" stroke="none" stroke-width="1" fill="none" fill-rule="evenodd">
        <g id="1.1-Home" transform="translate(-574.000000, -5323.000000)">
            <g id="Synthon" transform="translate(540.000000, 5279.000000)">
                <rect id="Rectangle-5-Copy-5" x="0" y="0" width="200" height="120"></rect>
                <g id="Group-3" transform="translate(34.000000, 45.000000)">
                    <mask id="mask-2" fill="white">
                        <use xlink:href="#path-1"></use>
                    </mask>
                    <g id="Clip-2"></g>
                    <path d="M3.66806316,16.4407407 L3.66806316,19.337037 C4.38474737,19.6777778 5.99527368,20.1037037 7.78474737,20.1037037 C10.7364842,20.1037037 12.6154316,18.8259259 12.6154316,16.5259259 C12.6154316,14.8222222 11.5426421,14.0555556 9.03648421,13.4592593 L5.01016842,12.3518519 C2.41632632,11.6703704 -0.000357894737,10.137037 -0.000357894737,6.72962963 C-0.000357894737,2.47037037 3.84701053,0.340740741 8.58911579,0.340740741 C11.5426421,0.340740741 13.7794842,0.937037037 15.5689579,1.36296296 L15.5689579,6.21851852 L12.0785895,6.21851852 L12.0785895,3.57777778 C11.6312211,3.40740741 10.3785895,3.06666667 8.67948421,3.06666667 C5.27948421,3.06666667 3.84701053,4.51481481 3.84701053,6.21851852 C3.84701053,8.09259259 5.27948421,8.77407407 7.42595789,9.28518519 L10.9163263,10.137037 C13.5101684,10.8185185 16.4636947,12.1814815 16.4636947,16.0148148 C16.4636947,20.3592593 13.0628,22.9148148 7.69437895,22.9148148 C5.99527368,22.9148148 1.96895789,22.4888889 -0.000357894737,21.7222222 L-0.000357894737,16.4407407 L3.66806316,16.4407407 Z" id="Fill-1" fill="#B4B6B8" mask="url(#mask-2)"></path>
                </g>
                <g id="Group-6" transform="translate(52.000000, 52.000000)">
                    <mask id="mask-4" fill="white">
                        <use xlink:href="#path-3"></use>
                    </mask>
                    <g id="Clip-5"></g>
                    <path d="M0.272545455,0.344482759 L8.18163636,0.344482759 L8.18163636,2.93068966 L6.27345455,2.93068966 L9.63618182,11.2927586 C9.99981818,12.0694828 10.1816364,13.0168966 10.3643636,13.7936207 L10.4543636,13.7936207 C10.6361818,13.1039655 10.9089091,12.1548276 11.1816364,11.2927586 L14.2725455,2.93068966 L11.9998182,2.93068966 L11.9998182,0.344482759 L19.2725455,0.344482759 L19.2725455,2.93068966 L17.5452727,2.93068966 L12.2725455,16.6375862 C11.728,18.1039655 10.5452727,21.2065517 9.54527273,22.4143103 C7.99981818,24.3108621 5.81890909,25.0005172 3.63618182,25.0005172 C2.72709091,25.0005172 1.818,24.8272414 1.27345455,24.6548276 L1.27345455,21.8962069 C1.818,22.1556897 2.90890909,22.2410345 3.72709091,22.2410345 C5.36436364,22.2410345 6.99981818,21.5522414 8.45436364,17.9306897 L8.54618182,17.5858621 L2.18254545,2.93068966 L0.364363636,2.93068966 L0.364363636,0.344482759 L0.272545455,0.344482759 Z" id="Fill-4" fill="#B4B6B8" mask="url(#mask-4)"></path>
                </g>
                <path d="M72.3594757,66.3709985 L74.3415469,66.3709985 L74.4316411,54.9786587 L72,54.9786587 L72,52.3496572 L78.1255011,52.3496572 C78.1255011,53.4897675 78.035407,54.6290015 77.7651246,56.0302593 L77.8561196,56.0302593 C78.5759719,53.9279344 80.467949,52 83.8915266,52 C87.9457633,52 89.8377404,54.4528584 89.8377404,58.3963606 C89.8377404,61.0253621 89.7476463,63.741997 89.7476463,66.3709985 L92,66.3709985 L92,69 L84.16271,69 L84.16271,66.3709985 L86.1438804,66.3709985 C86.1438804,63.9172638 86.2339745,61.463529 86.2339745,59.0106707 C86.2339745,56.643693 85.1528447,54.9786587 82.8112978,54.9786587 C80.2877607,54.9786587 78.3957836,56.9065931 78.3065904,60.0622713 L78.2155953,66.3709985 L80.5589441,66.3709985 L80.5589441,69 L72.6297581,69 L72.6297581,66.3709985 L72.3594757,66.3709985 Z" id="Fill-7" fill="#B4B6B8"></path>
                <path d="M93,52.0082988 L95.7178125,52.0082988 L95.8125,48.2614108 L99.65625,48 L99.5625,52.0082988 L104.624062,52.0082988 L104.624062,54.6224066 L99.5625,54.6224066 C99.5625,57.2365145 99.4678125,59.8506224 99.4678125,62.3775934 C99.4678125,65.4273859 100.217812,66.1244813 102,66.1244813 C103.030312,66.1244813 104.155312,65.776805 105,65.5145228 L104.905312,68.1286307 C103.967812,68.5643154 102.46875,69 100.96875,69 C97.21875,69 95.7178125,67.6058091 95.7178125,63.8597925 C95.7178125,61.7676349 95.8125,57.4987967 95.8125,54.6224066 L93.09375,54.6224066 L93.09375,52.0082988 L93,52.0082988 Z" id="Fill-9" fill="#B4B6B8"></path>
                <g id="Group-13" transform="translate(105.000000, 44.000000)">
                    <mask id="mask-6" fill="white">
                        <use xlink:href="#path-5"></use>
                    </mask>
                    <g id="Clip-12"></g>
                    <path d="M0.639313043,21.8962069 L2.6480087,21.8962069 L2.73931304,2.84448276 L0.274095652,2.84448276 L0.274095652,0.258275862 L6.6654,0.258275862 L6.57409565,8.10310345 C6.57409565,9.22465517 6.39148696,10.3453448 6.11757391,11.7237931 L6.20887826,11.7237931 C6.9384,9.65568966 8.85670435,7.75913793 12.3262696,7.75913793 C16.4349652,7.75913793 18.3514435,10.172069 18.3514435,14.0513793 C18.3514435,16.6375862 18.2610522,19.31 18.1697478,21.8962069 L20.4523565,21.8962069 L20.4523565,24.4824138 L12.5088783,24.4824138 L12.5088783,21.8962069 L14.5175739,21.8962069 C14.5175739,19.4824138 14.6088783,17.0686207 14.6088783,14.6556897 C14.6088783,12.3272414 13.5132261,10.6893103 11.139313,10.6893103 C8.5827913,10.6893103 6.6654,12.5858621 6.57409565,15.6901724 L6.48187826,21.8962069 L8.85670435,21.8962069 L8.85670435,24.4824138 L0.821921739,24.4824138 L0.821921739,21.8962069 L0.639313043,21.8962069 Z" id="Fill-11" fill="#B4B6B8" mask="url(#mask-6)"></path>
                </g>
                <path d="M136.455959,66.0954774 C139.715026,66.0954774 141.212435,63.4472362 141.212435,60.2864322 C141.212435,56.6130653 139.274611,54.9899497 136.721088,54.9899497 C133.108808,54.9899497 131.876528,57.8944724 131.876528,60.7998492 C131.876528,63.4472362 133.197772,66.0954774 136.455959,66.0954774 M136.80829,52 C142.974093,52 145,56.6130653 145,60.628995 C145,65.241206 142.093264,69 136.367876,69 C130.379119,69 128,64.9849246 128,60.8844221 C128,55.5879397 131.700363,52 136.80829,52" id="Fill-14" fill="#B4B6B8"></path>
                <path d="M147.359476,66.3709985 L149.341547,66.3709985 L149.431641,54.9786587 L147,54.9786587 L147,52.3496572 L153.125501,52.3496572 C153.125501,53.4897675 153.035407,54.6290015 152.765125,56.0302593 L152.85612,56.0302593 C153.575972,53.9279344 155.467949,52 158.891527,52 C162.945763,52 164.83774,54.4528584 164.83774,58.3963606 C164.83774,61.0253621 164.747646,63.741997 164.747646,66.3709985 L167,66.3709985 L167,69 L159.16271,69 L159.16271,66.3709985 L161.14388,66.3709985 C161.14388,63.9172638 161.233975,61.463529 161.233975,59.0106707 C161.233975,56.643693 160.152845,54.9786587 157.811298,54.9786587 C155.287761,54.9786587 153.395784,56.9065931 153.30659,60.0622713 L153.215595,66.3709985 L155.558944,66.3709985 L155.558944,69 L147.629758,69 L147.629758,66.3709985 L147.359476,66.3709985 Z" id="Fill-16" fill="#B4B6B8"></path>
            </g>
        </g>
    </g>
</svg>