<?xml version="1.0" encoding="UTF-8" standalone="no"?>
<svg width="134px" height="63px" viewBox="0 0 134 63" version="1.1" xmlns="http://www.w3.org/2000/svg" xmlns:xlink="http://www.w3.org/1999/xlink">
    <!-- Generator: Sketch 46 (44423) - http://www.bohemiancoding.com/sketch -->
    <title>TUV NORD</title>
    <desc>Created with Sketch.</desc>
    <defs>
        <polygon id="path-1" points="133.794242 0.128150413 133.794242 61.7950926 0.000102879079 61.7950926 0.000102879079 0.128150413 133.794242 0.128150413"></polygon>
    </defs>
    <g id="1-Home" stroke="none" stroke-width="1" fill="none" fill-rule="evenodd">
        <g id="1.1-Home" transform="translate(-773.000000, -5300.000000)">
            <g id="TUV-NORD" transform="translate(740.000000, 5279.000000)">
                <rect id="Rectangle-5-Copy-6" x="0" y="0" width="200" height="120"></rect>
                <path d="M139.293459,69.6504263 L139.628387,69.6504263 C140.658935,69.6504263 141.380318,69.9573691 141.818301,70.5712546 C142.256284,71.1851401 142.307811,72.182704 142.02441,73.5383678 C141.714988,74.817296 141.199715,75.7381242 140.452825,76.3264312 C139.705678,76.9147381 138.880982,77.1961023 137.927983,77.1961023 L137.618819,77.1961023 L139.293459,69.6504263 Z M130.739912,83.0280146 L137.773401,83.0280146 C139.293459,83.0280146 140.684698,82.6187576 142.02441,81.8769793 C143.338359,81.1096224 144.497725,80.0353228 145.450982,78.6029233 C146.430002,77.1961023 147.125622,75.5334957 147.589368,73.589525 C148.104642,71.2107186 148.130406,69.2923264 147.692423,67.8087698 C147.228677,66.3252132 146.404238,65.2509135 145.193345,64.5858709 C143.982451,63.8952497 142.513921,63.5627284 140.787753,63.5883069 L135.11974,63.5883069 L130.739912,83.0280146 L130.739912,83.0280146 Z M108.402789,69.5992692 C109.304519,69.6248477 109.948611,70.0085262 110.309303,70.7503045 C110.669994,71.4920828 110.721522,72.4129111 110.489649,73.5127893 C110.206248,74.6894032 109.716738,75.6102314 109.021118,76.3008526 C108.325498,76.9914738 107.552587,77.3495737 106.650858,77.3751523 C105.774893,77.3495737 105.1308,76.9914738 104.770109,76.3008526 C104.383653,75.6102314 104.332126,74.6638246 104.563999,73.5127893 C104.821636,72.4129111 105.285382,71.4920828 105.981002,70.7503045 C106.676622,70.0341048 107.475296,69.6504263 108.402789,69.5992692 L108.402789,69.5992692 Z M109.897084,63 C108.273971,63 106.702386,63.4348356 105.208091,64.3045067 C103.713797,65.1485993 102.399849,66.3507917 101.266246,67.911084 C100.132644,69.4713764 99.333969,71.3130329 98.8186951,73.410475 C98.3549486,75.5590743 98.3291849,77.4263094 98.7671677,78.9610231 C99.2051505,80.4957369 99.9780614,81.6723508 101.111664,82.4908648 C102.245266,83.3093788 103.610742,83.7186358 105.233855,83.7186358 C106.856968,83.7186358 108.428553,83.3093788 109.922847,82.4908648 C111.417142,81.6723508 112.73109,80.4957369 113.838929,78.9610231 C114.972531,77.4263094 115.771206,75.5846529 116.28648,73.410475 C116.750226,71.2874543 116.77599,69.4457978 116.338007,67.911084 C115.900024,66.3507917 115.127114,65.1485993 114.019275,64.3045067 C112.885672,63.4348356 111.494433,63.0255786 109.897084,63 L109.897084,63 Z M78.3880856,83.0280146 L84.5198448,83.0280146 L85.936848,76.7101096 C86.0914302,76.0706456 86.1687213,75.4311815 86.2460123,74.7917174 C86.2975397,74.1522533 86.3748308,73.4872107 86.4263582,72.8221681 L86.6067041,72.8221681 L89.9559843,83.0535932 L96.0877435,83.0535932 L100.441808,63.5883069 L94.3100486,63.5883069 L93.0218639,69.4202192 C92.8415181,70.2387333 92.7126996,71.0828258 92.6354085,71.9013398 C92.5581174,72.7198538 92.50659,73.5639464 92.4550627,74.3568819 L92.2747168,74.3568819 L88.9254365,63.5627284 L82.7421499,63.5627284 L78.3880856,83.0280146 L78.3880856,83.0280146 Z M124.015588,68.8830694 L124.505098,68.8830694 C125.0719,68.8574909 125.535646,68.9598051 125.896338,69.1644336 C126.25703,69.3690621 126.334321,69.8294762 126.205502,70.5712546 C126.025156,71.2618758 125.690228,71.7222899 125.226482,71.9269184 C124.762735,72.1315469 124.247461,72.2082826 123.706424,72.2082826 L123.268441,72.2082826 L124.015588,68.8830694 Z M114.379966,83.0280146 L120.666308,83.0280146 L122.134838,76.7868453 L122.263657,76.7868453 L123.629133,83.0280146 L131.049077,83.0280146 L128.678817,76.7101096 C128.549998,76.4287454 128.42118,76.1985384 128.292361,76.0194884 C128.137779,75.8404385 128.008961,75.6869671 127.880142,75.5334957 L127.905906,75.3800244 C129.194091,74.9707674 130.198875,74.3824604 130.920258,73.6151035 C131.641642,72.8477467 132.182679,71.7478685 132.517607,70.3154689 C132.878299,68.6784409 132.852535,67.3739342 132.414552,66.3763703 C131.97657,65.3788063 131.255186,64.6626066 130.250402,64.2021924 C129.245618,63.7417783 128.060488,63.5371498 126.720776,63.5371498 L118.94014,63.5371498 L114.379966,83.0280146 L114.379966,83.0280146 Z M60.997592,70.8014616 L59.9670442,75.45676 C59.2714244,78.3727162 58.1378219,80.5213155 56.5147092,81.9281364 C54.8915964,83.3093788 52.9593194,84 50.7436416,84 C48.5022002,84 46.8790875,83.3349574 45.9000671,81.9281364 C44.9210467,80.546894 44.7407009,78.3982948 45.3590295,75.45676 L46.3895773,70.8014616 L52.1348811,70.8014616 L51.2589155,74.7661389 C51.052806,75.5846529 50.9755149,76.2752741 51.0012786,76.8380024 C51.052806,77.4007308 51.4134977,77.7076736 52.1606448,77.7332521 C52.907792,77.7076736 53.4230658,77.4007308 53.7322302,76.8380024 C54.0413945,76.2752741 54.2732678,75.5846529 54.4020862,74.7661389 L55.2780518,70.8014616 L60.997592,70.8014616 L60.997592,70.8014616 Z" id="Fill-1" fill="#B4B6B8"></path>
                <g id="Group-5" transform="translate(33.000000, 21.000000)">
                    <mask id="mask-2" fill="white">
                        <use xlink:href="#path-1"></use>
                    </mask>
                    <g id="Clip-4"></g>
                    <path d="M65.8169935,21.0595554 C71.5265251,8.83889421 83.4607555,0.128150413 97.8892891,0.128150413 C117.719489,0.128150413 133.794345,16.1405471 133.794345,35.8934397 C133.794345,44.681043 130.193577,52.2901339 124.921024,58.5157537 C124.663826,58.8231917 124.406629,58.8231917 124.174894,58.6438529 C123.943673,58.464514 123.943673,58.157076 124.149431,57.9264975 L124.174894,57.9008777 C129.113347,52.0595554 131.659604,44.1174066 131.659604,35.8934397 C131.659604,17.3190595 116.536122,2.25459669 97.8892891,2.25459669 C84.3352276,2.25459669 72.1440568,9.99178678 66.7683678,21.4950926 C66.6397689,21.7512909 66.3054119,21.9050099 66.0482142,21.7769107 C65.8169935,21.6488116 65.6883946,21.3413736 65.8169935,21.0595554 M39.2482142,42.2983983 L46.0899301,42.2983983 L36.2649781,61.7950926 L30.7352276,61.7950926 L27.906053,48.4471587 L22.1705443,48.4471587 L23.5336921,42.2983983 L33.4358035,42.2983983 L34.5414964,51.1628612 C34.5931931,51.649638 34.6446326,52.110795 34.6446326,52.5975719 C34.6446326,53.0843488 34.6186557,53.5711256 34.5674733,54.0579025 L34.7217919,54.0579025 C34.798694,53.5711256 34.9018303,53.0843488 35.0558917,52.5975719 C35.2104676,52.110795 35.3902488,51.6240182 35.5962641,51.1628612 L39.2482142,42.2983983 M14.6858342,42.2983983 L20.4216,42.2983983 L19.058195,48.4471587 L11.0596038,48.4471587 L7.8700952,61.7694727 L0.771695969,61.7694727 L3.96094741,48.4471587 L0.000102879079,48.6264975 L1.49159232,42.2727785 L14.6858342,42.2727785" id="Fill-3" fill="#B4B6B8" mask="url(#mask-2)"></path>
                </g>
            </g>
        </g>
    </g>
</svg>