<?xml version="1.0" encoding="UTF-8" standalone="no"?>
<svg width="141px" height="35px" viewBox="0 0 141 35" version="1.1" xmlns="http://www.w3.org/2000/svg" xmlns:xlink="http://www.w3.org/1999/xlink">
    <!-- Generator: Sketch 46 (44423) - http://www.bohemiancoding.com/sketch -->
    <title>Veolia</title>
    <desc>Created with Sketch.</desc>
    <defs>
        <polygon id="path-1" points="19.687 0.255722985 19.687 17.5724898 0.3974 17.5724898 0.3974 0.255722985"></polygon>
    </defs>
    <g id="1-Home" stroke="none" stroke-width="1" fill="none" fill-rule="evenodd">
        <g id="1.1-Home" transform="translate(-770.000000, -5442.000000)">
            <g id="Veolia" transform="translate(740.000000, 5399.000000)">
                <rect id="Rectangle-5-Copy-3" x="0" y="0" width="200" height="120"></rect>
                <path d="M47.0271,70.2962 C46.8821,70.1162 46.7831,69.9892 46.6801,69.8662 C45.6171,68.5842 44.6741,67.2232 43.9991,65.6922 C43.4541,64.4622 43.2151,63.1902 43.4501,61.8392 C43.8431,59.5722 45.7991,58.1342 47.9141,58.5832 C49.5201,58.9232 50.7131,60.2632 50.9781,61.9902 C51.1681,63.2242 50.9331,64.3862 50.4381,65.5092 C49.7111,67.1622 48.6801,68.6192 47.5291,69.9992 C47.4531,70.0892 47.3901,70.1922 47.3051,70.3132 C52.4401,70.5452 59.0691,66.2962 59.4551,58.5832 C59.8181,51.3362 53.9671,45.5772 47.0811,45.6422 C40.2541,45.7062 34.4051,51.5352 34.9681,58.9192 C35.5641,66.7262 42.3741,70.5472 47.0271,70.2962 M47.1971,43.0002 C56.6651,42.9852 64.3901,50.7362 64.4041,60.2652 C64.4181,69.8812 56.7581,77.6402 47.2301,77.6622 C37.7131,77.6842 29.9961,69.9202 30.0001,60.3242 C30.0041,50.7472 37.6791,43.0152 47.1971,43.0002" id="Fill-1" fill="#B4B6B8"></path>
                <path d="M122.7468,61.7904 C122.6238,60.6834 122.5888,59.8654 122.4328,59.0724 C122.0978,57.3704 121.2708,56.0374 119.4688,55.5594 C118.3668,55.2674 117.2538,55.2384 116.1388,55.4994 C114.5268,55.8774 113.4338,56.8164 113.0238,58.4484 C112.5008,60.5364 112.5008,62.6334 113.0798,64.7104 C113.4738,66.1204 114.3298,67.1774 115.7888,67.5174 C116.6758,67.7254 117.6278,67.8034 118.5348,67.7364 C120.3088,67.6044 121.6368,66.7094 122.1468,64.9484 C122.4698,63.8364 122.5868,62.6654 122.7468,61.7904 M117.1448,52.3294 C119.1468,52.3534 120.6058,52.5184 122.0248,53.0114 C124.2398,53.7794 125.7258,55.2454 126.4248,57.4894 C127.1848,59.9374 127.2788,62.4254 126.6708,64.9074 C125.9678,67.7714 124.1268,69.5704 121.2578,70.2634 C118.8218,70.8524 116.3778,70.7944 113.9678,70.1294 C110.9928,69.3074 109.1778,67.3394 108.5478,64.3324 C108.0728,62.0704 108.1498,59.8064 108.8178,57.5814 C109.6708,54.7384 111.6948,53.2184 114.5108,52.6644 C115.5438,52.4604 116.6028,52.3954 117.1448,52.3294" id="Fill-3" fill="#B4B6B8"></path>
                <g id="Group-7" transform="translate(151.000000, 52.662600)">
                    <mask id="mask-2" fill="white">
                        <use xlink:href="#path-1"></use>
                    </mask>
                    <g id="Clip-6"></g>
                    <path d="M7.4294,10.5076 L12.7004,10.5076 C11.8244,8.4706 10.9694,6.4886 10.0644,4.3866 C9.1574,6.4926 8.3074,8.4676 7.4294,10.5076 M0.3974,17.5696 C0.6584,16.9486 0.8674,16.4416 1.0844,15.9376 C3.1024,11.2666 5.1254,6.5976 7.1354,1.9236 C7.6024,0.8366 8.4614,0.3506 9.5754,0.2786 C10.3694,0.2276 11.1704,0.2806 11.9674,0.2616 C12.2414,0.2556 12.3664,0.3586 12.4714,0.6026 C14.8254,6.1026 17.1864,11.5996 19.5434,17.0976 C19.5944,17.2146 19.6254,17.3386 19.6874,17.5216 C19.4954,17.5406 19.3444,17.5676 19.1934,17.5686 C18.3634,17.5716 17.5334,17.5756 16.7024,17.5686 C15.7454,17.5586 15.0584,17.1226 14.6714,16.2396 C14.3384,15.4806 14.0014,14.7226 13.6924,13.9536 C13.5724,13.6546 13.4124,13.5336 13.0794,13.5366 C11.0454,13.5516 9.0114,13.5506 6.9774,13.5366 C6.6464,13.5346 6.4844,13.6486 6.3664,13.9536 C6.0914,14.6666 5.7994,15.3736 5.4784,16.0666 C5.0304,17.0356 4.2834,17.5796 3.1804,17.5716 C2.2874,17.5656 1.3964,17.5696 0.3974,17.5696" id="Fill-5" fill="#B4B6B8" mask="url(#mask-2)"></path>
                </g>
                <path d="M105.2527,53.1038 C105.2527,53.9808 105.2537,54.8578 105.2517,55.7348 C105.2517,55.8118 105.2317,55.8898 105.2147,56.0178 L104.5257,56.0178 C102.8667,56.0178 101.2067,56.0028 99.5477,56.0268 C98.9347,56.0368 98.3137,56.0948 97.7097,56.2078 C96.1127,56.5098 95.2087,57.5008 95.0057,59.1068 C94.9647,59.4248 94.9397,59.7458 94.8997,60.1328 L104.8147,60.1328 L104.8147,63.0478 C104.6017,63.0598 104.3977,63.0828 104.1917,63.0828 C101.2797,63.0848 98.3677,63.0828 95.4557,63.0848 C94.8737,63.0848 94.8737,63.0878 94.9697,63.6548 C95.3427,65.8568 96.3557,66.9178 98.6097,67.0978 C100.5827,67.2548 102.5747,67.1828 104.5587,67.2108 C104.7667,67.2138 104.9747,67.2118 105.2187,67.2118 L105.2187,70.1938 C105.1357,70.2138 105.0447,70.2548 104.9537,70.2538 C102.5467,70.2288 100.1397,70.2328 97.7327,70.1618 C93.2957,70.0308 90.8717,67.0358 90.4917,63.1778 C90.3057,61.2868 90.2867,59.3898 91.0157,57.5968 C92.1027,54.9198 94.0127,53.2188 97.0007,53.1228 C99.7267,53.0348 102.4577,53.1038 105.2527,53.1038" id="Fill-8" fill="#B4B6B8"></path>
                <path d="M89.2527,53.0286 C88.6607,54.3446 88.1037,55.5866 87.5447,56.8276 C85.7567,60.8006 83.9637,64.7716 82.1847,68.7486 C81.7277,69.7686 80.9737,70.2796 79.8527,70.2576 C79.2997,70.2466 78.7447,70.2336 78.1927,70.2676 C77.8127,70.2906 77.6177,70.1666 77.4607,69.8086 C75.7497,65.9086 74.0207,62.0166 72.2957,58.1216 C71.6107,56.5756 70.9257,55.0306 70.2417,53.4836 C70.1847,53.3536 70.1417,53.2156 70.0757,53.0416 C71.1357,53.0416 72.1577,52.9856 73.1717,53.0576 C74.0917,53.1246 74.6927,53.6986 75.0567,54.5496 C76.4217,57.7496 77.8017,60.9426 79.1767,64.1376 C79.3147,64.4596 79.4607,64.7786 79.6487,65.2026 C79.7797,64.8946 79.8707,64.6906 79.9537,64.4846 C81.2717,61.2126 82.5867,57.9406 83.9047,54.6696 C84.3837,53.4796 85.0557,53.0286 86.3287,53.0286 L89.2527,53.0286 Z" id="Fill-10" fill="#B4B6B8"></path>
                <path d="M130.2976,52.889 C131.1846,52.934 132.0326,52.916 132.8616,53.038 C133.7656,53.171 134.2226,53.797 134.2246,54.721 C134.2296,57.452 134.2126,60.184 134.2356,62.916 C134.2426,63.677 134.3126,64.444 134.4406,65.193 C134.6136,66.212 135.2656,66.859 136.2806,67.021 C137.1276,67.156 137.9926,67.199 138.8526,67.225 C139.9566,67.259 141.0636,67.248 142.1686,67.23 C142.5336,67.224 142.6526,67.347 142.6416,67.709 C142.6176,68.407 142.6206,69.107 142.6396,69.806 C142.6486,70.13 142.5226,70.232 142.2116,70.227 C140.0666,70.197 137.9106,70.292 135.7766,70.123 C133.1986,69.92 131.3486,68.747 130.6426,66.403 C130.4436,65.742 130.3116,65.034 130.3026,64.346 C130.2576,60.655 130.2606,56.964 130.2496,53.272 C130.2486,53.178 130.2726,53.084 130.2976,52.889" id="Fill-12" fill="#B4B6B8"></path>
                <path d="M149.1912,52.931 L149.1912,53.502 C149.1912,58.432 149.1912,63.362 149.1902,68.292 C149.1902,69.631 148.5932,70.227 147.2592,70.23 C146.7392,70.231 146.2172,70.213 145.6972,70.236 C145.3302,70.252 145.2252,70.11 145.2282,69.753 C145.2442,68.142 145.2352,66.531 145.2352,64.92 C145.2352,61.634 145.2342,58.347 145.2352,55.06 C145.2362,53.581 145.8942,52.932 147.3872,52.931 C147.9692,52.931 148.5502,52.931 149.1912,52.931" id="Fill-14" fill="#B4B6B8"></path>
            </g>
        </g>
    </g>
</svg>