<?xml version="1.0" encoding="UTF-8" standalone="no"?>
<svg width="77px" height="77px" viewBox="0 0 77 77" version="1.1" xmlns="http://www.w3.org/2000/svg" xmlns:xlink="http://www.w3.org/1999/xlink">
    <!-- Generator: Sketch 46 (44423) - http://www.bohemiancoding.com/sketch -->
    <title>ZF</title>
    <desc>Created with Sketch.</desc>
    <defs></defs>
    <g id="1-Home" stroke="none" stroke-width="1" fill="none" fill-rule="evenodd">
        <g id="1.1-Home" transform="translate(-402.000000, -5421.000000)">
            <g id="ZF" transform="translate(340.000000, 5399.000000)">
                <rect id="Rectangle-5-Copy" x="0" y="0" width="200" height="120"></rect>
                <path d="M73.357587,81.895192 C78.4978014,69.1682709 83.5997243,56.5370785 88.7266199,43.8434544 C88.5326653,43.8318004 88.4119639,43.8184817 88.2895976,43.8184817 C82.4118561,43.8176492 76.5324498,43.8201465 70.6547083,43.8118223 C70.3567007,43.8118223 70.1860539,43.9050537 70.0628553,44.1739265 C69.6483084,45.0771058 69.1863134,45.9594746 68.7967393,46.8726431 C67.1984864,50.6202131 66.2728316,54.5351003 66.0380882,58.5989912 C65.9357001,60.37788 65.9664998,62.1642606 66.1537951,63.9456466 C66.2869828,65.212595 66.4651214,66.4720516 66.7306645,67.7165245 C67.7362319,72.4280409 69.6424815,76.7449885 72.4410889,80.6665351 C72.7207831,81.0586065 73.0162934,81.439024 73.357587,81.895192 M127.847189,82.0025746 C127.680704,82.0025746 127.581646,82.0017422 127.482588,82.0025746 C109.511399,82.0067367 91.5402109,82.0108988 73.5690225,82.0158934 C73.5598659,82.0158934 73.548212,82.0283797 73.542385,82.0375364 C73.5357256,82.0475255 73.5348932,82.0600118 73.5315635,82.0716658 C87.6369777,99.9421309 114.545064,99.1155345 127.847189,82.0025746 M86.5606543,77.1978269 L87.1458479,77.1978269 L112.248407,77.1978269 C118.306785,77.1978269 124.365162,77.1953296 130.424372,77.2061511 C130.759006,77.2069835 130.947134,77.0954388 131.138591,76.8282309 C131.741266,75.9908129 132.135002,75.051007 132.537895,74.1145306 C134.21606,70.2096326 135.110083,66.1240986 135.284892,61.8837339 C135.346491,60.393696 135.33234,58.8994961 135.154202,57.4152852 C135.029338,56.3672642 134.93028,55.3125837 134.74132,54.2753842 C134.099521,50.7392497 132.916648,47.3879131 131.235152,44.2105531 C131.075327,43.9067186 130.887199,43.7677038 130.547571,43.8134871 C130.371929,43.8376274 130.190461,43.8176492 130.012322,43.8176492 L113.864141,43.8176492 C113.397984,43.8176492 113.397152,43.8193141 113.397152,44.2804766 C113.396319,44.9697232 113.397152,45.6581373 113.397152,46.3465515 C113.397152,49.2933303 113.396319,52.240109 113.397152,55.1860554 C113.397152,55.6130886 113.399649,55.6130886 113.817525,55.6164183 C113.894108,55.6164183 113.970691,55.6164183 114.047274,55.6164183 C116.764304,55.6164183 119.480502,55.6164183 122.198364,55.6164183 C122.313239,55.6164183 122.427281,55.6205804 122.542155,55.6189155 C122.711137,55.6164183 122.807698,55.6863418 122.805201,55.8653129 C122.804368,55.9294095 122.807698,55.9935061 122.807698,56.0567702 C122.807698,57.3711667 122.80853,58.6847308 122.806866,59.9982949 C122.806866,60.1214936 122.789385,60.2446923 122.776898,60.3970257 C122.586273,60.4070148 122.423951,60.4219984 122.262461,60.4219984 C119.481334,60.4236633 116.70104,60.4228309 113.920746,60.4236633 C113.397152,60.4236633 113.397152,60.4236633 113.397152,60.9439279 C113.397152,65.0502724 113.397152,69.1574494 113.396319,73.2646264 C113.396319,73.4386029 113.382168,73.6125793 113.374676,73.8057016 C113.199867,73.8240149 113.062517,73.8514849 112.924335,73.8523173 C109.749472,73.8548146 106.572945,73.8548146 103.39725,73.8514849 C103.251575,73.8514849 103.105901,73.8115285 102.926098,73.7840586 L102.926098,73.2196755 C102.926098,62.0585428 102.926098,50.8982425 102.926098,39.7371098 C102.926098,38.9446428 102.85451,39.0120691 103.64115,39.0112366 C111.498394,39.0112366 119.355638,39.0112366 127.21205,39.0104042 C127.358557,39.0104042 127.505063,39.0054097 127.737309,38.9995827 C127.412664,38.5925277 127.155445,38.247072 126.874919,37.9224269 C123.355433,33.8485468 119.123392,30.750267 114.177132,28.6259225 C110.487832,27.0418208 106.632047,26.149463 102.63142,25.9230438 C100.596145,25.8090018 98.5558752,25.8514554 96.5247621,26.1186633 C95.2486571,26.2859804 93.9825411,26.4982484 92.7305764,26.7937587 C89.5357354,27.5479343 86.5098764,28.7382997 83.6480049,30.3457092 C79.7689119,32.5249937 76.4100835,35.3269308 73.5881683,38.7706663 C73.5373905,38.8339305 73.4949369,38.903854 73.4208512,39.0112366 L73.8945001,39.0112366 L97.7334409,39.0112366 C98.9712545,39.0112366 100.208236,39.0095718 101.445217,39.0129015 C101.589226,39.0137339 101.733235,39.0412039 101.943838,39.0620145 C96.8119482,51.7856059 91.7050308,64.4459331 86.5606543,77.1978269 M100.510405,98.9964979 C79.6107515,99.0863997 61.9925106,82.1191139 62.0000024,60.4927544 C62.0083266,38.9787721 79.4567531,22.1221987 100.261511,22.0006648 C121.373433,21.8774662 139.007489,38.8913677 138.999998,60.5110677 C138.992506,82.1890374 121.346795,99.0747457 100.510405,98.9964979" fill="#B4B6B8"></path>
            </g>
        </g>
    </g>
</svg>